<ttFont>
    <TTGlyph name=".notdef" xMin="45" yMin="156" xMax="221" yMax="332">
      <contour>
        <pt x="45" y="243" on="1"/>
        <pt x="45" y="260" on="0"/>
        <pt x="58" y="292" on="0"/>
        <pt x="82" y="317" on="0"/>
        <pt x="114" y="332" on="0"/>
        <pt x="133" y="332" on="1"/>
        <pt x="150" y="332" on="0"/>
        <pt x="182" y="317" on="0"/>
        <pt x="206" y="292" on="0"/>
        <pt x="221" y="260" on="0"/>
        <pt x="221" y="243" on="1"/>
        <pt x="221" y="205" on="0"/>
        <pt x="167" y="156" on="0"/>
        <pt x="133" y="156" on="1"/>
        <pt x="95" y="156" on="0"/>
        <pt x="45" y="205" on="0"/>
      </contour>
    </TTGlyph>
    <TTGlyph name="A" xMin="-17" yMin="-6" xMax="709" yMax="665">
      <contour>
        <pt x="386" y="665" on="1"/>
        <pt x="558" y="211" on="1"/>
        <pt x="567" y="186" on="0"/>
        <pt x="581" y="152" on="0"/>
        <pt x="590" y="128" on="0"/>
        <pt x="597" y="113" on="0"/>
        <pt x="600" y="107" on="1"/>
        <pt x="612" y="82" on="0"/>
        <pt x="637" y="55" on="0"/>
        <pt x="662" y="42" on="0"/>
        <pt x="688" y="40" on="0"/>
        <pt x="701" y="40" on="1"/>
        <pt x="706" y="36" on="1"/>
        <pt x="709" y="-2" on="1"/>
        <pt x="707" y="-6" on="1"/>
        <pt x="700" y="-6" on="0"/>
        <pt x="672" y="-4" on="0"/>
        <pt x="642" y="-2" on="0"/>
        <pt x="615" y="0" on="0"/>
        <pt x="608" y="0" on="1"/>
        <pt x="535" y="0" on="1"/>
        <pt x="528" y="0" on="0"/>
        <pt x="496" y="-2" on="0"/>
        <pt x="461" y="-4" on="0"/>
        <pt x="429" y="-6" on="0"/>
        <pt x="422" y="-6" on="1"/>
        <pt x="420" y="-2" on="1"/>
        <pt x="423" y="36" on="1"/>
        <pt x="427" y="40" on="1"/>
        <pt x="453" y="40" on="0"/>
        <pt x="480" y="53" on="0"/>
        <pt x="480" y="82" on="1"/>
        <pt x="480" y="98" on="0"/>
        <pt x="469" y="157" on="0"/>
        <pt x="449" y="201" on="1"/>
        <pt x="428" y="249" on="1"/>
        <pt x="253" y="249" on="1"/>
        <pt x="233" y="201" on="1"/>
        <pt x="215" y="157" on="0"/>
        <pt x="197" y="95" on="0"/>
        <pt x="197" y="82" on="1"/>
        <pt x="197" y="58" on="0"/>
        <pt x="217" y="40" on="0"/>
        <pt x="243" y="40" on="1"/>
        <pt x="248" y="36" on="1"/>
        <pt x="251" y="-2" on="1"/>
        <pt x="249" y="-6" on="1"/>
        <pt x="242" y="-6" on="0"/>
        <pt x="212" y="-4" on="0"/>
        <pt x="179" y="-2" on="0"/>
        <pt x="149" y="0" on="0"/>
        <pt x="142" y="0" on="1"/>
        <pt x="83" y="0" on="1"/>
        <pt x="76" y="0" on="0"/>
        <pt x="48" y="-2" on="0"/>
        <pt x="18" y="-4" on="0"/>
        <pt x="-9" y="-6" on="0"/>
        <pt x="-16" y="-6" on="1"/>
        <pt x="-17" y="-2" on="1"/>
        <pt x="-15" y="36" on="1"/>
        <pt x="-10" y="40" on="1"/>
        <pt x="3" y="40" on="0"/>
        <pt x="29" y="44" on="0"/>
        <pt x="55" y="58" on="0"/>
        <pt x="80" y="83" on="0"/>
        <pt x="93" y="103" on="1"/>
        <pt x="96" y="109" on="0"/>
        <pt x="108" y="134" on="0"/>
        <pt x="134" y="198" on="0"/>
        <pt x="180" y="316" on="0"/>
        <pt x="218" y="414" on="1"/>
        <pt x="304" y="635" on="1"/>
        <pt x="375" y="665" on="1"/>
      </contour>
      <contour>
        <pt x="270" y="322" on="1"/>
        <pt x="401" y="322" on="1"/>
        <pt x="337" y="499" on="1"/>
      </contour>
    </TTGlyph>
    <TTGlyph name="AE" xMin="-26" yMin="-6" xMax="904" yMax="660">
      <contour>
        <pt x="339" y="660" on="1"/>
        <pt x="346" y="659" on="0"/>
        <pt x="381" y="657" on="0"/>
        <pt x="424" y="655" on="0"/>
        <pt x="471" y="654" on="0"/>
        <pt x="491" y="654" on="1"/>
        <pt x="695" y="654" on="1"/>
        <pt x="709" y="654" on="0"/>
        <pt x="764" y="655" on="0"/>
        <pt x="822" y="657" on="0"/>
        <pt x="868" y="658" on="0"/>
        <pt x="873" y="658" on="1"/>
        <pt x="879" y="648" on="1"/>
        <pt x="874" y="519" on="1"/>
        <pt x="829" y="519" on="1"/>
        <pt x="825" y="523" on="1"/>
        <pt x="823" y="542" on="0"/>
        <pt x="816" y="564" on="0"/>
        <pt x="786" y="574" on="0"/>
        <pt x="723" y="576" on="0"/>
        <pt x="667" y="576" on="1"/>
        <pt x="610" y="576" on="1"/>
        <pt x="609" y="567" on="1"/>
        <pt x="608" y="553" on="0"/>
        <pt x="607" y="529" on="0"/>
        <pt x="606" y="497" on="0"/>
        <pt x="606" y="451" on="0"/>
        <pt x="606" y="415" on="1"/>
        <pt x="606" y="381" on="1"/>
        <pt x="630" y="382" on="0"/>
        <pt x="674" y="382" on="0"/>
        <pt x="711" y="384" on="0"/>
        <pt x="738" y="390" on="0"/>
        <pt x="744" y="396" on="1"/>
        <pt x="749" y="401" on="0"/>
        <pt x="755" y="413" on="0"/>
        <pt x="755" y="422" on="1"/>
        <pt x="760" y="427" on="1"/>
        <pt x="797" y="429" on="1"/>
        <pt x="801" y="427" on="1"/>
        <pt x="799" y="404" on="0"/>
        <pt x="796" y="370" on="0"/>
        <pt x="796" y="348" on="1"/>
        <pt x="796" y="324" on="0"/>
        <pt x="799" y="283" on="0"/>
        <pt x="801" y="259" on="1"/>
        <pt x="797" y="257" on="1"/>
        <pt x="759" y="259" on="1"/>
        <pt x="755" y="262" on="1"/>
        <pt x="755" y="286" on="0"/>
        <pt x="745" y="299" on="1"/>
        <pt x="737" y="310" on="0"/>
        <pt x="663" y="313" on="0"/>
        <pt x="617" y="313" on="1"/>
        <pt x="606" y="313" on="1"/>
        <pt x="606" y="231" on="1"/>
        <pt x="606" y="202" on="0"/>
        <pt x="607" y="164" on="0"/>
        <pt x="608" y="137" on="0"/>
        <pt x="610" y="113" on="0"/>
        <pt x="611" y="97" on="1"/>
        <pt x="612" y="78" on="0"/>
        <pt x="631" y="78" on="1"/>
        <pt x="676" y="78" on="1"/>
        <pt x="733" y="78" on="0"/>
        <pt x="798" y="82" on="0"/>
        <pt x="832" y="97" on="0"/>
        <pt x="847" y="125" on="0"/>
        <pt x="853" y="149" on="1"/>
        <pt x="857" y="153" on="1"/>
        <pt x="904" y="153" on="1"/>
        <pt x="885" y="6" on="1"/>
        <pt x="877" y="-4" on="1"/>
        <pt x="872" y="-4" on="0"/>
        <pt x="833" y="-3" on="0"/>
        <pt x="785" y="-1" on="0"/>
        <pt x="737" y="0" on="0"/>
        <pt x="723" y="0" on="1"/>
        <pt x="521" y="0" on="1"/>
        <pt x="496" y="0" on="0"/>
        <pt x="435" y="-2" on="0"/>
        <pt x="409" y="-2" on="1"/>
        <pt x="407" y="1" on="1"/>
        <pt x="410" y="36" on="1"/>
        <pt x="415" y="40" on="1"/>
        <pt x="436" y="40" on="0"/>
        <pt x="460" y="45" on="0"/>
        <pt x="468" y="50" on="1"/>
        <pt x="476" y="57" on="0"/>
        <pt x="490" y="86" on="0"/>
        <pt x="492" y="105" on="1"/>
        <pt x="494" y="121" on="0"/>
        <pt x="495" y="174" on="0"/>
        <pt x="495" y="193" on="1"/>
        <pt x="495" y="298" on="1"/>
        <pt x="326" y="298" on="1"/>
        <pt x="283" y="229" on="0"/>
        <pt x="234" y="148" on="0"/>
        <pt x="209" y="103" on="0"/>
        <pt x="203" y="82" on="0"/>
        <pt x="203" y="72" on="1"/>
        <pt x="203" y="61" on="0"/>
        <pt x="213" y="48" on="0"/>
        <pt x="229" y="42" on="0"/>
        <pt x="250" y="40" on="0"/>
        <pt x="261" y="40" on="1"/>
        <pt x="266" y="36" on="1"/>
        <pt x="269" y="-2" on="1"/>
        <pt x="266" y="-6" on="1"/>
        <pt x="259" y="-6" on="0"/>
        <pt x="224" y="-4" on="0"/>
        <pt x="185" y="-2" on="0"/>
        <pt x="150" y="0" on="0"/>
        <pt x="143" y="0" on="1"/>
        <pt x="74" y="0" on="1"/>
        <pt x="67" y="0" on="0"/>
        <pt x="39" y="-2" on="0"/>
        <pt x="9" y="-4" on="0"/>
        <pt x="-19" y="-6" on="0"/>
        <pt x="-26" y="-6" on="1"/>
        <pt x="-26" y="-2" on="1"/>
        <pt x="-24" y="36" on="1"/>
        <pt x="-19" y="40" on="1"/>
        <pt x="-1" y="42" on="0"/>
        <pt x="46" y="49" on="0"/>
        <pt x="60" y="59" on="1"/>
        <pt x="70" y="66" on="0"/>
        <pt x="91" y="91" on="0"/>
        <pt x="102" y="107" on="1"/>
        <pt x="105" y="112" on="0"/>
        <pt x="132" y="154" on="0"/>
        <pt x="171" y="220" on="0"/>
        <pt x="220" y="302" on="0"/>
        <pt x="272" y="390" on="0"/>
        <pt x="325" y="480" on="0"/>
        <pt x="348" y="520" on="1"/>
        <pt x="363" y="546" on="0"/>
        <pt x="383" y="580" on="0"/>
        <pt x="383" y="595" on="1"/>
        <pt x="383" y="598" on="0"/>
        <pt x="382" y="604" on="0"/>
        <pt x="374" y="609" on="0"/>
        <pt x="359" y="613" on="0"/>
        <pt x="344" y="614" on="1"/>
        <pt x="340" y="618" on="1"/>
        <pt x="337" y="656" on="1"/>
      </contour>
      <contour>
        <pt x="497" y="576" on="1"/>
        <pt x="493" y="576" on="1"/>
        <pt x="361" y="366" on="1"/>
        <pt x="495" y="366" on="1"/>
      </contour>
    </TTGlyph>
    <TTGlyph name="Aacute" xMin="-17" yMin="-6" xMax="709" yMax="850">
      <contour>
        <pt x="386" y="665" on="1"/>
        <pt x="558" y="211" on="1"/>
        <pt x="567" y="186" on="0"/>
        <pt x="581" y="152" on="0"/>
        <pt x="590" y="128" on="0"/>
        <pt x="597" y="113" on="0"/>
        <pt x="600" y="107" on="1"/>
        <pt x="612" y="82" on="0"/>
        <pt x="637" y="55" on="0"/>
        <pt x="662" y="42" on="0"/>
        <pt x="688" y="40" on="0"/>
        <pt x="701" y="40" on="1"/>
        <pt x="706" y="36" on="1"/>
        <pt x="709" y="-2" on="1"/>
        <pt x="707" y="-6" on="1"/>
        <pt x="700" y="-6" on="0"/>
        <pt x="672" y="-4" on="0"/>
        <pt x="642" y="-2" on="0"/>
        <pt x="615" y="0" on="0"/>
        <pt x="608" y="0" on="1"/>
        <pt x="535" y="0" on="1"/>
        <pt x="528" y="0" on="0"/>
        <pt x="496" y="-2" on="0"/>
        <pt x="461" y="-4" on="0"/>
        <pt x="429" y="-6" on="0"/>
        <pt x="422" y="-6" on="1"/>
        <pt x="420" y="-2" on="1"/>
        <pt x="423" y="36" on="1"/>
        <pt x="427" y="40" on="1"/>
        <pt x="453" y="40" on="0"/>
        <pt x="480" y="53" on="0"/>
        <pt x="480" y="82" on="1"/>
        <pt x="480" y="98" on="0"/>
        <pt x="469" y="157" on="0"/>
        <pt x="449" y="201" on="1"/>
        <pt x="428" y="249" on="1"/>
        <pt x="253" y="249" on="1"/>
        <pt x="233" y="201" on="1"/>
        <pt x="215" y="157" on="0"/>
        <pt x="197" y="95" on="0"/>
        <pt x="197" y="82" on="1"/>
        <pt x="197" y="58" on="0"/>
        <pt x="217" y="40" on="0"/>
        <pt x="243" y="40" on="1"/>
        <pt x="248" y="36" on="1"/>
        <pt x="251" y="-2" on="1"/>
        <pt x="249" y="-6" on="1"/>
        <pt x="242" y="-6" on="0"/>
        <pt x="212" y="-4" on="0"/>
        <pt x="179" y="-2" on="0"/>
        <pt x="149" y="0" on="0"/>
        <pt x="142" y="0" on="1"/>
        <pt x="83" y="0" on="1"/>
        <pt x="76" y="0" on="0"/>
        <pt x="48" y="-2" on="0"/>
        <pt x="18" y="-4" on="0"/>
        <pt x="-9" y="-6" on="0"/>
        <pt x="-16" y="-6" on="1"/>
        <pt x="-17" y="-2" on="1"/>
        <pt x="-15" y="36" on="1"/>
        <pt x="-10" y="40" on="1"/>
        <pt x="3" y="40" on="0"/>
        <pt x="29" y="44" on="0"/>
        <pt x="55" y="58" on="0"/>
        <pt x="80" y="83" on="0"/>
        <pt x="93" y="103" on="1"/>
        <pt x="96" y="109" on="0"/>
        <pt x="108" y="134" on="0"/>
        <pt x="134" y="198" on="0"/>
        <pt x="180" y="316" on="0"/>
        <pt x="218" y="414" on="1"/>
        <pt x="304" y="635" on="1"/>
        <pt x="375" y="665" on="1"/>
      </contour>
      <contour>
        <pt x="270" y="322" on="1"/>
        <pt x="401" y="322" on="1"/>
        <pt x="337" y="499" on="1"/>
      </contour>
      <contour>
        <pt x="246" y="692" on="1"/>
        <pt x="220" y="742" on="1"/>
        <pt x="223" y="749" on="1"/>
        <pt x="404" y="850" on="1"/>
        <pt x="432" y="848" on="0"/>
        <pt x="459" y="811" on="0"/>
        <pt x="459" y="785" on="1"/>
        <pt x="459" y="775" on="0"/>
        <pt x="455" y="766" on="1"/>
        <pt x="254" y="689" on="1"/>
      </contour>
    </TTGlyph>
    <TTGlyph name="Acircumflex" xMin="-17" yMin="-6" xMax="709" yMax="850">
      <contour>
        <pt x="386" y="665" on="1"/>
        <pt x="558" y="211" on="1"/>
        <pt x="567" y="186" on="0"/>
        <pt x="581" y="152" on="0"/>
        <pt x="590" y="128" on="0"/>
        <pt x="597" y="113" on="0"/>
        <pt x="600" y="107" on="1"/>
        <pt x="612" y="82" on="0"/>
        <pt x="637" y="55" on="0"/>
        <pt x="662" y="42" on="0"/>
        <pt x="688" y="40" on="0"/>
        <pt x="701" y="40" on="1"/>
        <pt x="706" y="36" on="1"/>
        <pt x="709" y="-2" on="1"/>
        <pt x="707" y="-6" on="1"/>
        <pt x="700" y="-6" on="0"/>
        <pt x="672" y="-4" on="0"/>
        <pt x="642" y="-2" on="0"/>
        <pt x="615" y="0" on="0"/>
        <pt x="608" y="0" on="1"/>
        <pt x="535" y="0" on="1"/>
        <pt x="528" y="0" on="0"/>
        <pt x="496" y="-2" on="0"/>
        <pt x="461" y="-4" on="0"/>
        <pt x="429" y="-6" on="0"/>
        <pt x="422" y="-6" on="1"/>
        <pt x="420" y="-2" on="1"/>
        <pt x="423" y="36" on="1"/>
        <pt x="427" y="40" on="1"/>
        <pt x="453" y="40" on="0"/>
        <pt x="480" y="53" on="0"/>
        <pt x="480" y="82" on="1"/>
        <pt x="480" y="98" on="0"/>
        <pt x="469" y="157" on="0"/>
        <pt x="449" y="201" on="1"/>
        <pt x="428" y="249" on="1"/>
        <pt x="253" y="249" on="1"/>
        <pt x="233" y="201" on="1"/>
        <pt x="215" y="157" on="0"/>
        <pt x="197" y="95" on="0"/>
        <pt x="197" y="82" on="1"/>
        <pt x="197" y="58" on="0"/>
        <pt x="217" y="40" on="0"/>
        <pt x="243" y="40" on="1"/>
        <pt x="248" y="36" on="1"/>
        <pt x="251" y="-2" on="1"/>
        <pt x="249" y="-6" on="1"/>
        <pt x="242" y="-6" on="0"/>
        <pt x="212" y="-4" on="0"/>
        <pt x="179" y="-2" on="0"/>
        <pt x="149" y="0" on="0"/>
        <pt x="142" y="0" on="1"/>
        <pt x="83" y="0" on="1"/>
        <pt x="76" y="0" on="0"/>
        <pt x="48" y="-2" on="0"/>
        <pt x="18" y="-4" on="0"/>
        <pt x="-9" y="-6" on="0"/>
        <pt x="-16" y="-6" on="1"/>
        <pt x="-17" y="-2" on="1"/>
        <pt x="-15" y="36" on="1"/>
        <pt x="-10" y="40" on="1"/>
        <pt x="3" y="40" on="0"/>
        <pt x="29" y="44" on="0"/>
        <pt x="55" y="58" on="0"/>
        <pt x="80" y="83" on="0"/>
        <pt x="93" y="103" on="1"/>
        <pt x="96" y="109" on="0"/>
        <pt x="108" y="134" on="0"/>
        <pt x="134" y="198" on="0"/>
        <pt x="180" y="316" on="0"/>
        <pt x="218" y="414" on="1"/>
        <pt x="304" y="635" on="1"/>
        <pt x="375" y="665" on="1"/>
      </contour>
      <contour>
        <pt x="270" y="322" on="1"/>
        <pt x="401" y="322" on="1"/>
        <pt x="337" y="499" on="1"/>
      </contour>
      <contour>
        <pt x="343" y="850" on="1"/>
        <pt x="453" y="751" on="1"/>
        <pt x="456" y="744" on="1"/>
        <pt x="447" y="715" on="1"/>
        <pt x="440" y="712" on="1"/>
        <pt x="339" y="753" on="1"/>
        <pt x="238" y="712" on="1"/>
        <pt x="231" y="715" on="1"/>
        <pt x="222" y="744" on="1"/>
        <pt x="225" y="751" on="1"/>
        <pt x="335" y="850" on="1"/>
      </contour>
    </TTGlyph>
    <TTGlyph name="Adieresis" xMin="-17" yMin="-6" xMax="709" yMax="849">
      <contour>
        <pt x="386" y="665" on="1"/>
        <pt x="558" y="211" on="1"/>
        <pt x="567" y="186" on="0"/>
        <pt x="581" y="152" on="0"/>
        <pt x="590" y="128" on="0"/>
        <pt x="597" y="113" on="0"/>
        <pt x="600" y="107" on="1"/>
        <pt x="612" y="82" on="0"/>
        <pt x="637" y="55" on="0"/>
        <pt x="662" y="42" on="0"/>
        <pt x="688" y="40" on="0"/>
        <pt x="701" y="40" on="1"/>
        <pt x="706" y="36" on="1"/>
        <pt x="709" y="-2" on="1"/>
        <pt x="707" y="-6" on="1"/>
        <pt x="700" y="-6" on="0"/>
        <pt x="672" y="-4" on="0"/>
        <pt x="642" y="-2" on="0"/>
        <pt x="615" y="0" on="0"/>
        <pt x="608" y="0" on="1"/>
        <pt x="535" y="0" on="1"/>
        <pt x="528" y="0" on="0"/>
        <pt x="496" y="-2" on="0"/>
        <pt x="461" y="-4" on="0"/>
        <pt x="429" y="-6" on="0"/>
        <pt x="422" y="-6" on="1"/>
        <pt x="420" y="-2" on="1"/>
        <pt x="423" y="36" on="1"/>
        <pt x="427" y="40" on="1"/>
        <pt x="453" y="40" on="0"/>
        <pt x="480" y="53" on="0"/>
        <pt x="480" y="82" on="1"/>
        <pt x="480" y="98" on="0"/>
        <pt x="469" y="157" on="0"/>
        <pt x="449" y="201" on="1"/>
        <pt x="428" y="249" on="1"/>
        <pt x="253" y="249" on="1"/>
        <pt x="233" y="201" on="1"/>
        <pt x="215" y="157" on="0"/>
        <pt x="197" y="95" on="0"/>
        <pt x="197" y="82" on="1"/>
        <pt x="197" y="58" on="0"/>
        <pt x="217" y="40" on="0"/>
        <pt x="243" y="40" on="1"/>
        <pt x="248" y="36" on="1"/>
        <pt x="251" y="-2" on="1"/>
        <pt x="249" y="-6" on="1"/>
        <pt x="242" y="-6" on="0"/>
        <pt x="212" y="-4" on="0"/>
        <pt x="179" y="-2" on="0"/>
        <pt x="149" y="0" on="0"/>
        <pt x="142" y="0" on="1"/>
        <pt x="83" y="0" on="1"/>
        <pt x="76" y="0" on="0"/>
        <pt x="48" y="-2" on="0"/>
        <pt x="18" y="-4" on="0"/>
        <pt x="-9" y="-6" on="0"/>
        <pt x="-16" y="-6" on="1"/>
        <pt x="-17" y="-2" on="1"/>
        <pt x="-15" y="36" on="1"/>
        <pt x="-10" y="40" on="1"/>
        <pt x="3" y="40" on="0"/>
        <pt x="29" y="44" on="0"/>
        <pt x="55" y="58" on="0"/>
        <pt x="80" y="83" on="0"/>
        <pt x="93" y="103" on="1"/>
        <pt x="96" y="109" on="0"/>
        <pt x="108" y="134" on="0"/>
        <pt x="134" y="198" on="0"/>
        <pt x="180" y="316" on="0"/>
        <pt x="218" y="414" on="1"/>
        <pt x="304" y="635" on="1"/>
        <pt x="375" y="665" on="1"/>
      </contour>
      <contour>
        <pt x="270" y="322" on="1"/>
        <pt x="401" y="322" on="1"/>
        <pt x="337" y="499" on="1"/>
      </contour>
      <contour>
        <pt x="192" y="783" on="1"/>
        <pt x="192" y="795" on="0"/>
        <pt x="202" y="819" on="0"/>
        <pt x="220" y="838" on="0"/>
        <pt x="243" y="849" on="0"/>
        <pt x="256" y="849" on="1"/>
        <pt x="281" y="849" on="0"/>
        <pt x="322" y="808" on="0"/>
        <pt x="322" y="783" on="1"/>
        <pt x="322" y="770" on="0"/>
        <pt x="311" y="747" on="0"/>
        <pt x="292" y="729" on="0"/>
        <pt x="268" y="719" on="0"/>
        <pt x="256" y="719" on="1"/>
        <pt x="230" y="719" on="0"/>
        <pt x="192" y="757" on="0"/>
      </contour>
      <contour>
        <pt x="352" y="783" on="1"/>
        <pt x="352" y="795" on="0"/>
        <pt x="362" y="819" on="0"/>
        <pt x="380" y="838" on="0"/>
        <pt x="403" y="849" on="0"/>
        <pt x="416" y="849" on="1"/>
        <pt x="441" y="849" on="0"/>
        <pt x="482" y="808" on="0"/>
        <pt x="482" y="783" on="1"/>
        <pt x="482" y="770" on="0"/>
        <pt x="471" y="747" on="0"/>
        <pt x="452" y="729" on="0"/>
        <pt x="428" y="719" on="0"/>
        <pt x="416" y="719" on="1"/>
        <pt x="390" y="719" on="0"/>
        <pt x="352" y="757" on="0"/>
      </contour>
    </TTGlyph>
    <TTGlyph name="Agrave" xMin="-17" yMin="-6" xMax="709" yMax="850">
      <contour>
        <pt x="386" y="665" on="1"/>
        <pt x="558" y="211" on="1"/>
        <pt x="567" y="186" on="0"/>
        <pt x="581" y="152" on="0"/>
        <pt x="590" y="128" on="0"/>
        <pt x="597" y="113" on="0"/>
        <pt x="600" y="107" on="1"/>
        <pt x="612" y="82" on="0"/>
        <pt x="637" y="55" on="0"/>
        <pt x="662" y="42" on="0"/>
        <pt x="688" y="40" on="0"/>
        <pt x="701" y="40" on="1"/>
        <pt x="706" y="36" on="1"/>
        <pt x="709" y="-2" on="1"/>
        <pt x="707" y="-6" on="1"/>
        <pt x="700" y="-6" on="0"/>
        <pt x="672" y="-4" on="0"/>
        <pt x="642" y="-2" on="0"/>
        <pt x="615" y="0" on="0"/>
        <pt x="608" y="0" on="1"/>
        <pt x="535" y="0" on="1"/>
        <pt x="528" y="0" on="0"/>
        <pt x="496" y="-2" on="0"/>
        <pt x="461" y="-4" on="0"/>
        <pt x="429" y="-6" on="0"/>
        <pt x="422" y="-6" on="1"/>
        <pt x="420" y="-2" on="1"/>
        <pt x="423" y="36" on="1"/>
        <pt x="427" y="40" on="1"/>
        <pt x="453" y="40" on="0"/>
        <pt x="480" y="53" on="0"/>
        <pt x="480" y="82" on="1"/>
        <pt x="480" y="98" on="0"/>
        <pt x="469" y="157" on="0"/>
        <pt x="449" y="201" on="1"/>
        <pt x="428" y="249" on="1"/>
        <pt x="253" y="249" on="1"/>
        <pt x="233" y="201" on="1"/>
        <pt x="215" y="157" on="0"/>
        <pt x="197" y="95" on="0"/>
        <pt x="197" y="82" on="1"/>
        <pt x="197" y="58" on="0"/>
        <pt x="217" y="40" on="0"/>
        <pt x="243" y="40" on="1"/>
        <pt x="248" y="36" on="1"/>
        <pt x="251" y="-2" on="1"/>
        <pt x="249" y="-6" on="1"/>
        <pt x="242" y="-6" on="0"/>
        <pt x="212" y="-4" on="0"/>
        <pt x="179" y="-2" on="0"/>
        <pt x="149" y="0" on="0"/>
        <pt x="142" y="0" on="1"/>
        <pt x="83" y="0" on="1"/>
        <pt x="76" y="0" on="0"/>
        <pt x="48" y="-2" on="0"/>
        <pt x="18" y="-4" on="0"/>
        <pt x="-9" y="-6" on="0"/>
        <pt x="-16" y="-6" on="1"/>
        <pt x="-17" y="-2" on="1"/>
        <pt x="-15" y="36" on="1"/>
        <pt x="-10" y="40" on="1"/>
        <pt x="3" y="40" on="0"/>
        <pt x="29" y="44" on="0"/>
        <pt x="55" y="58" on="0"/>
        <pt x="80" y="83" on="0"/>
        <pt x="93" y="103" on="1"/>
        <pt x="96" y="109" on="0"/>
        <pt x="108" y="134" on="0"/>
        <pt x="134" y="198" on="0"/>
        <pt x="180" y="316" on="0"/>
        <pt x="218" y="414" on="1"/>
        <pt x="304" y="635" on="1"/>
        <pt x="375" y="665" on="1"/>
      </contour>
      <contour>
        <pt x="270" y="322" on="1"/>
        <pt x="401" y="322" on="1"/>
        <pt x="337" y="499" on="1"/>
      </contour>
      <contour>
        <pt x="418" y="689" on="1"/>
        <pt x="217" y="766" on="1"/>
        <pt x="213" y="775" on="0"/>
        <pt x="213" y="785" on="1"/>
        <pt x="213" y="811" on="0"/>
        <pt x="240" y="848" on="0"/>
        <pt x="268" y="850" on="1"/>
        <pt x="449" y="749" on="1"/>
        <pt x="452" y="742" on="1"/>
        <pt x="426" y="692" on="1"/>
      </contour>
    </TTGlyph>
    <TTGlyph name="Aring" xMin="-17" yMin="-6" xMax="709" yMax="795">
      <contour>
        <pt x="339" y="795" on="1"/>
        <pt x="361" y="795" on="0"/>
        <pt x="395" y="780" on="0"/>
        <pt x="419" y="756" on="0"/>
        <pt x="431" y="726" on="0"/>
        <pt x="431" y="710" on="1"/>
        <pt x="431" y="690" on="0"/>
        <pt x="412" y="655" on="0"/>
        <pt x="394" y="644" on="1"/>
        <pt x="558" y="211" on="1"/>
        <pt x="567" y="186" on="0"/>
        <pt x="581" y="152" on="0"/>
        <pt x="590" y="128" on="0"/>
        <pt x="597" y="113" on="0"/>
        <pt x="600" y="107" on="1"/>
        <pt x="612" y="82" on="0"/>
        <pt x="637" y="55" on="0"/>
        <pt x="662" y="42" on="0"/>
        <pt x="688" y="40" on="0"/>
        <pt x="701" y="40" on="1"/>
        <pt x="706" y="36" on="1"/>
        <pt x="709" y="-2" on="1"/>
        <pt x="707" y="-6" on="1"/>
        <pt x="700" y="-6" on="0"/>
        <pt x="672" y="-4" on="0"/>
        <pt x="642" y="-2" on="0"/>
        <pt x="615" y="0" on="0"/>
        <pt x="608" y="0" on="1"/>
        <pt x="535" y="0" on="1"/>
        <pt x="528" y="0" on="0"/>
        <pt x="496" y="-2" on="0"/>
        <pt x="461" y="-4" on="0"/>
        <pt x="429" y="-6" on="0"/>
        <pt x="422" y="-6" on="1"/>
        <pt x="420" y="-2" on="1"/>
        <pt x="423" y="36" on="1"/>
        <pt x="427" y="40" on="1"/>
        <pt x="453" y="40" on="0"/>
        <pt x="480" y="53" on="0"/>
        <pt x="480" y="82" on="1"/>
        <pt x="480" y="98" on="0"/>
        <pt x="469" y="157" on="0"/>
        <pt x="449" y="201" on="1"/>
        <pt x="428" y="249" on="1"/>
        <pt x="253" y="249" on="1"/>
        <pt x="233" y="201" on="1"/>
        <pt x="215" y="157" on="0"/>
        <pt x="197" y="95" on="0"/>
        <pt x="197" y="82" on="1"/>
        <pt x="197" y="58" on="0"/>
        <pt x="217" y="40" on="0"/>
        <pt x="243" y="40" on="1"/>
        <pt x="248" y="36" on="1"/>
        <pt x="251" y="-2" on="1"/>
        <pt x="249" y="-6" on="1"/>
        <pt x="242" y="-6" on="0"/>
        <pt x="212" y="-4" on="0"/>
        <pt x="179" y="-2" on="0"/>
        <pt x="149" y="0" on="0"/>
        <pt x="142" y="0" on="1"/>
        <pt x="83" y="0" on="1"/>
        <pt x="76" y="0" on="0"/>
        <pt x="48" y="-2" on="0"/>
        <pt x="18" y="-4" on="0"/>
        <pt x="-9" y="-6" on="0"/>
        <pt x="-16" y="-6" on="1"/>
        <pt x="-17" y="-2" on="1"/>
        <pt x="-15" y="36" on="1"/>
        <pt x="-10" y="40" on="1"/>
        <pt x="3" y="40" on="0"/>
        <pt x="29" y="44" on="0"/>
        <pt x="55" y="58" on="0"/>
        <pt x="80" y="83" on="0"/>
        <pt x="93" y="103" on="1"/>
        <pt x="96" y="109" on="0"/>
        <pt x="108" y="134" on="0"/>
        <pt x="134" y="198" on="0"/>
        <pt x="180" y="316" on="0"/>
        <pt x="218" y="414" on="1"/>
        <pt x="304" y="635" on="1"/>
        <pt x="275" y="645" on="0"/>
        <pt x="247" y="689" on="0"/>
        <pt x="247" y="712" on="1"/>
        <pt x="247" y="744" on="0"/>
        <pt x="295" y="795" on="0"/>
      </contour>
      <contour>
        <pt x="270" y="322" on="1"/>
        <pt x="401" y="322" on="1"/>
        <pt x="337" y="499" on="1"/>
      </contour>
      <contour>
        <pt x="340" y="674" on="1"/>
        <pt x="355" y="674" on="0"/>
        <pt x="373" y="697" on="0"/>
        <pt x="373" y="710" on="1"/>
        <pt x="373" y="724" on="0"/>
        <pt x="354" y="751" on="0"/>
        <pt x="338" y="751" on="1"/>
        <pt x="321" y="751" on="0"/>
        <pt x="304" y="727" on="0"/>
        <pt x="304" y="713" on="1"/>
        <pt x="304" y="699" on="0"/>
        <pt x="324" y="674" on="0"/>
      </contour>
    </TTGlyph>
    <TTGlyph name="Atilde" xMin="-17" yMin="-6" xMax="709" yMax="849">
      <contour>
        <pt x="386" y="665" on="1"/>
        <pt x="558" y="211" on="1"/>
        <pt x="567" y="186" on="0"/>
        <pt x="581" y="152" on="0"/>
        <pt x="590" y="128" on="0"/>
        <pt x="597" y="113" on="0"/>
        <pt x="600" y="107" on="1"/>
        <pt x="612" y="82" on="0"/>
        <pt x="637" y="55" on="0"/>
        <pt x="662" y="42" on="0"/>
        <pt x="688" y="40" on="0"/>
        <pt x="701" y="40" on="1"/>
        <pt x="706" y="36" on="1"/>
        <pt x="709" y="-2" on="1"/>
        <pt x="707" y="-6" on="1"/>
        <pt x="700" y="-6" on="0"/>
        <pt x="672" y="-4" on="0"/>
        <pt x="642" y="-2" on="0"/>
        <pt x="615" y="0" on="0"/>
        <pt x="608" y="0" on="1"/>
        <pt x="535" y="0" on="1"/>
        <pt x="528" y="0" on="0"/>
        <pt x="496" y="-2" on="0"/>
        <pt x="461" y="-4" on="0"/>
        <pt x="429" y="-6" on="0"/>
        <pt x="422" y="-6" on="1"/>
        <pt x="420" y="-2" on="1"/>
        <pt x="423" y="36" on="1"/>
        <pt x="427" y="40" on="1"/>
        <pt x="453" y="40" on="0"/>
        <pt x="480" y="53" on="0"/>
        <pt x="480" y="82" on="1"/>
        <pt x="480" y="98" on="0"/>
        <pt x="469" y="157" on="0"/>
        <pt x="449" y="201" on="1"/>
        <pt x="428" y="249" on="1"/>
        <pt x="253" y="249" on="1"/>
        <pt x="233" y="201" on="1"/>
        <pt x="215" y="157" on="0"/>
        <pt x="197" y="95" on="0"/>
        <pt x="197" y="82" on="1"/>
        <pt x="197" y="58" on="0"/>
        <pt x="217" y="40" on="0"/>
        <pt x="243" y="40" on="1"/>
        <pt x="248" y="36" on="1"/>
        <pt x="251" y="-2" on="1"/>
        <pt x="249" y="-6" on="1"/>
        <pt x="242" y="-6" on="0"/>
        <pt x="212" y="-4" on="0"/>
        <pt x="179" y="-2" on="0"/>
        <pt x="149" y="0" on="0"/>
        <pt x="142" y="0" on="1"/>
        <pt x="83" y="0" on="1"/>
        <pt x="76" y="0" on="0"/>
        <pt x="48" y="-2" on="0"/>
        <pt x="18" y="-4" on="0"/>
        <pt x="-9" y="-6" on="0"/>
        <pt x="-16" y="-6" on="1"/>
        <pt x="-17" y="-2" on="1"/>
        <pt x="-15" y="36" on="1"/>
        <pt x="-10" y="40" on="1"/>
        <pt x="3" y="40" on="0"/>
        <pt x="29" y="44" on="0"/>
        <pt x="55" y="58" on="0"/>
        <pt x="80" y="83" on="0"/>
        <pt x="93" y="103" on="1"/>
        <pt x="96" y="109" on="0"/>
        <pt x="108" y="134" on="0"/>
        <pt x="134" y="198" on="0"/>
        <pt x="180" y="316" on="0"/>
        <pt x="218" y="414" on="1"/>
        <pt x="304" y="635" on="1"/>
        <pt x="375" y="665" on="1"/>
      </contour>
      <contour>
        <pt x="270" y="322" on="1"/>
        <pt x="401" y="322" on="1"/>
        <pt x="337" y="499" on="1"/>
      </contour>
      <contour>
        <pt x="495" y="801" on="1"/>
        <pt x="492" y="787" on="0"/>
        <pt x="479" y="760" on="0"/>
        <pt x="458" y="738" on="0"/>
        <pt x="428" y="724" on="0"/>
        <pt x="407" y="724" on="1"/>
        <pt x="367" y="724" on="0"/>
        <pt x="284" y="738" on="0"/>
        <pt x="252" y="738" on="1"/>
        <pt x="227" y="738" on="0"/>
        <pt x="207" y="725" on="0"/>
        <pt x="197" y="713" on="1"/>
        <pt x="184" y="761" on="1"/>
        <pt x="188" y="774" on="0"/>
        <pt x="202" y="802" on="0"/>
        <pt x="223" y="823" on="0"/>
        <pt x="254" y="837" on="0"/>
        <pt x="275" y="837" on="1"/>
        <pt x="300" y="837" on="0"/>
        <pt x="337" y="833" on="0"/>
        <pt x="369" y="827" on="0"/>
        <pt x="399" y="823" on="0"/>
        <pt x="418" y="823" on="1"/>
        <pt x="435" y="823" on="0"/>
        <pt x="469" y="831" on="0"/>
        <pt x="483" y="849" on="1"/>
      </contour>
    </TTGlyph>
    <TTGlyph name="B" xMin="40" yMin="-6" xMax="572" yMax="660">
      <contour>
        <pt x="154" y="0" on="1"/>
        <pt x="147" y="0" on="0"/>
        <pt x="115" y="-2" on="0"/>
        <pt x="81" y="-4" on="0"/>
        <pt x="49" y="-6" on="0"/>
        <pt x="42" y="-6" on="1"/>
        <pt x="40" y="-2" on="1"/>
        <pt x="43" y="36" on="1"/>
        <pt x="48" y="40" on="1"/>
        <pt x="60" y="40" on="0"/>
        <pt x="92" y="43" on="0"/>
        <pt x="101" y="49" on="1"/>
        <pt x="109" y="55" on="0"/>
        <pt x="123" y="81" on="0"/>
        <pt x="126" y="107" on="1"/>
        <pt x="127" y="122" on="0"/>
        <pt x="128" y="182" on="0"/>
        <pt x="128" y="241" on="1"/>
        <pt x="128" y="451" on="1"/>
        <pt x="128" y="471" on="0"/>
        <pt x="128" y="522" on="0"/>
        <pt x="126" y="547" on="1"/>
        <pt x="124" y="574" on="0"/>
        <pt x="109" y="598" on="0"/>
        <pt x="101" y="604" on="1"/>
        <pt x="92" y="612" on="0"/>
        <pt x="73" y="614" on="0"/>
        <pt x="48" y="614" on="1"/>
        <pt x="43" y="618" on="1"/>
        <pt x="40" y="656" on="1"/>
        <pt x="42" y="660" on="1"/>
        <pt x="49" y="660" on="0"/>
        <pt x="72" y="658" on="0"/>
        <pt x="97" y="656" on="0"/>
        <pt x="123" y="654" on="0"/>
        <pt x="134" y="654" on="1"/>
        <pt x="210" y="654" on="1"/>
        <pt x="221" y="654" on="0"/>
        <pt x="249" y="655" on="0"/>
        <pt x="278" y="655" on="0"/>
        <pt x="302" y="656" on="0"/>
        <pt x="309" y="656" on="1"/>
        <pt x="363" y="656" on="0"/>
        <pt x="440" y="634" on="0"/>
        <pt x="488" y="594" on="0"/>
        <pt x="511" y="538" on="0"/>
        <pt x="511" y="504" on="1"/>
        <pt x="511" y="474" on="0"/>
        <pt x="492" y="428" on="0"/>
        <pt x="461" y="393" on="0"/>
        <pt x="421" y="368" on="0"/>
        <pt x="400" y="359" on="1"/>
        <pt x="482" y="346" on="0"/>
        <pt x="572" y="262" on="0"/>
        <pt x="572" y="188" on="1"/>
        <pt x="572" y="138" on="0"/>
        <pt x="536" y="67" on="0"/>
        <pt x="471" y="22" on="0"/>
        <pt x="381" y="0" on="0"/>
        <pt x="327" y="0" on="1"/>
      </contour>
      <contour>
        <pt x="239" y="302" on="1"/>
        <pt x="239" y="281" on="0"/>
        <pt x="239" y="223" on="0"/>
        <pt x="240" y="169" on="0"/>
        <pt x="241" y="125" on="0"/>
        <pt x="242" y="117" on="1"/>
        <pt x="244" y="90" on="0"/>
        <pt x="262" y="78" on="0"/>
        <pt x="277" y="78" on="1"/>
        <pt x="298" y="78" on="1"/>
        <pt x="322" y="78" on="0"/>
        <pt x="379" y="87" on="0"/>
        <pt x="429" y="111" on="0"/>
        <pt x="463" y="153" on="0"/>
        <pt x="463" y="186" on="1"/>
        <pt x="463" y="214" on="0"/>
        <pt x="437" y="257" on="0"/>
        <pt x="391" y="287" on="0"/>
        <pt x="330" y="302" on="0"/>
        <pt x="294" y="302" on="1"/>
      </contour>
      <contour>
        <pt x="265" y="369" on="1"/>
        <pt x="297" y="369" on="0"/>
        <pt x="336" y="377" on="0"/>
        <pt x="359" y="394" on="1"/>
        <pt x="381" y="408" on="0"/>
        <pt x="409" y="461" on="0"/>
        <pt x="409" y="497" on="1"/>
        <pt x="409" y="535" on="0"/>
        <pt x="349" y="576" on="0"/>
        <pt x="294" y="576" on="1"/>
        <pt x="244" y="576" on="1"/>
        <pt x="241" y="532" on="0"/>
        <pt x="239" y="489" on="0"/>
        <pt x="239" y="472" on="1"/>
        <pt x="239" y="410" on="1"/>
        <pt x="239" y="387" on="0"/>
        <pt x="243" y="369" on="0"/>
        <pt x="256" y="369" on="1"/>
      </contour>
    </TTGlyph>
    <TTGlyph name="C" xMin="46" yMin="-11" xMax="614" yMax="665">
      <contour>
        <pt x="543" y="507" on="1"/>
        <pt x="540" y="529" on="0"/>
        <pt x="508" y="560" on="0"/>
        <pt x="461" y="578" on="0"/>
        <pt x="404" y="586" on="0"/>
        <pt x="376" y="586" on="1"/>
        <pt x="287" y="586" on="0"/>
        <pt x="238" y="541" on="1"/>
        <pt x="200" y="507" on="0"/>
        <pt x="166" y="394" on="0"/>
        <pt x="166" y="328" on="1"/>
        <pt x="166" y="265" on="0"/>
        <pt x="201" y="169" on="0"/>
        <pt x="262" y="104" on="0"/>
        <pt x="346" y="71" on="0"/>
        <pt x="396" y="71" on="1"/>
        <pt x="439" y="71" on="0"/>
        <pt x="552" y="90" on="0"/>
        <pt x="602" y="117" on="1"/>
        <pt x="614" y="95" on="1"/>
        <pt x="590" y="51" on="1"/>
        <pt x="538" y="19" on="0"/>
        <pt x="433" y="-11" on="0"/>
        <pt x="378" y="-11" on="1"/>
        <pt x="303" y="-11" on="0"/>
        <pt x="181" y="37" on="0"/>
        <pt x="94" y="126" on="0"/>
        <pt x="46" y="249" on="0"/>
        <pt x="46" y="324" on="1"/>
        <pt x="46" y="394" on="0"/>
        <pt x="89" y="519" on="0"/>
        <pt x="174" y="611" on="0"/>
        <pt x="299" y="665" on="0"/>
        <pt x="382" y="665" on="1"/>
        <pt x="402" y="665" on="0"/>
        <pt x="456" y="662" on="0"/>
        <pt x="516" y="653" on="0"/>
        <pt x="577" y="636" on="0"/>
        <pt x="605" y="623" on="1"/>
        <pt x="608" y="614" on="1"/>
        <pt x="595" y="503" on="1"/>
        <pt x="546" y="503" on="1"/>
      </contour>
    </TTGlyph>
    <TTGlyph name="Ccaron" xMin="46" yMin="-11" xMax="614" yMax="850">
      <contour>
        <pt x="543" y="507" on="1"/>
        <pt x="540" y="529" on="0"/>
        <pt x="508" y="560" on="0"/>
        <pt x="461" y="578" on="0"/>
        <pt x="404" y="586" on="0"/>
        <pt x="376" y="586" on="1"/>
        <pt x="287" y="586" on="0"/>
        <pt x="238" y="541" on="1"/>
        <pt x="200" y="507" on="0"/>
        <pt x="166" y="394" on="0"/>
        <pt x="166" y="328" on="1"/>
        <pt x="166" y="265" on="0"/>
        <pt x="201" y="169" on="0"/>
        <pt x="262" y="104" on="0"/>
        <pt x="346" y="71" on="0"/>
        <pt x="396" y="71" on="1"/>
        <pt x="439" y="71" on="0"/>
        <pt x="552" y="90" on="0"/>
        <pt x="602" y="117" on="1"/>
        <pt x="614" y="95" on="1"/>
        <pt x="590" y="51" on="1"/>
        <pt x="538" y="19" on="0"/>
        <pt x="433" y="-11" on="0"/>
        <pt x="378" y="-11" on="1"/>
        <pt x="303" y="-11" on="0"/>
        <pt x="181" y="37" on="0"/>
        <pt x="94" y="126" on="0"/>
        <pt x="46" y="249" on="0"/>
        <pt x="46" y="324" on="1"/>
        <pt x="46" y="394" on="0"/>
        <pt x="89" y="519" on="0"/>
        <pt x="174" y="611" on="0"/>
        <pt x="299" y="665" on="0"/>
        <pt x="382" y="665" on="1"/>
        <pt x="402" y="665" on="0"/>
        <pt x="456" y="662" on="0"/>
        <pt x="516" y="653" on="0"/>
        <pt x="577" y="636" on="0"/>
        <pt x="605" y="623" on="1"/>
        <pt x="608" y="614" on="1"/>
        <pt x="595" y="503" on="1"/>
        <pt x="546" y="503" on="1"/>
      </contour>
      <contour>
        <pt x="372" y="712" on="1"/>
        <pt x="242" y="811" on="1"/>
        <pt x="239" y="818" on="1"/>
        <pt x="248" y="847" on="1"/>
        <pt x="255" y="850" on="1"/>
        <pt x="377" y="796" on="1"/>
        <pt x="497" y="850" on="1"/>
        <pt x="504" y="847" on="1"/>
        <pt x="513" y="818" on="1"/>
        <pt x="510" y="811" on="1"/>
        <pt x="380" y="712" on="1"/>
      </contour>
    </TTGlyph>
    <TTGlyph name="Ccedilla" xMin="47" yMin="-213" xMax="615" yMax="665">
      <contour>
        <pt x="235" y="-178" on="1"/>
        <pt x="248" y="-140" on="1"/>
        <pt x="255" y="-140" on="1"/>
        <pt x="267" y="-143" on="0"/>
        <pt x="305" y="-155" on="0"/>
        <pt x="324" y="-155" on="1"/>
        <pt x="346" y="-155" on="0"/>
        <pt x="378" y="-144" on="0"/>
        <pt x="378" y="-127" on="1"/>
        <pt x="378" y="-109" on="0"/>
        <pt x="347" y="-96" on="0"/>
        <pt x="326" y="-96" on="1"/>
        <pt x="314" y="-96" on="0"/>
        <pt x="289" y="-100" on="0"/>
        <pt x="278" y="-103" on="1"/>
        <pt x="269" y="-77" on="1"/>
        <pt x="316" y="-6" on="1"/>
        <pt x="254" y="3" on="0"/>
        <pt x="155" y="59" on="0"/>
        <pt x="85" y="144" on="0"/>
        <pt x="47" y="257" on="0"/>
        <pt x="47" y="324" on="1"/>
        <pt x="47" y="394" on="0"/>
        <pt x="90" y="519" on="0"/>
        <pt x="175" y="611" on="0"/>
        <pt x="300" y="665" on="0"/>
        <pt x="383" y="665" on="1"/>
        <pt x="403" y="665" on="0"/>
        <pt x="457" y="662" on="0"/>
        <pt x="517" y="653" on="0"/>
        <pt x="578" y="636" on="0"/>
        <pt x="606" y="623" on="1"/>
        <pt x="609" y="614" on="1"/>
        <pt x="596" y="503" on="1"/>
        <pt x="547" y="503" on="1"/>
        <pt x="544" y="507" on="1"/>
        <pt x="541" y="529" on="0"/>
        <pt x="509" y="560" on="0"/>
        <pt x="462" y="578" on="0"/>
        <pt x="405" y="586" on="0"/>
        <pt x="377" y="586" on="1"/>
        <pt x="288" y="586" on="0"/>
        <pt x="239" y="541" on="1"/>
        <pt x="201" y="507" on="0"/>
        <pt x="167" y="394" on="0"/>
        <pt x="167" y="328" on="1"/>
        <pt x="167" y="265" on="0"/>
        <pt x="202" y="169" on="0"/>
        <pt x="263" y="104" on="0"/>
        <pt x="347" y="71" on="0"/>
        <pt x="397" y="71" on="1"/>
        <pt x="440" y="71" on="0"/>
        <pt x="553" y="90" on="0"/>
        <pt x="603" y="117" on="1"/>
        <pt x="615" y="95" on="1"/>
        <pt x="591" y="51" on="1"/>
        <pt x="539" y="19" on="0"/>
        <pt x="434" y="-11" on="0"/>
        <pt x="379" y="-11" on="1"/>
        <pt x="376" y="-11" on="0"/>
        <pt x="370" y="-10" on="0"/>
        <pt x="367" y="-10" on="1"/>
        <pt x="349" y="-39" on="1"/>
        <pt x="352" y="-38" on="0"/>
        <pt x="361" y="-37" on="0"/>
        <pt x="363" y="-37" on="1"/>
        <pt x="405" y="-37" on="0"/>
        <pt x="452" y="-84" on="0"/>
        <pt x="452" y="-119" on="1"/>
        <pt x="452" y="-137" on="0"/>
        <pt x="433" y="-171" on="0"/>
        <pt x="400" y="-197" on="0"/>
        <pt x="354" y="-213" on="0"/>
        <pt x="327" y="-213" on="1"/>
        <pt x="303" y="-213" on="0"/>
        <pt x="256" y="-197" on="0"/>
        <pt x="236" y="-184" on="1"/>
      </contour>
    </TTGlyph>
    <TTGlyph name="D" xMin="40" yMin="-6" xMax="706" yMax="660">
      <contour>
        <pt x="126" y="547" on="1"/>
        <pt x="124" y="572" on="0"/>
        <pt x="110" y="598" on="0"/>
        <pt x="101" y="604" on="1"/>
        <pt x="92" y="612" on="0"/>
        <pt x="73" y="614" on="0"/>
        <pt x="48" y="614" on="1"/>
        <pt x="43" y="618" on="1"/>
        <pt x="40" y="656" on="1"/>
        <pt x="42" y="660" on="1"/>
        <pt x="49" y="660" on="0"/>
        <pt x="75" y="658" on="0"/>
        <pt x="105" y="656" on="0"/>
        <pt x="134" y="654" on="0"/>
        <pt x="145" y="654" on="1"/>
        <pt x="242" y="654" on="1"/>
        <pt x="254" y="654" on="0"/>
        <pt x="291" y="655" on="0"/>
        <pt x="329" y="657" on="0"/>
        <pt x="364" y="658" on="0"/>
        <pt x="376" y="658" on="1"/>
        <pt x="454" y="658" on="0"/>
        <pt x="577" y="605" on="0"/>
        <pt x="661" y="515" on="0"/>
        <pt x="706" y="395" on="0"/>
        <pt x="706" y="328" on="1"/>
        <pt x="706" y="262" on="0"/>
        <pt x="663" y="143" on="0"/>
        <pt x="579" y="52" on="0"/>
        <pt x="453" y="-2" on="0"/>
        <pt x="370" y="-2" on="1"/>
        <pt x="362" y="-2" on="0"/>
        <pt x="329" y="-1" on="0"/>
        <pt x="292" y="-1" on="0"/>
        <pt x="257" y="0" on="0"/>
        <pt x="247" y="0" on="1"/>
        <pt x="154" y="0" on="1"/>
        <pt x="147" y="0" on="0"/>
        <pt x="115" y="-2" on="0"/>
        <pt x="81" y="-4" on="0"/>
        <pt x="49" y="-6" on="0"/>
        <pt x="42" y="-6" on="1"/>
        <pt x="40" y="-2" on="1"/>
        <pt x="43" y="36" on="1"/>
        <pt x="48" y="40" on="1"/>
        <pt x="60" y="40" on="0"/>
        <pt x="92" y="43" on="0"/>
        <pt x="101" y="49" on="1"/>
        <pt x="109" y="55" on="0"/>
        <pt x="123" y="81" on="0"/>
        <pt x="126" y="107" on="1"/>
        <pt x="126" y="114" on="0"/>
        <pt x="127" y="133" on="0"/>
        <pt x="128" y="161" on="0"/>
        <pt x="128" y="201" on="0"/>
        <pt x="128" y="231" on="1"/>
        <pt x="128" y="394" on="1"/>
        <pt x="128" y="404" on="0"/>
        <pt x="128" y="445" on="0"/>
        <pt x="128" y="491" on="0"/>
        <pt x="127" y="535" on="0"/>
      </contour>
      <contour>
        <pt x="337" y="78" on="1"/>
        <pt x="397" y="78" on="0"/>
        <pt x="489" y="117" on="0"/>
        <pt x="552" y="185" on="0"/>
        <pt x="585" y="276" on="0"/>
        <pt x="585" y="328" on="1"/>
        <pt x="585" y="382" on="0"/>
        <pt x="551" y="473" on="0"/>
        <pt x="486" y="539" on="0"/>
        <pt x="392" y="576" on="0"/>
        <pt x="332" y="576" on="1"/>
        <pt x="244" y="576" on="1"/>
        <pt x="242" y="547" on="0"/>
        <pt x="241" y="508" on="0"/>
        <pt x="239" y="468" on="0"/>
        <pt x="239" y="421" on="0"/>
        <pt x="239" y="385" on="1"/>
        <pt x="239" y="261" on="1"/>
        <pt x="239" y="201" on="0"/>
        <pt x="240" y="134" on="0"/>
        <pt x="242" y="117" on="1"/>
        <pt x="245" y="91" on="0"/>
        <pt x="265" y="78" on="0"/>
        <pt x="291" y="78" on="1"/>
      </contour>
    </TTGlyph>
    <TTGlyph name="Dcaron" xMin="40" yMin="-6" xMax="706" yMax="850">
      <contour>
        <pt x="126" y="547" on="1"/>
        <pt x="124" y="572" on="0"/>
        <pt x="110" y="598" on="0"/>
        <pt x="101" y="604" on="1"/>
        <pt x="92" y="612" on="0"/>
        <pt x="73" y="614" on="0"/>
        <pt x="48" y="614" on="1"/>
        <pt x="43" y="618" on="1"/>
        <pt x="40" y="656" on="1"/>
        <pt x="42" y="660" on="1"/>
        <pt x="49" y="660" on="0"/>
        <pt x="75" y="658" on="0"/>
        <pt x="105" y="656" on="0"/>
        <pt x="134" y="654" on="0"/>
        <pt x="145" y="654" on="1"/>
        <pt x="242" y="654" on="1"/>
        <pt x="254" y="654" on="0"/>
        <pt x="291" y="655" on="0"/>
        <pt x="329" y="657" on="0"/>
        <pt x="364" y="658" on="0"/>
        <pt x="376" y="658" on="1"/>
        <pt x="454" y="658" on="0"/>
        <pt x="577" y="605" on="0"/>
        <pt x="661" y="515" on="0"/>
        <pt x="706" y="395" on="0"/>
        <pt x="706" y="328" on="1"/>
        <pt x="706" y="262" on="0"/>
        <pt x="663" y="143" on="0"/>
        <pt x="579" y="52" on="0"/>
        <pt x="453" y="-2" on="0"/>
        <pt x="370" y="-2" on="1"/>
        <pt x="362" y="-2" on="0"/>
        <pt x="329" y="-1" on="0"/>
        <pt x="292" y="-1" on="0"/>
        <pt x="257" y="0" on="0"/>
        <pt x="247" y="0" on="1"/>
        <pt x="154" y="0" on="1"/>
        <pt x="147" y="0" on="0"/>
        <pt x="115" y="-2" on="0"/>
        <pt x="81" y="-4" on="0"/>
        <pt x="49" y="-6" on="0"/>
        <pt x="42" y="-6" on="1"/>
        <pt x="40" y="-2" on="1"/>
        <pt x="43" y="36" on="1"/>
        <pt x="48" y="40" on="1"/>
        <pt x="60" y="40" on="0"/>
        <pt x="92" y="43" on="0"/>
        <pt x="101" y="49" on="1"/>
        <pt x="109" y="55" on="0"/>
        <pt x="123" y="81" on="0"/>
        <pt x="126" y="107" on="1"/>
        <pt x="126" y="114" on="0"/>
        <pt x="127" y="133" on="0"/>
        <pt x="128" y="161" on="0"/>
        <pt x="128" y="201" on="0"/>
        <pt x="128" y="231" on="1"/>
        <pt x="128" y="394" on="1"/>
        <pt x="128" y="404" on="0"/>
        <pt x="128" y="445" on="0"/>
        <pt x="128" y="491" on="0"/>
        <pt x="127" y="535" on="0"/>
      </contour>
      <contour>
        <pt x="337" y="78" on="1"/>
        <pt x="397" y="78" on="0"/>
        <pt x="489" y="117" on="0"/>
        <pt x="552" y="185" on="0"/>
        <pt x="585" y="276" on="0"/>
        <pt x="585" y="328" on="1"/>
        <pt x="585" y="382" on="0"/>
        <pt x="551" y="473" on="0"/>
        <pt x="486" y="539" on="0"/>
        <pt x="392" y="576" on="0"/>
        <pt x="332" y="576" on="1"/>
        <pt x="244" y="576" on="1"/>
        <pt x="242" y="547" on="0"/>
        <pt x="241" y="508" on="0"/>
        <pt x="239" y="468" on="0"/>
        <pt x="239" y="421" on="0"/>
        <pt x="239" y="385" on="1"/>
        <pt x="239" y="261" on="1"/>
        <pt x="239" y="201" on="0"/>
        <pt x="240" y="134" on="0"/>
        <pt x="242" y="117" on="1"/>
        <pt x="245" y="91" on="0"/>
        <pt x="265" y="78" on="0"/>
        <pt x="291" y="78" on="1"/>
      </contour>
      <contour>
        <pt x="352" y="712" on="1"/>
        <pt x="222" y="811" on="1"/>
        <pt x="219" y="818" on="1"/>
        <pt x="228" y="847" on="1"/>
        <pt x="235" y="850" on="1"/>
        <pt x="357" y="796" on="1"/>
        <pt x="477" y="850" on="1"/>
        <pt x="484" y="847" on="1"/>
        <pt x="493" y="818" on="1"/>
        <pt x="490" y="811" on="1"/>
        <pt x="360" y="712" on="1"/>
      </contour>
    </TTGlyph>
    <TTGlyph name="Dcroat" xMin="31" yMin="-6" xMax="718" yMax="660">
      <contour>
        <pt x="130" y="370" on="1"/>
        <pt x="130" y="394" on="1"/>
        <pt x="130" y="404" on="0"/>
        <pt x="130" y="445" on="0"/>
        <pt x="130" y="491" on="0"/>
        <pt x="129" y="535" on="0"/>
        <pt x="128" y="547" on="1"/>
        <pt x="126" y="572" on="0"/>
        <pt x="112" y="598" on="0"/>
        <pt x="103" y="604" on="1"/>
        <pt x="94" y="612" on="0"/>
        <pt x="75" y="614" on="0"/>
        <pt x="50" y="614" on="1"/>
        <pt x="45" y="618" on="1"/>
        <pt x="42" y="656" on="1"/>
        <pt x="44" y="660" on="1"/>
        <pt x="51" y="660" on="0"/>
        <pt x="77" y="658" on="0"/>
        <pt x="107" y="656" on="0"/>
        <pt x="136" y="654" on="0"/>
        <pt x="147" y="654" on="1"/>
        <pt x="244" y="654" on="1"/>
        <pt x="257" y="654" on="0"/>
        <pt x="296" y="655" on="0"/>
        <pt x="337" y="657" on="0"/>
        <pt x="376" y="658" on="0"/>
        <pt x="388" y="658" on="1"/>
        <pt x="466" y="658" on="0"/>
        <pt x="589" y="605" on="0"/>
        <pt x="673" y="515" on="0"/>
        <pt x="718" y="395" on="0"/>
        <pt x="718" y="328" on="1"/>
        <pt x="718" y="262" on="0"/>
        <pt x="675" y="143" on="0"/>
        <pt x="591" y="52" on="0"/>
        <pt x="465" y="-2" on="0"/>
        <pt x="382" y="-2" on="1"/>
        <pt x="373" y="-2" on="0"/>
        <pt x="337" y="-1" on="0"/>
        <pt x="297" y="-1" on="0"/>
        <pt x="260" y="0" on="0"/>
        <pt x="249" y="0" on="1"/>
        <pt x="156" y="0" on="1"/>
        <pt x="149" y="0" on="0"/>
        <pt x="117" y="-2" on="0"/>
        <pt x="83" y="-4" on="0"/>
        <pt x="51" y="-6" on="0"/>
        <pt x="44" y="-6" on="1"/>
        <pt x="42" y="-2" on="1"/>
        <pt x="45" y="36" on="1"/>
        <pt x="50" y="40" on="1"/>
        <pt x="62" y="40" on="0"/>
        <pt x="94" y="43" on="0"/>
        <pt x="103" y="49" on="1"/>
        <pt x="111" y="55" on="0"/>
        <pt x="125" y="81" on="0"/>
        <pt x="128" y="107" on="1"/>
        <pt x="128" y="114" on="0"/>
        <pt x="129" y="133" on="0"/>
        <pt x="130" y="161" on="0"/>
        <pt x="130" y="201" on="0"/>
        <pt x="130" y="231" on="1"/>
        <pt x="130" y="288" on="1"/>
        <pt x="31" y="288" on="1"/>
        <pt x="46" y="370" on="1"/>
      </contour>
      <contour>
        <pt x="349" y="78" on="1"/>
        <pt x="409" y="78" on="0"/>
        <pt x="501" y="117" on="0"/>
        <pt x="564" y="185" on="0"/>
        <pt x="597" y="276" on="0"/>
        <pt x="597" y="328" on="1"/>
        <pt x="597" y="382" on="0"/>
        <pt x="563" y="473" on="0"/>
        <pt x="498" y="539" on="0"/>
        <pt x="404" y="576" on="0"/>
        <pt x="344" y="576" on="1"/>
        <pt x="246" y="576" on="1"/>
        <pt x="244" y="547" on="0"/>
        <pt x="243" y="508" on="0"/>
        <pt x="241" y="468" on="0"/>
        <pt x="241" y="421" on="0"/>
        <pt x="241" y="385" on="1"/>
        <pt x="241" y="370" on="1"/>
        <pt x="375" y="370" on="1"/>
        <pt x="359" y="288" on="1"/>
        <pt x="241" y="288" on="1"/>
        <pt x="241" y="261" on="1"/>
        <pt x="241" y="201" on="0"/>
        <pt x="242" y="134" on="0"/>
        <pt x="244" y="117" on="1"/>
        <pt x="247" y="91" on="0"/>
        <pt x="267" y="78" on="0"/>
        <pt x="293" y="78" on="1"/>
      </contour>
    </TTGlyph>
    <TTGlyph name="E" xMin="40" yMin="-6" xMax="537" yMax="660">
      <contour>
        <pt x="328" y="654" on="1"/>
        <pt x="342" y="654" on="0"/>
        <pt x="397" y="655" on="0"/>
        <pt x="455" y="657" on="0"/>
        <pt x="501" y="658" on="0"/>
        <pt x="506" y="658" on="1"/>
        <pt x="512" y="648" on="1"/>
        <pt x="507" y="519" on="1"/>
        <pt x="462" y="519" on="1"/>
        <pt x="458" y="523" on="1"/>
        <pt x="456" y="542" on="0"/>
        <pt x="449" y="564" on="0"/>
        <pt x="419" y="574" on="0"/>
        <pt x="356" y="576" on="0"/>
        <pt x="300" y="576" on="1"/>
        <pt x="243" y="576" on="1"/>
        <pt x="242" y="567" on="1"/>
        <pt x="241" y="553" on="0"/>
        <pt x="240" y="529" on="0"/>
        <pt x="239" y="497" on="0"/>
        <pt x="239" y="451" on="0"/>
        <pt x="239" y="415" on="1"/>
        <pt x="239" y="381" on="1"/>
        <pt x="263" y="382" on="0"/>
        <pt x="307" y="381" on="0"/>
        <pt x="345" y="383" on="0"/>
        <pt x="372" y="388" on="0"/>
        <pt x="378" y="394" on="1"/>
        <pt x="388" y="404" on="0"/>
        <pt x="388" y="422" on="1"/>
        <pt x="393" y="427" on="1"/>
        <pt x="430" y="429" on="1"/>
        <pt x="434" y="427" on="1"/>
        <pt x="432" y="404" on="0"/>
        <pt x="429" y="370" on="0"/>
        <pt x="429" y="348" on="1"/>
        <pt x="429" y="324" on="0"/>
        <pt x="432" y="283" on="0"/>
        <pt x="434" y="259" on="1"/>
        <pt x="430" y="257" on="1"/>
        <pt x="392" y="259" on="1"/>
        <pt x="388" y="262" on="1"/>
        <pt x="388" y="287" on="0"/>
        <pt x="379" y="299" on="1"/>
        <pt x="371" y="310" on="0"/>
        <pt x="296" y="313" on="0"/>
        <pt x="250" y="313" on="1"/>
        <pt x="239" y="313" on="1"/>
        <pt x="239" y="231" on="1"/>
        <pt x="239" y="202" on="0"/>
        <pt x="240" y="164" on="0"/>
        <pt x="241" y="137" on="0"/>
        <pt x="243" y="113" on="0"/>
        <pt x="244" y="97" on="1"/>
        <pt x="245" y="78" on="0"/>
        <pt x="264" y="78" on="1"/>
        <pt x="309" y="78" on="1"/>
        <pt x="366" y="78" on="0"/>
        <pt x="431" y="82" on="0"/>
        <pt x="465" y="97" on="0"/>
        <pt x="480" y="125" on="0"/>
        <pt x="486" y="149" on="1"/>
        <pt x="490" y="153" on="1"/>
        <pt x="537" y="153" on="1"/>
        <pt x="518" y="6" on="1"/>
        <pt x="510" y="-4" on="1"/>
        <pt x="505" y="-4" on="0"/>
        <pt x="466" y="-3" on="0"/>
        <pt x="418" y="-1" on="0"/>
        <pt x="370" y="0" on="0"/>
        <pt x="356" y="0" on="1"/>
        <pt x="154" y="0" on="1"/>
        <pt x="147" y="0" on="0"/>
        <pt x="115" y="-2" on="0"/>
        <pt x="81" y="-4" on="0"/>
        <pt x="49" y="-6" on="0"/>
        <pt x="42" y="-6" on="1"/>
        <pt x="40" y="-2" on="1"/>
        <pt x="43" y="36" on="1"/>
        <pt x="48" y="40" on="1"/>
        <pt x="64" y="40" on="0"/>
        <pt x="92" y="43" on="0"/>
        <pt x="101" y="50" on="1"/>
        <pt x="109" y="57" on="0"/>
        <pt x="124" y="79" on="0"/>
        <pt x="126" y="107" on="1"/>
        <pt x="126" y="114" on="0"/>
        <pt x="127" y="133" on="0"/>
        <pt x="128" y="161" on="0"/>
        <pt x="128" y="201" on="0"/>
        <pt x="128" y="231" on="1"/>
        <pt x="128" y="394" on="1"/>
        <pt x="128" y="429" on="0"/>
        <pt x="128" y="477" on="0"/>
        <pt x="128" y="511" on="0"/>
        <pt x="127" y="535" on="0"/>
        <pt x="126" y="547" on="1"/>
        <pt x="124" y="574" on="0"/>
        <pt x="109" y="598" on="0"/>
        <pt x="101" y="604" on="1"/>
        <pt x="92" y="612" on="0"/>
        <pt x="64" y="614" on="0"/>
        <pt x="48" y="614" on="1"/>
        <pt x="43" y="618" on="1"/>
        <pt x="40" y="656" on="1"/>
        <pt x="42" y="660" on="1"/>
        <pt x="49" y="660" on="0"/>
        <pt x="81" y="658" on="0"/>
        <pt x="118" y="656" on="0"/>
        <pt x="153" y="654" on="0"/>
        <pt x="164" y="654" on="1"/>
      </contour>
    </TTGlyph>
    <TTGlyph name="Eacute" xMin="40" yMin="-6" xMax="537" yMax="850">
      <contour>
        <pt x="328" y="654" on="1"/>
        <pt x="342" y="654" on="0"/>
        <pt x="397" y="655" on="0"/>
        <pt x="455" y="657" on="0"/>
        <pt x="501" y="658" on="0"/>
        <pt x="506" y="658" on="1"/>
        <pt x="512" y="648" on="1"/>
        <pt x="507" y="519" on="1"/>
        <pt x="462" y="519" on="1"/>
        <pt x="458" y="523" on="1"/>
        <pt x="456" y="542" on="0"/>
        <pt x="449" y="564" on="0"/>
        <pt x="419" y="574" on="0"/>
        <pt x="356" y="576" on="0"/>
        <pt x="300" y="576" on="1"/>
        <pt x="243" y="576" on="1"/>
        <pt x="242" y="567" on="1"/>
        <pt x="241" y="553" on="0"/>
        <pt x="240" y="529" on="0"/>
        <pt x="239" y="497" on="0"/>
        <pt x="239" y="451" on="0"/>
        <pt x="239" y="415" on="1"/>
        <pt x="239" y="381" on="1"/>
        <pt x="263" y="382" on="0"/>
        <pt x="307" y="381" on="0"/>
        <pt x="345" y="383" on="0"/>
        <pt x="372" y="388" on="0"/>
        <pt x="378" y="394" on="1"/>
        <pt x="388" y="404" on="0"/>
        <pt x="388" y="422" on="1"/>
        <pt x="393" y="427" on="1"/>
        <pt x="430" y="429" on="1"/>
        <pt x="434" y="427" on="1"/>
        <pt x="432" y="404" on="0"/>
        <pt x="429" y="370" on="0"/>
        <pt x="429" y="348" on="1"/>
        <pt x="429" y="324" on="0"/>
        <pt x="432" y="283" on="0"/>
        <pt x="434" y="259" on="1"/>
        <pt x="430" y="257" on="1"/>
        <pt x="392" y="259" on="1"/>
        <pt x="388" y="262" on="1"/>
        <pt x="388" y="287" on="0"/>
        <pt x="379" y="299" on="1"/>
        <pt x="371" y="310" on="0"/>
        <pt x="296" y="313" on="0"/>
        <pt x="250" y="313" on="1"/>
        <pt x="239" y="313" on="1"/>
        <pt x="239" y="231" on="1"/>
        <pt x="239" y="202" on="0"/>
        <pt x="240" y="164" on="0"/>
        <pt x="241" y="137" on="0"/>
        <pt x="243" y="113" on="0"/>
        <pt x="244" y="97" on="1"/>
        <pt x="245" y="78" on="0"/>
        <pt x="264" y="78" on="1"/>
        <pt x="309" y="78" on="1"/>
        <pt x="366" y="78" on="0"/>
        <pt x="431" y="82" on="0"/>
        <pt x="465" y="97" on="0"/>
        <pt x="480" y="125" on="0"/>
        <pt x="486" y="149" on="1"/>
        <pt x="490" y="153" on="1"/>
        <pt x="537" y="153" on="1"/>
        <pt x="518" y="6" on="1"/>
        <pt x="510" y="-4" on="1"/>
        <pt x="505" y="-4" on="0"/>
        <pt x="466" y="-3" on="0"/>
        <pt x="418" y="-1" on="0"/>
        <pt x="370" y="0" on="0"/>
        <pt x="356" y="0" on="1"/>
        <pt x="154" y="0" on="1"/>
        <pt x="147" y="0" on="0"/>
        <pt x="115" y="-2" on="0"/>
        <pt x="81" y="-4" on="0"/>
        <pt x="49" y="-6" on="0"/>
        <pt x="42" y="-6" on="1"/>
        <pt x="40" y="-2" on="1"/>
        <pt x="43" y="36" on="1"/>
        <pt x="48" y="40" on="1"/>
        <pt x="64" y="40" on="0"/>
        <pt x="92" y="43" on="0"/>
        <pt x="101" y="50" on="1"/>
        <pt x="109" y="57" on="0"/>
        <pt x="124" y="79" on="0"/>
        <pt x="126" y="107" on="1"/>
        <pt x="126" y="114" on="0"/>
        <pt x="127" y="133" on="0"/>
        <pt x="128" y="161" on="0"/>
        <pt x="128" y="201" on="0"/>
        <pt x="128" y="231" on="1"/>
        <pt x="128" y="394" on="1"/>
        <pt x="128" y="429" on="0"/>
        <pt x="128" y="477" on="0"/>
        <pt x="128" y="511" on="0"/>
        <pt x="127" y="535" on="0"/>
        <pt x="126" y="547" on="1"/>
        <pt x="124" y="574" on="0"/>
        <pt x="109" y="598" on="0"/>
        <pt x="101" y="604" on="1"/>
        <pt x="92" y="612" on="0"/>
        <pt x="64" y="614" on="0"/>
        <pt x="48" y="614" on="1"/>
        <pt x="43" y="618" on="1"/>
        <pt x="40" y="656" on="1"/>
        <pt x="42" y="660" on="1"/>
        <pt x="49" y="660" on="0"/>
        <pt x="81" y="658" on="0"/>
        <pt x="118" y="656" on="0"/>
        <pt x="153" y="654" on="0"/>
        <pt x="164" y="654" on="1"/>
      </contour>
      <contour>
        <pt x="184" y="692" on="1"/>
        <pt x="158" y="742" on="1"/>
        <pt x="161" y="749" on="1"/>
        <pt x="342" y="850" on="1"/>
        <pt x="370" y="848" on="0"/>
        <pt x="397" y="811" on="0"/>
        <pt x="397" y="785" on="1"/>
        <pt x="397" y="775" on="0"/>
        <pt x="393" y="766" on="1"/>
        <pt x="192" y="689" on="1"/>
      </contour>
    </TTGlyph>
    <TTGlyph name="Ecaron" xMin="40" yMin="-6" xMax="537" yMax="850">
      <contour>
        <pt x="328" y="654" on="1"/>
        <pt x="342" y="654" on="0"/>
        <pt x="397" y="655" on="0"/>
        <pt x="455" y="657" on="0"/>
        <pt x="501" y="658" on="0"/>
        <pt x="506" y="658" on="1"/>
        <pt x="512" y="648" on="1"/>
        <pt x="507" y="519" on="1"/>
        <pt x="462" y="519" on="1"/>
        <pt x="458" y="523" on="1"/>
        <pt x="456" y="542" on="0"/>
        <pt x="449" y="564" on="0"/>
        <pt x="419" y="574" on="0"/>
        <pt x="356" y="576" on="0"/>
        <pt x="300" y="576" on="1"/>
        <pt x="243" y="576" on="1"/>
        <pt x="242" y="567" on="1"/>
        <pt x="241" y="553" on="0"/>
        <pt x="240" y="529" on="0"/>
        <pt x="239" y="497" on="0"/>
        <pt x="239" y="451" on="0"/>
        <pt x="239" y="415" on="1"/>
        <pt x="239" y="381" on="1"/>
        <pt x="263" y="382" on="0"/>
        <pt x="307" y="381" on="0"/>
        <pt x="345" y="383" on="0"/>
        <pt x="372" y="388" on="0"/>
        <pt x="378" y="394" on="1"/>
        <pt x="388" y="404" on="0"/>
        <pt x="388" y="422" on="1"/>
        <pt x="393" y="427" on="1"/>
        <pt x="430" y="429" on="1"/>
        <pt x="434" y="427" on="1"/>
        <pt x="432" y="404" on="0"/>
        <pt x="429" y="370" on="0"/>
        <pt x="429" y="348" on="1"/>
        <pt x="429" y="324" on="0"/>
        <pt x="432" y="283" on="0"/>
        <pt x="434" y="259" on="1"/>
        <pt x="430" y="257" on="1"/>
        <pt x="392" y="259" on="1"/>
        <pt x="388" y="262" on="1"/>
        <pt x="388" y="287" on="0"/>
        <pt x="379" y="299" on="1"/>
        <pt x="371" y="310" on="0"/>
        <pt x="296" y="313" on="0"/>
        <pt x="250" y="313" on="1"/>
        <pt x="239" y="313" on="1"/>
        <pt x="239" y="231" on="1"/>
        <pt x="239" y="202" on="0"/>
        <pt x="240" y="164" on="0"/>
        <pt x="241" y="137" on="0"/>
        <pt x="243" y="113" on="0"/>
        <pt x="244" y="97" on="1"/>
        <pt x="245" y="78" on="0"/>
        <pt x="264" y="78" on="1"/>
        <pt x="309" y="78" on="1"/>
        <pt x="366" y="78" on="0"/>
        <pt x="431" y="82" on="0"/>
        <pt x="465" y="97" on="0"/>
        <pt x="480" y="125" on="0"/>
        <pt x="486" y="149" on="1"/>
        <pt x="490" y="153" on="1"/>
        <pt x="537" y="153" on="1"/>
        <pt x="518" y="6" on="1"/>
        <pt x="510" y="-4" on="1"/>
        <pt x="505" y="-4" on="0"/>
        <pt x="466" y="-3" on="0"/>
        <pt x="418" y="-1" on="0"/>
        <pt x="370" y="0" on="0"/>
        <pt x="356" y="0" on="1"/>
        <pt x="154" y="0" on="1"/>
        <pt x="147" y="0" on="0"/>
        <pt x="115" y="-2" on="0"/>
        <pt x="81" y="-4" on="0"/>
        <pt x="49" y="-6" on="0"/>
        <pt x="42" y="-6" on="1"/>
        <pt x="40" y="-2" on="1"/>
        <pt x="43" y="36" on="1"/>
        <pt x="48" y="40" on="1"/>
        <pt x="64" y="40" on="0"/>
        <pt x="92" y="43" on="0"/>
        <pt x="101" y="50" on="1"/>
        <pt x="109" y="57" on="0"/>
        <pt x="124" y="79" on="0"/>
        <pt x="126" y="107" on="1"/>
        <pt x="126" y="114" on="0"/>
        <pt x="127" y="133" on="0"/>
        <pt x="128" y="161" on="0"/>
        <pt x="128" y="201" on="0"/>
        <pt x="128" y="231" on="1"/>
        <pt x="128" y="394" on="1"/>
        <pt x="128" y="429" on="0"/>
        <pt x="128" y="477" on="0"/>
        <pt x="128" y="511" on="0"/>
        <pt x="127" y="535" on="0"/>
        <pt x="126" y="547" on="1"/>
        <pt x="124" y="574" on="0"/>
        <pt x="109" y="598" on="0"/>
        <pt x="101" y="604" on="1"/>
        <pt x="92" y="612" on="0"/>
        <pt x="64" y="614" on="0"/>
        <pt x="48" y="614" on="1"/>
        <pt x="43" y="618" on="1"/>
        <pt x="40" y="656" on="1"/>
        <pt x="42" y="660" on="1"/>
        <pt x="49" y="660" on="0"/>
        <pt x="81" y="658" on="0"/>
        <pt x="118" y="656" on="0"/>
        <pt x="153" y="654" on="0"/>
        <pt x="164" y="654" on="1"/>
      </contour>
      <contour>
        <pt x="277" y="712" on="1"/>
        <pt x="147" y="811" on="1"/>
        <pt x="144" y="818" on="1"/>
        <pt x="153" y="847" on="1"/>
        <pt x="160" y="850" on="1"/>
        <pt x="282" y="796" on="1"/>
        <pt x="402" y="850" on="1"/>
        <pt x="409" y="847" on="1"/>
        <pt x="418" y="818" on="1"/>
        <pt x="415" y="811" on="1"/>
        <pt x="285" y="712" on="1"/>
      </contour>
    </TTGlyph>
    <TTGlyph name="Ecircumflex" xMin="40" yMin="-6" xMax="537" yMax="849">
      <contour>
        <pt x="328" y="654" on="1"/>
        <pt x="342" y="654" on="0"/>
        <pt x="397" y="655" on="0"/>
        <pt x="455" y="657" on="0"/>
        <pt x="501" y="658" on="0"/>
        <pt x="506" y="658" on="1"/>
        <pt x="512" y="648" on="1"/>
        <pt x="507" y="519" on="1"/>
        <pt x="462" y="519" on="1"/>
        <pt x="458" y="523" on="1"/>
        <pt x="456" y="542" on="0"/>
        <pt x="449" y="564" on="0"/>
        <pt x="419" y="574" on="0"/>
        <pt x="356" y="576" on="0"/>
        <pt x="300" y="576" on="1"/>
        <pt x="243" y="576" on="1"/>
        <pt x="242" y="567" on="1"/>
        <pt x="241" y="553" on="0"/>
        <pt x="240" y="529" on="0"/>
        <pt x="239" y="497" on="0"/>
        <pt x="239" y="451" on="0"/>
        <pt x="239" y="415" on="1"/>
        <pt x="239" y="381" on="1"/>
        <pt x="263" y="382" on="0"/>
        <pt x="307" y="381" on="0"/>
        <pt x="345" y="383" on="0"/>
        <pt x="372" y="388" on="0"/>
        <pt x="378" y="394" on="1"/>
        <pt x="388" y="404" on="0"/>
        <pt x="388" y="422" on="1"/>
        <pt x="393" y="427" on="1"/>
        <pt x="430" y="429" on="1"/>
        <pt x="434" y="427" on="1"/>
        <pt x="432" y="404" on="0"/>
        <pt x="429" y="370" on="0"/>
        <pt x="429" y="348" on="1"/>
        <pt x="429" y="324" on="0"/>
        <pt x="432" y="283" on="0"/>
        <pt x="434" y="259" on="1"/>
        <pt x="430" y="257" on="1"/>
        <pt x="392" y="259" on="1"/>
        <pt x="388" y="262" on="1"/>
        <pt x="388" y="287" on="0"/>
        <pt x="379" y="299" on="1"/>
        <pt x="371" y="310" on="0"/>
        <pt x="296" y="313" on="0"/>
        <pt x="250" y="313" on="1"/>
        <pt x="239" y="313" on="1"/>
        <pt x="239" y="231" on="1"/>
        <pt x="239" y="202" on="0"/>
        <pt x="240" y="164" on="0"/>
        <pt x="241" y="137" on="0"/>
        <pt x="243" y="113" on="0"/>
        <pt x="244" y="97" on="1"/>
        <pt x="245" y="78" on="0"/>
        <pt x="264" y="78" on="1"/>
        <pt x="309" y="78" on="1"/>
        <pt x="366" y="78" on="0"/>
        <pt x="431" y="82" on="0"/>
        <pt x="465" y="97" on="0"/>
        <pt x="480" y="125" on="0"/>
        <pt x="486" y="149" on="1"/>
        <pt x="490" y="153" on="1"/>
        <pt x="537" y="153" on="1"/>
        <pt x="518" y="6" on="1"/>
        <pt x="510" y="-4" on="1"/>
        <pt x="505" y="-4" on="0"/>
        <pt x="466" y="-3" on="0"/>
        <pt x="418" y="-1" on="0"/>
        <pt x="370" y="0" on="0"/>
        <pt x="356" y="0" on="1"/>
        <pt x="154" y="0" on="1"/>
        <pt x="147" y="0" on="0"/>
        <pt x="115" y="-2" on="0"/>
        <pt x="81" y="-4" on="0"/>
        <pt x="49" y="-6" on="0"/>
        <pt x="42" y="-6" on="1"/>
        <pt x="40" y="-2" on="1"/>
        <pt x="43" y="36" on="1"/>
        <pt x="48" y="40" on="1"/>
        <pt x="64" y="40" on="0"/>
        <pt x="92" y="43" on="0"/>
        <pt x="101" y="50" on="1"/>
        <pt x="109" y="57" on="0"/>
        <pt x="124" y="79" on="0"/>
        <pt x="126" y="107" on="1"/>
        <pt x="126" y="114" on="0"/>
        <pt x="127" y="133" on="0"/>
        <pt x="128" y="161" on="0"/>
        <pt x="128" y="201" on="0"/>
        <pt x="128" y="231" on="1"/>
        <pt x="128" y="394" on="1"/>
        <pt x="128" y="429" on="0"/>
        <pt x="128" y="477" on="0"/>
        <pt x="128" y="511" on="0"/>
        <pt x="127" y="535" on="0"/>
        <pt x="126" y="547" on="1"/>
        <pt x="124" y="574" on="0"/>
        <pt x="109" y="598" on="0"/>
        <pt x="101" y="604" on="1"/>
        <pt x="92" y="612" on="0"/>
        <pt x="64" y="614" on="0"/>
        <pt x="48" y="614" on="1"/>
        <pt x="43" y="618" on="1"/>
        <pt x="40" y="656" on="1"/>
        <pt x="42" y="660" on="1"/>
        <pt x="49" y="660" on="0"/>
        <pt x="81" y="658" on="0"/>
        <pt x="118" y="656" on="0"/>
        <pt x="153" y="654" on="0"/>
        <pt x="164" y="654" on="1"/>
      </contour>
      <contour>
        <pt x="281" y="849" on="1"/>
        <pt x="391" y="750" on="1"/>
        <pt x="394" y="743" on="1"/>
        <pt x="385" y="714" on="1"/>
        <pt x="378" y="711" on="1"/>
        <pt x="277" y="752" on="1"/>
        <pt x="176" y="711" on="1"/>
        <pt x="169" y="714" on="1"/>
        <pt x="160" y="743" on="1"/>
        <pt x="163" y="750" on="1"/>
        <pt x="273" y="849" on="1"/>
      </contour>
    </TTGlyph>
    <TTGlyph name="Edieresis" xMin="40" yMin="-6" xMax="537" yMax="850">
      <contour>
        <pt x="328" y="654" on="1"/>
        <pt x="342" y="654" on="0"/>
        <pt x="397" y="655" on="0"/>
        <pt x="455" y="657" on="0"/>
        <pt x="501" y="658" on="0"/>
        <pt x="506" y="658" on="1"/>
        <pt x="512" y="648" on="1"/>
        <pt x="507" y="519" on="1"/>
        <pt x="462" y="519" on="1"/>
        <pt x="458" y="523" on="1"/>
        <pt x="456" y="542" on="0"/>
        <pt x="449" y="564" on="0"/>
        <pt x="419" y="574" on="0"/>
        <pt x="356" y="576" on="0"/>
        <pt x="300" y="576" on="1"/>
        <pt x="243" y="576" on="1"/>
        <pt x="242" y="567" on="1"/>
        <pt x="241" y="553" on="0"/>
        <pt x="240" y="529" on="0"/>
        <pt x="239" y="497" on="0"/>
        <pt x="239" y="451" on="0"/>
        <pt x="239" y="415" on="1"/>
        <pt x="239" y="381" on="1"/>
        <pt x="263" y="382" on="0"/>
        <pt x="307" y="381" on="0"/>
        <pt x="345" y="383" on="0"/>
        <pt x="372" y="388" on="0"/>
        <pt x="378" y="394" on="1"/>
        <pt x="388" y="404" on="0"/>
        <pt x="388" y="422" on="1"/>
        <pt x="393" y="427" on="1"/>
        <pt x="430" y="429" on="1"/>
        <pt x="434" y="427" on="1"/>
        <pt x="432" y="404" on="0"/>
        <pt x="429" y="370" on="0"/>
        <pt x="429" y="348" on="1"/>
        <pt x="429" y="324" on="0"/>
        <pt x="432" y="283" on="0"/>
        <pt x="434" y="259" on="1"/>
        <pt x="430" y="257" on="1"/>
        <pt x="392" y="259" on="1"/>
        <pt x="388" y="262" on="1"/>
        <pt x="388" y="287" on="0"/>
        <pt x="379" y="299" on="1"/>
        <pt x="371" y="310" on="0"/>
        <pt x="296" y="313" on="0"/>
        <pt x="250" y="313" on="1"/>
        <pt x="239" y="313" on="1"/>
        <pt x="239" y="231" on="1"/>
        <pt x="239" y="202" on="0"/>
        <pt x="240" y="164" on="0"/>
        <pt x="241" y="137" on="0"/>
        <pt x="243" y="113" on="0"/>
        <pt x="244" y="97" on="1"/>
        <pt x="245" y="78" on="0"/>
        <pt x="264" y="78" on="1"/>
        <pt x="309" y="78" on="1"/>
        <pt x="366" y="78" on="0"/>
        <pt x="431" y="82" on="0"/>
        <pt x="465" y="97" on="0"/>
        <pt x="480" y="125" on="0"/>
        <pt x="486" y="149" on="1"/>
        <pt x="490" y="153" on="1"/>
        <pt x="537" y="153" on="1"/>
        <pt x="518" y="6" on="1"/>
        <pt x="510" y="-4" on="1"/>
        <pt x="505" y="-4" on="0"/>
        <pt x="466" y="-3" on="0"/>
        <pt x="418" y="-1" on="0"/>
        <pt x="370" y="0" on="0"/>
        <pt x="356" y="0" on="1"/>
        <pt x="154" y="0" on="1"/>
        <pt x="147" y="0" on="0"/>
        <pt x="115" y="-2" on="0"/>
        <pt x="81" y="-4" on="0"/>
        <pt x="49" y="-6" on="0"/>
        <pt x="42" y="-6" on="1"/>
        <pt x="40" y="-2" on="1"/>
        <pt x="43" y="36" on="1"/>
        <pt x="48" y="40" on="1"/>
        <pt x="64" y="40" on="0"/>
        <pt x="92" y="43" on="0"/>
        <pt x="101" y="50" on="1"/>
        <pt x="109" y="57" on="0"/>
        <pt x="124" y="79" on="0"/>
        <pt x="126" y="107" on="1"/>
        <pt x="126" y="114" on="0"/>
        <pt x="127" y="133" on="0"/>
        <pt x="128" y="161" on="0"/>
        <pt x="128" y="201" on="0"/>
        <pt x="128" y="231" on="1"/>
        <pt x="128" y="394" on="1"/>
        <pt x="128" y="429" on="0"/>
        <pt x="128" y="477" on="0"/>
        <pt x="128" y="511" on="0"/>
        <pt x="127" y="535" on="0"/>
        <pt x="126" y="547" on="1"/>
        <pt x="124" y="574" on="0"/>
        <pt x="109" y="598" on="0"/>
        <pt x="101" y="604" on="1"/>
        <pt x="92" y="612" on="0"/>
        <pt x="64" y="614" on="0"/>
        <pt x="48" y="614" on="1"/>
        <pt x="43" y="618" on="1"/>
        <pt x="40" y="656" on="1"/>
        <pt x="42" y="660" on="1"/>
        <pt x="49" y="660" on="0"/>
        <pt x="81" y="658" on="0"/>
        <pt x="118" y="656" on="0"/>
        <pt x="153" y="654" on="0"/>
        <pt x="164" y="654" on="1"/>
      </contour>
      <contour>
        <pt x="150" y="784" on="1"/>
        <pt x="150" y="796" on="0"/>
        <pt x="160" y="820" on="0"/>
        <pt x="178" y="839" on="0"/>
        <pt x="201" y="850" on="0"/>
        <pt x="214" y="850" on="1"/>
        <pt x="239" y="850" on="0"/>
        <pt x="280" y="809" on="0"/>
        <pt x="280" y="784" on="1"/>
        <pt x="280" y="771" on="0"/>
        <pt x="269" y="748" on="0"/>
        <pt x="250" y="730" on="0"/>
        <pt x="226" y="720" on="0"/>
        <pt x="214" y="720" on="1"/>
        <pt x="188" y="720" on="0"/>
        <pt x="150" y="758" on="0"/>
      </contour>
      <contour>
        <pt x="310" y="784" on="1"/>
        <pt x="310" y="796" on="0"/>
        <pt x="320" y="820" on="0"/>
        <pt x="338" y="839" on="0"/>
        <pt x="361" y="850" on="0"/>
        <pt x="374" y="850" on="1"/>
        <pt x="399" y="850" on="0"/>
        <pt x="440" y="809" on="0"/>
        <pt x="440" y="784" on="1"/>
        <pt x="440" y="771" on="0"/>
        <pt x="429" y="748" on="0"/>
        <pt x="410" y="730" on="0"/>
        <pt x="386" y="720" on="0"/>
        <pt x="374" y="720" on="1"/>
        <pt x="348" y="720" on="0"/>
        <pt x="310" y="758" on="0"/>
      </contour>
    </TTGlyph>
    <TTGlyph name="Egrave" xMin="40" yMin="-6" xMax="537" yMax="850">
      <contour>
        <pt x="328" y="654" on="1"/>
        <pt x="342" y="654" on="0"/>
        <pt x="397" y="655" on="0"/>
        <pt x="455" y="657" on="0"/>
        <pt x="501" y="658" on="0"/>
        <pt x="506" y="658" on="1"/>
        <pt x="512" y="648" on="1"/>
        <pt x="507" y="519" on="1"/>
        <pt x="462" y="519" on="1"/>
        <pt x="458" y="523" on="1"/>
        <pt x="456" y="542" on="0"/>
        <pt x="449" y="564" on="0"/>
        <pt x="419" y="574" on="0"/>
        <pt x="356" y="576" on="0"/>
        <pt x="300" y="576" on="1"/>
        <pt x="243" y="576" on="1"/>
        <pt x="242" y="567" on="1"/>
        <pt x="241" y="553" on="0"/>
        <pt x="240" y="529" on="0"/>
        <pt x="239" y="497" on="0"/>
        <pt x="239" y="451" on="0"/>
        <pt x="239" y="415" on="1"/>
        <pt x="239" y="381" on="1"/>
        <pt x="263" y="382" on="0"/>
        <pt x="307" y="381" on="0"/>
        <pt x="345" y="383" on="0"/>
        <pt x="372" y="388" on="0"/>
        <pt x="378" y="394" on="1"/>
        <pt x="388" y="404" on="0"/>
        <pt x="388" y="422" on="1"/>
        <pt x="393" y="427" on="1"/>
        <pt x="430" y="429" on="1"/>
        <pt x="434" y="427" on="1"/>
        <pt x="432" y="404" on="0"/>
        <pt x="429" y="370" on="0"/>
        <pt x="429" y="348" on="1"/>
        <pt x="429" y="324" on="0"/>
        <pt x="432" y="283" on="0"/>
        <pt x="434" y="259" on="1"/>
        <pt x="430" y="257" on="1"/>
        <pt x="392" y="259" on="1"/>
        <pt x="388" y="262" on="1"/>
        <pt x="388" y="287" on="0"/>
        <pt x="379" y="299" on="1"/>
        <pt x="371" y="310" on="0"/>
        <pt x="296" y="313" on="0"/>
        <pt x="250" y="313" on="1"/>
        <pt x="239" y="313" on="1"/>
        <pt x="239" y="231" on="1"/>
        <pt x="239" y="202" on="0"/>
        <pt x="240" y="164" on="0"/>
        <pt x="241" y="137" on="0"/>
        <pt x="243" y="113" on="0"/>
        <pt x="244" y="97" on="1"/>
        <pt x="245" y="78" on="0"/>
        <pt x="264" y="78" on="1"/>
        <pt x="309" y="78" on="1"/>
        <pt x="366" y="78" on="0"/>
        <pt x="431" y="82" on="0"/>
        <pt x="465" y="97" on="0"/>
        <pt x="480" y="125" on="0"/>
        <pt x="486" y="149" on="1"/>
        <pt x="490" y="153" on="1"/>
        <pt x="537" y="153" on="1"/>
        <pt x="518" y="6" on="1"/>
        <pt x="510" y="-4" on="1"/>
        <pt x="505" y="-4" on="0"/>
        <pt x="466" y="-3" on="0"/>
        <pt x="418" y="-1" on="0"/>
        <pt x="370" y="0" on="0"/>
        <pt x="356" y="0" on="1"/>
        <pt x="154" y="0" on="1"/>
        <pt x="147" y="0" on="0"/>
        <pt x="115" y="-2" on="0"/>
        <pt x="81" y="-4" on="0"/>
        <pt x="49" y="-6" on="0"/>
        <pt x="42" y="-6" on="1"/>
        <pt x="40" y="-2" on="1"/>
        <pt x="43" y="36" on="1"/>
        <pt x="48" y="40" on="1"/>
        <pt x="64" y="40" on="0"/>
        <pt x="92" y="43" on="0"/>
        <pt x="101" y="50" on="1"/>
        <pt x="109" y="57" on="0"/>
        <pt x="124" y="79" on="0"/>
        <pt x="126" y="107" on="1"/>
        <pt x="126" y="114" on="0"/>
        <pt x="127" y="133" on="0"/>
        <pt x="128" y="161" on="0"/>
        <pt x="128" y="201" on="0"/>
        <pt x="128" y="231" on="1"/>
        <pt x="128" y="394" on="1"/>
        <pt x="128" y="429" on="0"/>
        <pt x="128" y="477" on="0"/>
        <pt x="128" y="511" on="0"/>
        <pt x="127" y="535" on="0"/>
        <pt x="126" y="547" on="1"/>
        <pt x="124" y="574" on="0"/>
        <pt x="109" y="598" on="0"/>
        <pt x="101" y="604" on="1"/>
        <pt x="92" y="612" on="0"/>
        <pt x="64" y="614" on="0"/>
        <pt x="48" y="614" on="1"/>
        <pt x="43" y="618" on="1"/>
        <pt x="40" y="656" on="1"/>
        <pt x="42" y="660" on="1"/>
        <pt x="49" y="660" on="0"/>
        <pt x="81" y="658" on="0"/>
        <pt x="118" y="656" on="0"/>
        <pt x="153" y="654" on="0"/>
        <pt x="164" y="654" on="1"/>
      </contour>
      <contour>
        <pt x="363" y="689" on="1"/>
        <pt x="162" y="766" on="1"/>
        <pt x="158" y="775" on="0"/>
        <pt x="158" y="785" on="1"/>
        <pt x="158" y="811" on="0"/>
        <pt x="185" y="848" on="0"/>
        <pt x="213" y="850" on="1"/>
        <pt x="394" y="749" on="1"/>
        <pt x="397" y="742" on="1"/>
        <pt x="371" y="692" on="1"/>
      </contour>
    </TTGlyph>
    <TTGlyph name="Eth" xMin="31" yMin="-6" xMax="718" yMax="660">
      <contour>
        <pt x="130" y="370" on="1"/>
        <pt x="130" y="394" on="1"/>
        <pt x="130" y="404" on="0"/>
        <pt x="130" y="445" on="0"/>
        <pt x="130" y="491" on="0"/>
        <pt x="129" y="535" on="0"/>
        <pt x="128" y="547" on="1"/>
        <pt x="126" y="572" on="0"/>
        <pt x="112" y="598" on="0"/>
        <pt x="103" y="604" on="1"/>
        <pt x="94" y="612" on="0"/>
        <pt x="75" y="614" on="0"/>
        <pt x="50" y="614" on="1"/>
        <pt x="45" y="618" on="1"/>
        <pt x="42" y="656" on="1"/>
        <pt x="44" y="660" on="1"/>
        <pt x="51" y="660" on="0"/>
        <pt x="77" y="658" on="0"/>
        <pt x="107" y="656" on="0"/>
        <pt x="136" y="654" on="0"/>
        <pt x="147" y="654" on="1"/>
        <pt x="244" y="654" on="1"/>
        <pt x="257" y="654" on="0"/>
        <pt x="296" y="655" on="0"/>
        <pt x="337" y="657" on="0"/>
        <pt x="376" y="658" on="0"/>
        <pt x="388" y="658" on="1"/>
        <pt x="466" y="658" on="0"/>
        <pt x="589" y="605" on="0"/>
        <pt x="673" y="515" on="0"/>
        <pt x="718" y="395" on="0"/>
        <pt x="718" y="328" on="1"/>
        <pt x="718" y="262" on="0"/>
        <pt x="675" y="143" on="0"/>
        <pt x="591" y="52" on="0"/>
        <pt x="465" y="-2" on="0"/>
        <pt x="382" y="-2" on="1"/>
        <pt x="373" y="-2" on="0"/>
        <pt x="337" y="-1" on="0"/>
        <pt x="297" y="-1" on="0"/>
        <pt x="260" y="0" on="0"/>
        <pt x="249" y="0" on="1"/>
        <pt x="156" y="0" on="1"/>
        <pt x="149" y="0" on="0"/>
        <pt x="117" y="-2" on="0"/>
        <pt x="83" y="-4" on="0"/>
        <pt x="51" y="-6" on="0"/>
        <pt x="44" y="-6" on="1"/>
        <pt x="42" y="-2" on="1"/>
        <pt x="45" y="36" on="1"/>
        <pt x="50" y="40" on="1"/>
        <pt x="62" y="40" on="0"/>
        <pt x="94" y="43" on="0"/>
        <pt x="103" y="49" on="1"/>
        <pt x="111" y="55" on="0"/>
        <pt x="125" y="81" on="0"/>
        <pt x="128" y="107" on="1"/>
        <pt x="128" y="114" on="0"/>
        <pt x="129" y="133" on="0"/>
        <pt x="130" y="161" on="0"/>
        <pt x="130" y="201" on="0"/>
        <pt x="130" y="231" on="1"/>
        <pt x="130" y="288" on="1"/>
        <pt x="31" y="288" on="1"/>
        <pt x="46" y="370" on="1"/>
      </contour>
      <contour>
        <pt x="349" y="78" on="1"/>
        <pt x="409" y="78" on="0"/>
        <pt x="501" y="117" on="0"/>
        <pt x="564" y="185" on="0"/>
        <pt x="597" y="276" on="0"/>
        <pt x="597" y="328" on="1"/>
        <pt x="597" y="382" on="0"/>
        <pt x="563" y="473" on="0"/>
        <pt x="498" y="539" on="0"/>
        <pt x="404" y="576" on="0"/>
        <pt x="344" y="576" on="1"/>
        <pt x="246" y="576" on="1"/>
        <pt x="244" y="547" on="0"/>
        <pt x="243" y="508" on="0"/>
        <pt x="241" y="468" on="0"/>
        <pt x="241" y="421" on="0"/>
        <pt x="241" y="385" on="1"/>
        <pt x="241" y="370" on="1"/>
        <pt x="375" y="370" on="1"/>
        <pt x="359" y="288" on="1"/>
        <pt x="241" y="288" on="1"/>
        <pt x="241" y="261" on="1"/>
        <pt x="241" y="201" on="0"/>
        <pt x="242" y="134" on="0"/>
        <pt x="244" y="117" on="1"/>
        <pt x="247" y="91" on="0"/>
        <pt x="267" y="78" on="0"/>
        <pt x="293" y="78" on="1"/>
      </contour>
    </TTGlyph>
    <TTGlyph name="Euro" xMin="40" yMin="-11" xMax="604" yMax="665">
      <contour>
        <pt x="140" y="442" on="1"/>
        <pt x="153" y="491" on="0"/>
        <pt x="200" y="573" on="0"/>
        <pt x="269" y="632" on="0"/>
        <pt x="358" y="665" on="0"/>
        <pt x="412" y="665" on="1"/>
        <pt x="428" y="665" on="0"/>
        <pt x="470" y="662" on="0"/>
        <pt x="515" y="653" on="0"/>
        <pt x="563" y="636" on="0"/>
        <pt x="585" y="623" on="1"/>
        <pt x="588" y="614" on="1"/>
        <pt x="575" y="503" on="1"/>
        <pt x="526" y="503" on="1"/>
        <pt x="523" y="507" on="1"/>
        <pt x="521" y="529" on="0"/>
        <pt x="499" y="560" on="0"/>
        <pt x="466" y="578" on="0"/>
        <pt x="426" y="586" on="0"/>
        <pt x="406" y="586" on="1"/>
        <pt x="376" y="586" on="0"/>
        <pt x="321" y="563" on="0"/>
        <pt x="302" y="542" on="1"/>
        <pt x="268" y="503" on="0"/>
        <pt x="255" y="442" on="1"/>
        <pt x="500" y="442" on="1"/>
        <pt x="484" y="360" on="1"/>
        <pt x="246" y="360" on="1"/>
        <pt x="246" y="328" on="1"/>
        <pt x="246" y="317" on="0"/>
        <pt x="247" y="297" on="0"/>
        <pt x="248" y="288" on="1"/>
        <pt x="494" y="288" on="1"/>
        <pt x="478" y="206" on="1"/>
        <pt x="263" y="206" on="1"/>
        <pt x="284" y="139" on="0"/>
        <pt x="370" y="71" on="0"/>
        <pt x="426" y="71" on="1"/>
        <pt x="460" y="71" on="0"/>
        <pt x="551" y="90" on="0"/>
        <pt x="592" y="117" on="1"/>
        <pt x="604" y="95" on="1"/>
        <pt x="580" y="51" on="1"/>
        <pt x="537" y="19" on="0"/>
        <pt x="453" y="-11" on="0"/>
        <pt x="408" y="-11" on="1"/>
        <pt x="308" y="-11" on="0"/>
        <pt x="167" y="105" on="0"/>
        <pt x="140" y="206" on="1"/>
        <pt x="40" y="206" on="1"/>
        <pt x="55" y="288" on="1"/>
        <pt x="127" y="288" on="1"/>
        <pt x="126" y="296" on="0"/>
        <pt x="126" y="315" on="0"/>
        <pt x="126" y="324" on="1"/>
        <pt x="126" y="333" on="0"/>
        <pt x="126" y="351" on="0"/>
        <pt x="127" y="360" on="1"/>
        <pt x="46" y="360" on="1"/>
        <pt x="61" y="442" on="1"/>
      </contour>
    </TTGlyph>
    <TTGlyph name="F" xMin="40" yMin="-6" xMax="512" yMax="660">
      <contour>
        <pt x="126" y="547" on="1"/>
        <pt x="124" y="576" on="0"/>
        <pt x="109" y="598" on="0"/>
        <pt x="101" y="604" on="1"/>
        <pt x="92" y="612" on="0"/>
        <pt x="64" y="614" on="0"/>
        <pt x="48" y="614" on="1"/>
        <pt x="43" y="618" on="1"/>
        <pt x="40" y="656" on="1"/>
        <pt x="42" y="660" on="1"/>
        <pt x="49" y="660" on="0"/>
        <pt x="81" y="658" on="0"/>
        <pt x="115" y="656" on="0"/>
        <pt x="147" y="654" on="0"/>
        <pt x="154" y="654" on="1"/>
        <pt x="328" y="654" on="1"/>
        <pt x="342" y="654" on="0"/>
        <pt x="397" y="655" on="0"/>
        <pt x="455" y="657" on="0"/>
        <pt x="501" y="658" on="0"/>
        <pt x="506" y="658" on="1"/>
        <pt x="512" y="648" on="1"/>
        <pt x="507" y="519" on="1"/>
        <pt x="462" y="519" on="1"/>
        <pt x="458" y="523" on="1"/>
        <pt x="456" y="542" on="0"/>
        <pt x="449" y="564" on="0"/>
        <pt x="419" y="574" on="0"/>
        <pt x="356" y="576" on="0"/>
        <pt x="300" y="576" on="1"/>
        <pt x="244" y="576" on="1"/>
        <pt x="242" y="537" on="1"/>
        <pt x="242" y="527" on="0"/>
        <pt x="241" y="510" on="0"/>
        <pt x="240" y="488" on="0"/>
        <pt x="239" y="455" on="0"/>
        <pt x="239" y="381" on="1"/>
        <pt x="263" y="382" on="0"/>
        <pt x="308" y="381" on="0"/>
        <pt x="345" y="383" on="0"/>
        <pt x="373" y="388" on="0"/>
        <pt x="379" y="394" on="1"/>
        <pt x="388" y="403" on="0"/>
        <pt x="388" y="423" on="1"/>
        <pt x="393" y="428" on="1"/>
        <pt x="430" y="430" on="1"/>
        <pt x="434" y="428" on="1"/>
        <pt x="433" y="415" on="0"/>
        <pt x="431" y="396" on="0"/>
        <pt x="430" y="378" on="0"/>
        <pt x="429" y="360" on="0"/>
        <pt x="429" y="348" on="1"/>
        <pt x="429" y="324" on="0"/>
        <pt x="432" y="281" on="0"/>
        <pt x="434" y="257" on="1"/>
        <pt x="430" y="255" on="1"/>
        <pt x="392" y="257" on="1"/>
        <pt x="388" y="260" on="1"/>
        <pt x="388" y="286" on="0"/>
        <pt x="378" y="299" on="1"/>
        <pt x="373" y="304" on="0"/>
        <pt x="347" y="310" on="0"/>
        <pt x="310" y="313" on="0"/>
        <pt x="263" y="313" on="0"/>
        <pt x="239" y="313" on="1"/>
        <pt x="239" y="251" on="1"/>
        <pt x="239" y="215" on="0"/>
        <pt x="239" y="170" on="0"/>
        <pt x="240" y="140" on="0"/>
        <pt x="241" y="119" on="0"/>
        <pt x="242" y="107" on="1"/>
        <pt x="244" y="78" on="0"/>
        <pt x="261" y="56" on="0"/>
        <pt x="269" y="50" on="1"/>
        <pt x="278" y="42" on="0"/>
        <pt x="313" y="40" on="0"/>
        <pt x="329" y="40" on="1"/>
        <pt x="334" y="36" on="1"/>
        <pt x="337" y="-2" on="1"/>
        <pt x="335" y="-6" on="1"/>
        <pt x="328" y="-6" on="0"/>
        <pt x="293" y="-4" on="0"/>
        <pt x="255" y="-2" on="0"/>
        <pt x="220" y="0" on="0"/>
        <pt x="213" y="0" on="1"/>
        <pt x="154" y="0" on="1"/>
        <pt x="147" y="0" on="0"/>
        <pt x="115" y="-2" on="0"/>
        <pt x="81" y="-4" on="0"/>
        <pt x="49" y="-6" on="0"/>
        <pt x="42" y="-6" on="1"/>
        <pt x="40" y="-2" on="1"/>
        <pt x="43" y="36" on="1"/>
        <pt x="48" y="40" on="1"/>
        <pt x="64" y="40" on="0"/>
        <pt x="92" y="43" on="0"/>
        <pt x="101" y="50" on="1"/>
        <pt x="109" y="57" on="0"/>
        <pt x="124" y="79" on="0"/>
        <pt x="126" y="107" on="1"/>
        <pt x="126" y="114" on="0"/>
        <pt x="127" y="133" on="0"/>
        <pt x="128" y="161" on="0"/>
        <pt x="128" y="201" on="0"/>
        <pt x="128" y="231" on="1"/>
        <pt x="128" y="394" on="1"/>
        <pt x="128" y="429" on="0"/>
        <pt x="128" y="477" on="0"/>
        <pt x="127" y="511" on="0"/>
        <pt x="126" y="535" on="0"/>
      </contour>
    </TTGlyph>
    <TTGlyph name="G" xMin="46" yMin="-11" xMax="674" yMax="665">
      <contour>
        <pt x="609" y="25" on="1"/>
        <pt x="559" y="10" on="0"/>
        <pt x="449" y="-11" on="0"/>
        <pt x="389" y="-11" on="1"/>
        <pt x="302" y="-11" on="0"/>
        <pt x="173" y="42" on="0"/>
        <pt x="88" y="134" on="0"/>
        <pt x="46" y="256" on="0"/>
        <pt x="46" y="324" on="1"/>
        <pt x="46" y="396" on="0"/>
        <pt x="91" y="520" on="0"/>
        <pt x="179" y="612" on="0"/>
        <pt x="309" y="665" on="0"/>
        <pt x="395" y="665" on="1"/>
        <pt x="414" y="665" on="0"/>
        <pt x="465" y="661" on="0"/>
        <pt x="521" y="651" on="0"/>
        <pt x="580" y="634" on="0"/>
        <pt x="607" y="621" on="1"/>
        <pt x="609" y="612" on="1"/>
        <pt x="592" y="503" on="1"/>
        <pt x="547" y="503" on="1"/>
        <pt x="543" y="506" on="1"/>
        <pt x="538" y="540" on="0"/>
        <pt x="467" y="583" on="0"/>
        <pt x="390" y="583" on="1"/>
        <pt x="342" y="583" on="0"/>
        <pt x="269" y="566" on="0"/>
        <pt x="238" y="542" on="1"/>
        <pt x="216" y="525" on="0"/>
        <pt x="188" y="478" on="0"/>
        <pt x="172" y="422" on="0"/>
        <pt x="166" y="360" on="0"/>
        <pt x="166" y="329" on="1"/>
        <pt x="166" y="268" on="0"/>
        <pt x="199" y="172" on="0"/>
        <pt x="257" y="106" on="0"/>
        <pt x="336" y="71" on="0"/>
        <pt x="382" y="71" on="1"/>
        <pt x="396" y="71" on="0"/>
        <pt x="429" y="74" on="0"/>
        <pt x="461" y="80" on="0"/>
        <pt x="486" y="88" on="0"/>
        <pt x="491" y="92" on="1"/>
        <pt x="497" y="95" on="0"/>
        <pt x="499" y="105" on="0"/>
        <pt x="499" y="113" on="1"/>
        <pt x="499" y="120" on="0"/>
        <pt x="499" y="152" on="0"/>
        <pt x="497" y="161" on="1"/>
        <pt x="495" y="187" on="0"/>
        <pt x="478" y="214" on="0"/>
        <pt x="472" y="218" on="1"/>
        <pt x="463" y="226" on="0"/>
        <pt x="427" y="228" on="0"/>
        <pt x="411" y="228" on="1"/>
        <pt x="406" y="232" on="1"/>
        <pt x="403" y="274" on="1"/>
        <pt x="405" y="278" on="1"/>
        <pt x="412" y="278" on="0"/>
        <pt x="443" y="276" on="0"/>
        <pt x="476" y="274" on="0"/>
        <pt x="507" y="272" on="0"/>
        <pt x="514" y="272" on="1"/>
        <pt x="584" y="272" on="1"/>
        <pt x="591" y="272" on="0"/>
        <pt x="615" y="274" on="0"/>
        <pt x="641" y="276" on="0"/>
        <pt x="665" y="278" on="0"/>
        <pt x="672" y="278" on="1"/>
        <pt x="674" y="274" on="1"/>
        <pt x="672" y="230" on="1"/>
        <pt x="667" y="226" on="1"/>
        <pt x="638" y="226" on="0"/>
        <pt x="615" y="193" on="0"/>
        <pt x="613" y="161" on="1"/>
        <pt x="611" y="141" on="0"/>
        <pt x="610" y="96" on="0"/>
        <pt x="610" y="85" on="1"/>
        <pt x="610" y="70" on="0"/>
        <pt x="611" y="35" on="0"/>
        <pt x="613" y="30" on="1"/>
      </contour>
    </TTGlyph>
    <TTGlyph name="H" xMin="40" yMin="-6" xMax="734" yMax="660">
      <contour>
        <pt x="732" y="-6" on="1"/>
        <pt x="725" y="-6" on="0"/>
        <pt x="693" y="-4" on="0"/>
        <pt x="659" y="-2" on="0"/>
        <pt x="627" y="0" on="0"/>
        <pt x="620" y="0" on="1"/>
        <pt x="561" y="0" on="1"/>
        <pt x="554" y="0" on="0"/>
        <pt x="522" y="-2" on="0"/>
        <pt x="488" y="-4" on="0"/>
        <pt x="456" y="-6" on="0"/>
        <pt x="449" y="-6" on="1"/>
        <pt x="447" y="-2" on="1"/>
        <pt x="450" y="36" on="1"/>
        <pt x="454" y="40" on="1"/>
        <pt x="470" y="40" on="0"/>
        <pt x="498" y="43" on="0"/>
        <pt x="508" y="50" on="1"/>
        <pt x="517" y="57" on="0"/>
        <pt x="527" y="79" on="0"/>
        <pt x="532" y="107" on="1"/>
        <pt x="533" y="114" on="0"/>
        <pt x="534" y="133" on="0"/>
        <pt x="535" y="161" on="0"/>
        <pt x="535" y="201" on="0"/>
        <pt x="535" y="231" on="1"/>
        <pt x="535" y="311" on="1"/>
        <pt x="239" y="311" on="1"/>
        <pt x="239" y="251" on="1"/>
        <pt x="239" y="215" on="0"/>
        <pt x="239" y="170" on="0"/>
        <pt x="240" y="140" on="0"/>
        <pt x="241" y="119" on="0"/>
        <pt x="242" y="107" on="1"/>
        <pt x="244" y="79" on="0"/>
        <pt x="258" y="57" on="0"/>
        <pt x="266" y="50" on="1"/>
        <pt x="275" y="43" on="0"/>
        <pt x="304" y="40" on="0"/>
        <pt x="320" y="40" on="1"/>
        <pt x="324" y="36" on="1"/>
        <pt x="327" y="-2" on="1"/>
        <pt x="325" y="-6" on="1"/>
        <pt x="318" y="-6" on="0"/>
        <pt x="286" y="-4" on="0"/>
        <pt x="252" y="-2" on="0"/>
        <pt x="220" y="0" on="0"/>
        <pt x="213" y="0" on="1"/>
        <pt x="154" y="0" on="1"/>
        <pt x="147" y="0" on="0"/>
        <pt x="115" y="-2" on="0"/>
        <pt x="81" y="-4" on="0"/>
        <pt x="49" y="-6" on="0"/>
        <pt x="42" y="-6" on="1"/>
        <pt x="40" y="-2" on="1"/>
        <pt x="43" y="36" on="1"/>
        <pt x="48" y="40" on="1"/>
        <pt x="64" y="40" on="0"/>
        <pt x="92" y="43" on="0"/>
        <pt x="101" y="50" on="1"/>
        <pt x="109" y="57" on="0"/>
        <pt x="124" y="79" on="0"/>
        <pt x="126" y="107" on="1"/>
        <pt x="126" y="114" on="0"/>
        <pt x="127" y="133" on="0"/>
        <pt x="128" y="161" on="0"/>
        <pt x="128" y="201" on="0"/>
        <pt x="128" y="231" on="1"/>
        <pt x="128" y="394" on="1"/>
        <pt x="128" y="429" on="0"/>
        <pt x="128" y="477" on="0"/>
        <pt x="127" y="511" on="0"/>
        <pt x="126" y="535" on="0"/>
        <pt x="125" y="547" on="1"/>
        <pt x="123" y="573" on="0"/>
        <pt x="109" y="597" on="0"/>
        <pt x="101" y="604" on="1"/>
        <pt x="92" y="611" on="0"/>
        <pt x="64" y="614" on="0"/>
        <pt x="48" y="614" on="1"/>
        <pt x="43" y="618" on="1"/>
        <pt x="40" y="656" on="1"/>
        <pt x="42" y="660" on="1"/>
        <pt x="49" y="660" on="0"/>
        <pt x="81" y="658" on="0"/>
        <pt x="115" y="656" on="0"/>
        <pt x="147" y="654" on="0"/>
        <pt x="154" y="654" on="1"/>
        <pt x="213" y="654" on="1"/>
        <pt x="220" y="654" on="0"/>
        <pt x="252" y="656" on="0"/>
        <pt x="286" y="658" on="0"/>
        <pt x="318" y="660" on="0"/>
        <pt x="325" y="660" on="1"/>
        <pt x="327" y="656" on="1"/>
        <pt x="324" y="618" on="1"/>
        <pt x="320" y="614" on="1"/>
        <pt x="306" y="614" on="0"/>
        <pt x="275" y="611" on="0"/>
        <pt x="266" y="604" on="1"/>
        <pt x="258" y="597" on="0"/>
        <pt x="243" y="575" on="0"/>
        <pt x="242" y="547" on="1"/>
        <pt x="241" y="533" on="0"/>
        <pt x="240" y="509" on="0"/>
        <pt x="239" y="477" on="0"/>
        <pt x="239" y="431" on="0"/>
        <pt x="239" y="395" on="1"/>
        <pt x="239" y="385" on="1"/>
        <pt x="535" y="385" on="1"/>
        <pt x="535" y="394" on="1"/>
        <pt x="535" y="429" on="0"/>
        <pt x="535" y="477" on="0"/>
        <pt x="534" y="511" on="0"/>
        <pt x="533" y="535" on="0"/>
        <pt x="532" y="547" on="1"/>
        <pt x="530" y="575" on="0"/>
        <pt x="516" y="597" on="0"/>
        <pt x="508" y="604" on="1"/>
        <pt x="499" y="611" on="0"/>
        <pt x="470" y="614" on="0"/>
        <pt x="454" y="614" on="1"/>
        <pt x="450" y="618" on="1"/>
        <pt x="447" y="656" on="1"/>
        <pt x="449" y="660" on="1"/>
        <pt x="456" y="660" on="0"/>
        <pt x="488" y="658" on="0"/>
        <pt x="522" y="656" on="0"/>
        <pt x="554" y="654" on="0"/>
        <pt x="561" y="654" on="1"/>
        <pt x="620" y="654" on="1"/>
        <pt x="627" y="654" on="0"/>
        <pt x="659" y="656" on="0"/>
        <pt x="693" y="658" on="0"/>
        <pt x="725" y="660" on="0"/>
        <pt x="732" y="660" on="1"/>
        <pt x="734" y="656" on="1"/>
        <pt x="731" y="618" on="1"/>
        <pt x="726" y="614" on="1"/>
        <pt x="710" y="614" on="0"/>
        <pt x="681" y="611" on="0"/>
        <pt x="673" y="604" on="1"/>
        <pt x="665" y="597" on="0"/>
        <pt x="652" y="575" on="0"/>
        <pt x="648" y="547" on="1"/>
        <pt x="647" y="533" on="0"/>
        <pt x="646" y="509" on="0"/>
        <pt x="646" y="477" on="0"/>
        <pt x="646" y="431" on="0"/>
        <pt x="646" y="395" on="1"/>
        <pt x="646" y="251" on="1"/>
        <pt x="646" y="215" on="0"/>
        <pt x="646" y="170" on="0"/>
        <pt x="646" y="140" on="0"/>
        <pt x="647" y="119" on="0"/>
        <pt x="648" y="107" on="1"/>
        <pt x="650" y="79" on="0"/>
        <pt x="665" y="57" on="0"/>
        <pt x="673" y="50" on="1"/>
        <pt x="682" y="43" on="0"/>
        <pt x="710" y="40" on="0"/>
        <pt x="726" y="40" on="1"/>
        <pt x="731" y="36" on="1"/>
        <pt x="734" y="-2" on="1"/>
      </contour>
    </TTGlyph>
    <TTGlyph name="I" xMin="40" yMin="-6" xMax="327" yMax="660">
      <contour>
        <pt x="327" y="656" on="1"/>
        <pt x="324" y="618" on="1"/>
        <pt x="320" y="614" on="1"/>
        <pt x="304" y="614" on="0"/>
        <pt x="276" y="611" on="0"/>
        <pt x="266" y="604" on="1"/>
        <pt x="257" y="597" on="0"/>
        <pt x="242" y="575" on="0"/>
        <pt x="242" y="547" on="1"/>
        <pt x="241" y="533" on="0"/>
        <pt x="240" y="509" on="0"/>
        <pt x="239" y="477" on="0"/>
        <pt x="239" y="431" on="0"/>
        <pt x="239" y="395" on="1"/>
        <pt x="239" y="251" on="1"/>
        <pt x="239" y="215" on="0"/>
        <pt x="239" y="170" on="0"/>
        <pt x="240" y="140" on="0"/>
        <pt x="241" y="119" on="0"/>
        <pt x="242" y="107" on="1"/>
        <pt x="244" y="79" on="0"/>
        <pt x="258" y="57" on="0"/>
        <pt x="266" y="50" on="1"/>
        <pt x="275" y="43" on="0"/>
        <pt x="304" y="40" on="0"/>
        <pt x="320" y="40" on="1"/>
        <pt x="324" y="36" on="1"/>
        <pt x="327" y="-2" on="1"/>
        <pt x="325" y="-6" on="1"/>
        <pt x="318" y="-6" on="0"/>
        <pt x="286" y="-4" on="0"/>
        <pt x="252" y="-2" on="0"/>
        <pt x="220" y="0" on="0"/>
        <pt x="213" y="0" on="1"/>
        <pt x="154" y="0" on="1"/>
        <pt x="147" y="0" on="0"/>
        <pt x="115" y="-2" on="0"/>
        <pt x="81" y="-4" on="0"/>
        <pt x="49" y="-6" on="0"/>
        <pt x="42" y="-6" on="1"/>
        <pt x="40" y="-2" on="1"/>
        <pt x="43" y="36" on="1"/>
        <pt x="48" y="40" on="1"/>
        <pt x="64" y="40" on="0"/>
        <pt x="93" y="43" on="0"/>
        <pt x="101" y="50" on="1"/>
        <pt x="109" y="57" on="0"/>
        <pt x="122" y="79" on="0"/>
        <pt x="126" y="107" on="1"/>
        <pt x="126" y="114" on="0"/>
        <pt x="127" y="133" on="0"/>
        <pt x="128" y="161" on="0"/>
        <pt x="128" y="201" on="0"/>
        <pt x="128" y="231" on="1"/>
        <pt x="128" y="394" on="1"/>
        <pt x="128" y="429" on="0"/>
        <pt x="128" y="477" on="0"/>
        <pt x="127" y="511" on="0"/>
        <pt x="126" y="535" on="0"/>
        <pt x="125" y="547" on="1"/>
        <pt x="123" y="573" on="0"/>
        <pt x="109" y="597" on="0"/>
        <pt x="101" y="604" on="1"/>
        <pt x="92" y="611" on="0"/>
        <pt x="64" y="614" on="0"/>
        <pt x="48" y="614" on="1"/>
        <pt x="43" y="618" on="1"/>
        <pt x="40" y="656" on="1"/>
        <pt x="42" y="660" on="1"/>
        <pt x="49" y="660" on="0"/>
        <pt x="81" y="658" on="0"/>
        <pt x="115" y="656" on="0"/>
        <pt x="147" y="654" on="0"/>
        <pt x="154" y="654" on="1"/>
        <pt x="213" y="654" on="1"/>
        <pt x="220" y="654" on="0"/>
        <pt x="252" y="656" on="0"/>
        <pt x="286" y="658" on="0"/>
        <pt x="318" y="660" on="0"/>
        <pt x="325" y="660" on="1"/>
      </contour>
    </TTGlyph>
    <TTGlyph name="IJ" xMin="40" yMin="-156" xMax="655" yMax="660">
      <contour>
        <pt x="327" y="656" on="1"/>
        <pt x="324" y="618" on="1"/>
        <pt x="320" y="614" on="1"/>
        <pt x="304" y="614" on="0"/>
        <pt x="276" y="611" on="0"/>
        <pt x="266" y="604" on="1"/>
        <pt x="257" y="597" on="0"/>
        <pt x="242" y="575" on="0"/>
        <pt x="242" y="547" on="1"/>
        <pt x="241" y="533" on="0"/>
        <pt x="240" y="509" on="0"/>
        <pt x="239" y="477" on="0"/>
        <pt x="239" y="431" on="0"/>
        <pt x="239" y="395" on="1"/>
        <pt x="239" y="251" on="1"/>
        <pt x="239" y="215" on="0"/>
        <pt x="239" y="170" on="0"/>
        <pt x="240" y="140" on="0"/>
        <pt x="241" y="119" on="0"/>
        <pt x="242" y="107" on="1"/>
        <pt x="244" y="79" on="0"/>
        <pt x="258" y="57" on="0"/>
        <pt x="266" y="50" on="1"/>
        <pt x="275" y="43" on="0"/>
        <pt x="304" y="40" on="0"/>
        <pt x="320" y="40" on="1"/>
        <pt x="324" y="36" on="1"/>
        <pt x="327" y="-2" on="1"/>
        <pt x="325" y="-6" on="1"/>
        <pt x="318" y="-6" on="0"/>
        <pt x="286" y="-4" on="0"/>
        <pt x="252" y="-2" on="0"/>
        <pt x="220" y="0" on="0"/>
        <pt x="213" y="0" on="1"/>
        <pt x="154" y="0" on="1"/>
        <pt x="147" y="0" on="0"/>
        <pt x="115" y="-2" on="0"/>
        <pt x="81" y="-4" on="0"/>
        <pt x="49" y="-6" on="0"/>
        <pt x="42" y="-6" on="1"/>
        <pt x="40" y="-2" on="1"/>
        <pt x="43" y="36" on="1"/>
        <pt x="48" y="40" on="1"/>
        <pt x="64" y="40" on="0"/>
        <pt x="93" y="43" on="0"/>
        <pt x="101" y="50" on="1"/>
        <pt x="109" y="57" on="0"/>
        <pt x="122" y="79" on="0"/>
        <pt x="126" y="107" on="1"/>
        <pt x="126" y="114" on="0"/>
        <pt x="127" y="133" on="0"/>
        <pt x="128" y="161" on="0"/>
        <pt x="128" y="201" on="0"/>
        <pt x="128" y="231" on="1"/>
        <pt x="128" y="394" on="1"/>
        <pt x="128" y="429" on="0"/>
        <pt x="128" y="477" on="0"/>
        <pt x="127" y="511" on="0"/>
        <pt x="126" y="535" on="0"/>
        <pt x="125" y="547" on="1"/>
        <pt x="123" y="573" on="0"/>
        <pt x="109" y="597" on="0"/>
        <pt x="101" y="604" on="1"/>
        <pt x="92" y="611" on="0"/>
        <pt x="64" y="614" on="0"/>
        <pt x="48" y="614" on="1"/>
        <pt x="43" y="618" on="1"/>
        <pt x="40" y="656" on="1"/>
        <pt x="42" y="660" on="1"/>
        <pt x="49" y="660" on="0"/>
        <pt x="81" y="658" on="0"/>
        <pt x="115" y="656" on="0"/>
        <pt x="147" y="654" on="0"/>
        <pt x="154" y="654" on="1"/>
        <pt x="213" y="654" on="1"/>
        <pt x="220" y="654" on="0"/>
        <pt x="252" y="656" on="0"/>
        <pt x="286" y="658" on="0"/>
        <pt x="318" y="660" on="0"/>
        <pt x="325" y="660" on="1"/>
      </contour>
      <contour>
        <pt x="655" y="656" on="1"/>
        <pt x="652" y="618" on="1"/>
        <pt x="648" y="614" on="1"/>
        <pt x="632" y="614" on="0"/>
        <pt x="604" y="611" on="0"/>
        <pt x="594" y="604" on="1"/>
        <pt x="585" y="597" on="0"/>
        <pt x="570" y="575" on="0"/>
        <pt x="570" y="547" on="1"/>
        <pt x="569" y="535" on="0"/>
        <pt x="568" y="514" on="0"/>
        <pt x="567" y="486" on="0"/>
        <pt x="567" y="446" on="0"/>
        <pt x="567" y="415" on="1"/>
        <pt x="567" y="231" on="1"/>
        <pt x="567" y="195" on="0"/>
        <pt x="567" y="146" on="0"/>
        <pt x="566" y="112" on="0"/>
        <pt x="566" y="87" on="0"/>
        <pt x="566" y="76" on="1"/>
        <pt x="565" y="-34" on="0"/>
        <pt x="487" y="-142" on="0"/>
        <pt x="415" y="-153" on="1"/>
        <pt x="404" y="-155" on="0"/>
        <pt x="379" y="-156" on="0"/>
        <pt x="369" y="-156" on="1"/>
        <pt x="361" y="-153" on="1"/>
        <pt x="359" y="-101" on="1"/>
        <pt x="363" y="-96" on="1"/>
        <pt x="368" y="-96" on="0"/>
        <pt x="398" y="-95" on="0"/>
        <pt x="403" y="-95" on="1"/>
        <pt x="421" y="-95" on="0"/>
        <pt x="442" y="-67" on="0"/>
        <pt x="447" y="-49" on="1"/>
        <pt x="450" y="-37" on="0"/>
        <pt x="454" y="23" on="0"/>
        <pt x="456" y="99" on="0"/>
        <pt x="456" y="179" on="0"/>
        <pt x="456" y="211" on="1"/>
        <pt x="456" y="414" on="1"/>
        <pt x="456" y="444" on="0"/>
        <pt x="456" y="486" on="0"/>
        <pt x="455" y="516" on="0"/>
        <pt x="454" y="537" on="0"/>
        <pt x="453" y="547" on="1"/>
        <pt x="451" y="574" on="0"/>
        <pt x="437" y="598" on="0"/>
        <pt x="429" y="604" on="1"/>
        <pt x="420" y="612" on="0"/>
        <pt x="392" y="614" on="0"/>
        <pt x="376" y="614" on="1"/>
        <pt x="371" y="618" on="1"/>
        <pt x="368" y="656" on="1"/>
        <pt x="370" y="660" on="1"/>
        <pt x="377" y="660" on="0"/>
        <pt x="409" y="658" on="0"/>
        <pt x="443" y="656" on="0"/>
        <pt x="475" y="654" on="0"/>
        <pt x="482" y="654" on="1"/>
        <pt x="541" y="654" on="1"/>
        <pt x="548" y="654" on="0"/>
        <pt x="580" y="656" on="0"/>
        <pt x="614" y="658" on="0"/>
        <pt x="646" y="660" on="0"/>
        <pt x="653" y="660" on="1"/>
      </contour>
    </TTGlyph>
    <TTGlyph name="Iacute" xMin="40" yMin="-6" xMax="327" yMax="850">
      <contour>
        <pt x="327" y="656" on="1"/>
        <pt x="324" y="618" on="1"/>
        <pt x="320" y="614" on="1"/>
        <pt x="304" y="614" on="0"/>
        <pt x="276" y="611" on="0"/>
        <pt x="266" y="604" on="1"/>
        <pt x="257" y="597" on="0"/>
        <pt x="242" y="575" on="0"/>
        <pt x="242" y="547" on="1"/>
        <pt x="241" y="533" on="0"/>
        <pt x="240" y="509" on="0"/>
        <pt x="239" y="477" on="0"/>
        <pt x="239" y="431" on="0"/>
        <pt x="239" y="395" on="1"/>
        <pt x="239" y="251" on="1"/>
        <pt x="239" y="215" on="0"/>
        <pt x="239" y="170" on="0"/>
        <pt x="240" y="140" on="0"/>
        <pt x="241" y="119" on="0"/>
        <pt x="242" y="107" on="1"/>
        <pt x="244" y="79" on="0"/>
        <pt x="258" y="57" on="0"/>
        <pt x="266" y="50" on="1"/>
        <pt x="275" y="43" on="0"/>
        <pt x="304" y="40" on="0"/>
        <pt x="320" y="40" on="1"/>
        <pt x="324" y="36" on="1"/>
        <pt x="327" y="-2" on="1"/>
        <pt x="325" y="-6" on="1"/>
        <pt x="318" y="-6" on="0"/>
        <pt x="286" y="-4" on="0"/>
        <pt x="252" y="-2" on="0"/>
        <pt x="220" y="0" on="0"/>
        <pt x="213" y="0" on="1"/>
        <pt x="154" y="0" on="1"/>
        <pt x="147" y="0" on="0"/>
        <pt x="115" y="-2" on="0"/>
        <pt x="81" y="-4" on="0"/>
        <pt x="49" y="-6" on="0"/>
        <pt x="42" y="-6" on="1"/>
        <pt x="40" y="-2" on="1"/>
        <pt x="43" y="36" on="1"/>
        <pt x="48" y="40" on="1"/>
        <pt x="64" y="40" on="0"/>
        <pt x="93" y="43" on="0"/>
        <pt x="101" y="50" on="1"/>
        <pt x="109" y="57" on="0"/>
        <pt x="122" y="79" on="0"/>
        <pt x="126" y="107" on="1"/>
        <pt x="126" y="114" on="0"/>
        <pt x="127" y="133" on="0"/>
        <pt x="128" y="161" on="0"/>
        <pt x="128" y="201" on="0"/>
        <pt x="128" y="231" on="1"/>
        <pt x="128" y="394" on="1"/>
        <pt x="128" y="429" on="0"/>
        <pt x="128" y="477" on="0"/>
        <pt x="127" y="511" on="0"/>
        <pt x="126" y="535" on="0"/>
        <pt x="125" y="547" on="1"/>
        <pt x="123" y="573" on="0"/>
        <pt x="109" y="597" on="0"/>
        <pt x="101" y="604" on="1"/>
        <pt x="92" y="611" on="0"/>
        <pt x="64" y="614" on="0"/>
        <pt x="48" y="614" on="1"/>
        <pt x="43" y="618" on="1"/>
        <pt x="40" y="656" on="1"/>
        <pt x="42" y="660" on="1"/>
        <pt x="49" y="660" on="0"/>
        <pt x="81" y="658" on="0"/>
        <pt x="115" y="656" on="0"/>
        <pt x="147" y="654" on="0"/>
        <pt x="154" y="654" on="1"/>
        <pt x="213" y="654" on="1"/>
        <pt x="220" y="654" on="0"/>
        <pt x="252" y="656" on="0"/>
        <pt x="286" y="658" on="0"/>
        <pt x="318" y="660" on="0"/>
        <pt x="325" y="660" on="1"/>
      </contour>
      <contour>
        <pt x="94" y="692" on="1"/>
        <pt x="68" y="742" on="1"/>
        <pt x="71" y="749" on="1"/>
        <pt x="252" y="850" on="1"/>
        <pt x="280" y="848" on="0"/>
        <pt x="307" y="811" on="0"/>
        <pt x="307" y="785" on="1"/>
        <pt x="307" y="775" on="0"/>
        <pt x="303" y="766" on="1"/>
        <pt x="102" y="689" on="1"/>
      </contour>
    </TTGlyph>
    <TTGlyph name="Icircumflex" xMin="40" yMin="-6" xMax="327" yMax="850">
      <contour>
        <pt x="327" y="656" on="1"/>
        <pt x="324" y="618" on="1"/>
        <pt x="320" y="614" on="1"/>
        <pt x="304" y="614" on="0"/>
        <pt x="276" y="611" on="0"/>
        <pt x="266" y="604" on="1"/>
        <pt x="257" y="597" on="0"/>
        <pt x="242" y="575" on="0"/>
        <pt x="242" y="547" on="1"/>
        <pt x="241" y="533" on="0"/>
        <pt x="240" y="509" on="0"/>
        <pt x="239" y="477" on="0"/>
        <pt x="239" y="431" on="0"/>
        <pt x="239" y="395" on="1"/>
        <pt x="239" y="251" on="1"/>
        <pt x="239" y="215" on="0"/>
        <pt x="239" y="170" on="0"/>
        <pt x="240" y="140" on="0"/>
        <pt x="241" y="119" on="0"/>
        <pt x="242" y="107" on="1"/>
        <pt x="244" y="79" on="0"/>
        <pt x="258" y="57" on="0"/>
        <pt x="266" y="50" on="1"/>
        <pt x="275" y="43" on="0"/>
        <pt x="304" y="40" on="0"/>
        <pt x="320" y="40" on="1"/>
        <pt x="324" y="36" on="1"/>
        <pt x="327" y="-2" on="1"/>
        <pt x="325" y="-6" on="1"/>
        <pt x="318" y="-6" on="0"/>
        <pt x="286" y="-4" on="0"/>
        <pt x="252" y="-2" on="0"/>
        <pt x="220" y="0" on="0"/>
        <pt x="213" y="0" on="1"/>
        <pt x="154" y="0" on="1"/>
        <pt x="147" y="0" on="0"/>
        <pt x="115" y="-2" on="0"/>
        <pt x="81" y="-4" on="0"/>
        <pt x="49" y="-6" on="0"/>
        <pt x="42" y="-6" on="1"/>
        <pt x="40" y="-2" on="1"/>
        <pt x="43" y="36" on="1"/>
        <pt x="48" y="40" on="1"/>
        <pt x="64" y="40" on="0"/>
        <pt x="93" y="43" on="0"/>
        <pt x="101" y="50" on="1"/>
        <pt x="109" y="57" on="0"/>
        <pt x="122" y="79" on="0"/>
        <pt x="126" y="107" on="1"/>
        <pt x="126" y="114" on="0"/>
        <pt x="127" y="133" on="0"/>
        <pt x="128" y="161" on="0"/>
        <pt x="128" y="201" on="0"/>
        <pt x="128" y="231" on="1"/>
        <pt x="128" y="394" on="1"/>
        <pt x="128" y="429" on="0"/>
        <pt x="128" y="477" on="0"/>
        <pt x="127" y="511" on="0"/>
        <pt x="126" y="535" on="0"/>
        <pt x="125" y="547" on="1"/>
        <pt x="123" y="573" on="0"/>
        <pt x="109" y="597" on="0"/>
        <pt x="101" y="604" on="1"/>
        <pt x="92" y="611" on="0"/>
        <pt x="64" y="614" on="0"/>
        <pt x="48" y="614" on="1"/>
        <pt x="43" y="618" on="1"/>
        <pt x="40" y="656" on="1"/>
        <pt x="42" y="660" on="1"/>
        <pt x="49" y="660" on="0"/>
        <pt x="81" y="658" on="0"/>
        <pt x="115" y="656" on="0"/>
        <pt x="147" y="654" on="0"/>
        <pt x="154" y="654" on="1"/>
        <pt x="213" y="654" on="1"/>
        <pt x="220" y="654" on="0"/>
        <pt x="252" y="656" on="0"/>
        <pt x="286" y="658" on="0"/>
        <pt x="318" y="660" on="0"/>
        <pt x="325" y="660" on="1"/>
      </contour>
      <contour>
        <pt x="186" y="850" on="1"/>
        <pt x="296" y="751" on="1"/>
        <pt x="299" y="744" on="1"/>
        <pt x="290" y="715" on="1"/>
        <pt x="283" y="712" on="1"/>
        <pt x="182" y="753" on="1"/>
        <pt x="81" y="712" on="1"/>
        <pt x="74" y="715" on="1"/>
        <pt x="65" y="744" on="1"/>
        <pt x="68" y="751" on="1"/>
        <pt x="178" y="850" on="1"/>
      </contour>
    </TTGlyph>
    <TTGlyph name="Idieresis" xMin="37" yMin="-6" xMax="327" yMax="851">
      <contour>
        <pt x="327" y="656" on="1"/>
        <pt x="324" y="618" on="1"/>
        <pt x="320" y="614" on="1"/>
        <pt x="304" y="614" on="0"/>
        <pt x="276" y="611" on="0"/>
        <pt x="266" y="604" on="1"/>
        <pt x="257" y="597" on="0"/>
        <pt x="242" y="575" on="0"/>
        <pt x="242" y="547" on="1"/>
        <pt x="241" y="533" on="0"/>
        <pt x="240" y="509" on="0"/>
        <pt x="239" y="477" on="0"/>
        <pt x="239" y="431" on="0"/>
        <pt x="239" y="395" on="1"/>
        <pt x="239" y="251" on="1"/>
        <pt x="239" y="215" on="0"/>
        <pt x="239" y="170" on="0"/>
        <pt x="240" y="140" on="0"/>
        <pt x="241" y="119" on="0"/>
        <pt x="242" y="107" on="1"/>
        <pt x="244" y="79" on="0"/>
        <pt x="258" y="57" on="0"/>
        <pt x="266" y="50" on="1"/>
        <pt x="275" y="43" on="0"/>
        <pt x="304" y="40" on="0"/>
        <pt x="320" y="40" on="1"/>
        <pt x="324" y="36" on="1"/>
        <pt x="327" y="-2" on="1"/>
        <pt x="325" y="-6" on="1"/>
        <pt x="318" y="-6" on="0"/>
        <pt x="286" y="-4" on="0"/>
        <pt x="252" y="-2" on="0"/>
        <pt x="220" y="0" on="0"/>
        <pt x="213" y="0" on="1"/>
        <pt x="154" y="0" on="1"/>
        <pt x="147" y="0" on="0"/>
        <pt x="115" y="-2" on="0"/>
        <pt x="81" y="-4" on="0"/>
        <pt x="49" y="-6" on="0"/>
        <pt x="42" y="-6" on="1"/>
        <pt x="40" y="-2" on="1"/>
        <pt x="43" y="36" on="1"/>
        <pt x="48" y="40" on="1"/>
        <pt x="64" y="40" on="0"/>
        <pt x="93" y="43" on="0"/>
        <pt x="101" y="50" on="1"/>
        <pt x="109" y="57" on="0"/>
        <pt x="122" y="79" on="0"/>
        <pt x="126" y="107" on="1"/>
        <pt x="126" y="114" on="0"/>
        <pt x="127" y="133" on="0"/>
        <pt x="128" y="161" on="0"/>
        <pt x="128" y="201" on="0"/>
        <pt x="128" y="231" on="1"/>
        <pt x="128" y="394" on="1"/>
        <pt x="128" y="429" on="0"/>
        <pt x="128" y="477" on="0"/>
        <pt x="127" y="511" on="0"/>
        <pt x="126" y="535" on="0"/>
        <pt x="125" y="547" on="1"/>
        <pt x="123" y="573" on="0"/>
        <pt x="109" y="597" on="0"/>
        <pt x="101" y="604" on="1"/>
        <pt x="92" y="611" on="0"/>
        <pt x="64" y="614" on="0"/>
        <pt x="48" y="614" on="1"/>
        <pt x="43" y="618" on="1"/>
        <pt x="40" y="656" on="1"/>
        <pt x="42" y="660" on="1"/>
        <pt x="49" y="660" on="0"/>
        <pt x="81" y="658" on="0"/>
        <pt x="115" y="656" on="0"/>
        <pt x="147" y="654" on="0"/>
        <pt x="154" y="654" on="1"/>
        <pt x="213" y="654" on="1"/>
        <pt x="220" y="654" on="0"/>
        <pt x="252" y="656" on="0"/>
        <pt x="286" y="658" on="0"/>
        <pt x="318" y="660" on="0"/>
        <pt x="325" y="660" on="1"/>
      </contour>
      <contour>
        <pt x="37" y="785" on="1"/>
        <pt x="37" y="797" on="0"/>
        <pt x="47" y="821" on="0"/>
        <pt x="65" y="840" on="0"/>
        <pt x="88" y="851" on="0"/>
        <pt x="101" y="851" on="1"/>
        <pt x="126" y="851" on="0"/>
        <pt x="167" y="810" on="0"/>
        <pt x="167" y="785" on="1"/>
        <pt x="167" y="772" on="0"/>
        <pt x="156" y="749" on="0"/>
        <pt x="137" y="731" on="0"/>
        <pt x="113" y="721" on="0"/>
        <pt x="101" y="721" on="1"/>
        <pt x="75" y="721" on="0"/>
        <pt x="37" y="759" on="0"/>
      </contour>
      <contour>
        <pt x="197" y="785" on="1"/>
        <pt x="197" y="797" on="0"/>
        <pt x="207" y="821" on="0"/>
        <pt x="225" y="840" on="0"/>
        <pt x="248" y="851" on="0"/>
        <pt x="261" y="851" on="1"/>
        <pt x="286" y="851" on="0"/>
        <pt x="327" y="810" on="0"/>
        <pt x="327" y="785" on="1"/>
        <pt x="327" y="772" on="0"/>
        <pt x="316" y="749" on="0"/>
        <pt x="297" y="731" on="0"/>
        <pt x="273" y="721" on="0"/>
        <pt x="261" y="721" on="1"/>
        <pt x="235" y="721" on="0"/>
        <pt x="197" y="759" on="0"/>
      </contour>
    </TTGlyph>
    <TTGlyph name="Igrave" xMin="40" yMin="-6" xMax="327" yMax="849">
      <contour>
        <pt x="327" y="656" on="1"/>
        <pt x="324" y="618" on="1"/>
        <pt x="320" y="614" on="1"/>
        <pt x="304" y="614" on="0"/>
        <pt x="276" y="611" on="0"/>
        <pt x="266" y="604" on="1"/>
        <pt x="257" y="597" on="0"/>
        <pt x="242" y="575" on="0"/>
        <pt x="242" y="547" on="1"/>
        <pt x="241" y="533" on="0"/>
        <pt x="240" y="509" on="0"/>
        <pt x="239" y="477" on="0"/>
        <pt x="239" y="431" on="0"/>
        <pt x="239" y="395" on="1"/>
        <pt x="239" y="251" on="1"/>
        <pt x="239" y="215" on="0"/>
        <pt x="239" y="170" on="0"/>
        <pt x="240" y="140" on="0"/>
        <pt x="241" y="119" on="0"/>
        <pt x="242" y="107" on="1"/>
        <pt x="244" y="79" on="0"/>
        <pt x="258" y="57" on="0"/>
        <pt x="266" y="50" on="1"/>
        <pt x="275" y="43" on="0"/>
        <pt x="304" y="40" on="0"/>
        <pt x="320" y="40" on="1"/>
        <pt x="324" y="36" on="1"/>
        <pt x="327" y="-2" on="1"/>
        <pt x="325" y="-6" on="1"/>
        <pt x="318" y="-6" on="0"/>
        <pt x="286" y="-4" on="0"/>
        <pt x="252" y="-2" on="0"/>
        <pt x="220" y="0" on="0"/>
        <pt x="213" y="0" on="1"/>
        <pt x="154" y="0" on="1"/>
        <pt x="147" y="0" on="0"/>
        <pt x="115" y="-2" on="0"/>
        <pt x="81" y="-4" on="0"/>
        <pt x="49" y="-6" on="0"/>
        <pt x="42" y="-6" on="1"/>
        <pt x="40" y="-2" on="1"/>
        <pt x="43" y="36" on="1"/>
        <pt x="48" y="40" on="1"/>
        <pt x="64" y="40" on="0"/>
        <pt x="93" y="43" on="0"/>
        <pt x="101" y="50" on="1"/>
        <pt x="109" y="57" on="0"/>
        <pt x="122" y="79" on="0"/>
        <pt x="126" y="107" on="1"/>
        <pt x="126" y="114" on="0"/>
        <pt x="127" y="133" on="0"/>
        <pt x="128" y="161" on="0"/>
        <pt x="128" y="201" on="0"/>
        <pt x="128" y="231" on="1"/>
        <pt x="128" y="394" on="1"/>
        <pt x="128" y="429" on="0"/>
        <pt x="128" y="477" on="0"/>
        <pt x="127" y="511" on="0"/>
        <pt x="126" y="535" on="0"/>
        <pt x="125" y="547" on="1"/>
        <pt x="123" y="573" on="0"/>
        <pt x="109" y="597" on="0"/>
        <pt x="101" y="604" on="1"/>
        <pt x="92" y="611" on="0"/>
        <pt x="64" y="614" on="0"/>
        <pt x="48" y="614" on="1"/>
        <pt x="43" y="618" on="1"/>
        <pt x="40" y="656" on="1"/>
        <pt x="42" y="660" on="1"/>
        <pt x="49" y="660" on="0"/>
        <pt x="81" y="658" on="0"/>
        <pt x="115" y="656" on="0"/>
        <pt x="147" y="654" on="0"/>
        <pt x="154" y="654" on="1"/>
        <pt x="213" y="654" on="1"/>
        <pt x="220" y="654" on="0"/>
        <pt x="252" y="656" on="0"/>
        <pt x="286" y="658" on="0"/>
        <pt x="318" y="660" on="0"/>
        <pt x="325" y="660" on="1"/>
      </contour>
      <contour>
        <pt x="267" y="688" on="1"/>
        <pt x="66" y="765" on="1"/>
        <pt x="62" y="774" on="0"/>
        <pt x="62" y="784" on="1"/>
        <pt x="62" y="810" on="0"/>
        <pt x="89" y="847" on="0"/>
        <pt x="117" y="849" on="1"/>
        <pt x="298" y="748" on="1"/>
        <pt x="301" y="741" on="1"/>
        <pt x="275" y="691" on="1"/>
      </contour>
    </TTGlyph>
    <TTGlyph name="J" xMin="21" yMin="-156" xMax="317" yMax="660">
      <contour>
        <pt x="317" y="656" on="1"/>
        <pt x="314" y="618" on="1"/>
        <pt x="310" y="614" on="1"/>
        <pt x="294" y="614" on="0"/>
        <pt x="266" y="611" on="0"/>
        <pt x="256" y="604" on="1"/>
        <pt x="247" y="597" on="0"/>
        <pt x="232" y="575" on="0"/>
        <pt x="232" y="547" on="1"/>
        <pt x="231" y="535" on="0"/>
        <pt x="230" y="514" on="0"/>
        <pt x="229" y="486" on="0"/>
        <pt x="229" y="446" on="0"/>
        <pt x="229" y="415" on="1"/>
        <pt x="229" y="231" on="1"/>
        <pt x="229" y="195" on="0"/>
        <pt x="229" y="146" on="0"/>
        <pt x="228" y="112" on="0"/>
        <pt x="228" y="87" on="0"/>
        <pt x="228" y="76" on="1"/>
        <pt x="227" y="-34" on="0"/>
        <pt x="149" y="-142" on="0"/>
        <pt x="77" y="-153" on="1"/>
        <pt x="66" y="-155" on="0"/>
        <pt x="41" y="-156" on="0"/>
        <pt x="31" y="-156" on="1"/>
        <pt x="23" y="-153" on="1"/>
        <pt x="21" y="-101" on="1"/>
        <pt x="25" y="-96" on="1"/>
        <pt x="30" y="-96" on="0"/>
        <pt x="60" y="-95" on="0"/>
        <pt x="65" y="-95" on="1"/>
        <pt x="83" y="-95" on="0"/>
        <pt x="104" y="-67" on="0"/>
        <pt x="109" y="-49" on="1"/>
        <pt x="112" y="-37" on="0"/>
        <pt x="116" y="23" on="0"/>
        <pt x="118" y="99" on="0"/>
        <pt x="118" y="179" on="0"/>
        <pt x="118" y="211" on="1"/>
        <pt x="118" y="414" on="1"/>
        <pt x="118" y="444" on="0"/>
        <pt x="118" y="486" on="0"/>
        <pt x="117" y="516" on="0"/>
        <pt x="116" y="537" on="0"/>
        <pt x="115" y="547" on="1"/>
        <pt x="113" y="574" on="0"/>
        <pt x="99" y="598" on="0"/>
        <pt x="91" y="604" on="1"/>
        <pt x="82" y="612" on="0"/>
        <pt x="54" y="614" on="0"/>
        <pt x="38" y="614" on="1"/>
        <pt x="33" y="618" on="1"/>
        <pt x="30" y="656" on="1"/>
        <pt x="32" y="660" on="1"/>
        <pt x="39" y="660" on="0"/>
        <pt x="71" y="658" on="0"/>
        <pt x="105" y="656" on="0"/>
        <pt x="137" y="654" on="0"/>
        <pt x="144" y="654" on="1"/>
        <pt x="203" y="654" on="1"/>
        <pt x="210" y="654" on="0"/>
        <pt x="242" y="656" on="0"/>
        <pt x="276" y="658" on="0"/>
        <pt x="308" y="660" on="0"/>
        <pt x="315" y="660" on="1"/>
      </contour>
    </TTGlyph>
    <TTGlyph name="K" xMin="40" yMin="-10" xMax="706" yMax="661">
      <contour>
        <pt x="580" y="592" on="1"/>
        <pt x="571" y="586" on="0"/>
        <pt x="536" y="554" on="0"/>
        <pt x="494" y="511" on="0"/>
        <pt x="447" y="461" on="0"/>
        <pt x="425" y="438" on="1"/>
        <pt x="357" y="366" on="1"/>
        <pt x="395" y="310" on="0"/>
        <pt x="466" y="197" on="0"/>
        <pt x="513" y="145" on="1"/>
        <pt x="533" y="122" on="0"/>
        <pt x="572" y="87" on="0"/>
        <pt x="616" y="62" on="0"/>
        <pt x="666" y="45" on="0"/>
        <pt x="698" y="40" on="1"/>
        <pt x="704" y="36" on="1"/>
        <pt x="706" y="-2" on="1"/>
        <pt x="704" y="-6" on="1"/>
        <pt x="689" y="-6" on="0"/>
        <pt x="655" y="-7" on="0"/>
        <pt x="620" y="-9" on="0"/>
        <pt x="590" y="-10" on="0"/>
        <pt x="580" y="-10" on="1"/>
        <pt x="554" y="-10" on="0"/>
        <pt x="510" y="3" on="0"/>
        <pt x="469" y="33" on="0"/>
        <pt x="427" y="83" on="0"/>
        <pt x="402" y="119" on="1"/>
        <pt x="396" y="128" on="0"/>
        <pt x="367" y="173" on="0"/>
        <pt x="333" y="227" on="0"/>
        <pt x="299" y="282" on="0"/>
        <pt x="286" y="302" on="1"/>
        <pt x="274" y="291" on="0"/>
        <pt x="250" y="270" on="0"/>
        <pt x="239" y="259" on="1"/>
        <pt x="239" y="251" on="1"/>
        <pt x="239" y="209" on="0"/>
        <pt x="239" y="164" on="0"/>
        <pt x="240" y="137" on="0"/>
        <pt x="241" y="120" on="0"/>
        <pt x="242" y="107" on="1"/>
        <pt x="244" y="78" on="0"/>
        <pt x="258" y="56" on="0"/>
        <pt x="266" y="50" on="1"/>
        <pt x="275" y="42" on="0"/>
        <pt x="304" y="40" on="0"/>
        <pt x="320" y="40" on="1"/>
        <pt x="324" y="36" on="1"/>
        <pt x="327" y="-2" on="1"/>
        <pt x="325" y="-6" on="1"/>
        <pt x="318" y="-6" on="0"/>
        <pt x="286" y="-4" on="0"/>
        <pt x="252" y="-2" on="0"/>
        <pt x="220" y="0" on="0"/>
        <pt x="213" y="0" on="1"/>
        <pt x="154" y="0" on="1"/>
        <pt x="147" y="0" on="0"/>
        <pt x="115" y="-2" on="0"/>
        <pt x="81" y="-4" on="0"/>
        <pt x="49" y="-6" on="0"/>
        <pt x="42" y="-6" on="1"/>
        <pt x="40" y="-2" on="1"/>
        <pt x="43" y="36" on="1"/>
        <pt x="48" y="40" on="1"/>
        <pt x="64" y="40" on="0"/>
        <pt x="92" y="43" on="0"/>
        <pt x="101" y="50" on="1"/>
        <pt x="109" y="57" on="0"/>
        <pt x="124" y="79" on="0"/>
        <pt x="126" y="107" on="1"/>
        <pt x="126" y="114" on="0"/>
        <pt x="127" y="133" on="0"/>
        <pt x="128" y="161" on="0"/>
        <pt x="128" y="201" on="0"/>
        <pt x="128" y="231" on="1"/>
        <pt x="128" y="394" on="1"/>
        <pt x="128" y="429" on="0"/>
        <pt x="128" y="477" on="0"/>
        <pt x="128" y="511" on="0"/>
        <pt x="127" y="535" on="0"/>
        <pt x="126" y="547" on="1"/>
        <pt x="124" y="574" on="0"/>
        <pt x="109" y="598" on="0"/>
        <pt x="101" y="604" on="1"/>
        <pt x="92" y="612" on="0"/>
        <pt x="64" y="614" on="0"/>
        <pt x="48" y="614" on="1"/>
        <pt x="43" y="618" on="1"/>
        <pt x="40" y="656" on="1"/>
        <pt x="42" y="660" on="1"/>
        <pt x="49" y="660" on="0"/>
        <pt x="81" y="658" on="0"/>
        <pt x="115" y="656" on="0"/>
        <pt x="147" y="654" on="0"/>
        <pt x="154" y="654" on="1"/>
        <pt x="213" y="654" on="1"/>
        <pt x="220" y="654" on="0"/>
        <pt x="252" y="656" on="0"/>
        <pt x="286" y="658" on="0"/>
        <pt x="318" y="660" on="0"/>
        <pt x="325" y="660" on="1"/>
        <pt x="327" y="656" on="1"/>
        <pt x="324" y="618" on="1"/>
        <pt x="320" y="614" on="1"/>
        <pt x="306" y="614" on="0"/>
        <pt x="275" y="611" on="0"/>
        <pt x="266" y="604" on="1"/>
        <pt x="258" y="597" on="0"/>
        <pt x="243" y="575" on="0"/>
        <pt x="242" y="547" on="1"/>
        <pt x="241" y="535" on="0"/>
        <pt x="240" y="512" on="0"/>
        <pt x="239" y="481" on="0"/>
        <pt x="239" y="440" on="0"/>
        <pt x="239" y="411" on="1"/>
        <pt x="239" y="363" on="1"/>
        <pt x="259" y="373" on="0"/>
        <pt x="311" y="414" on="0"/>
        <pt x="337" y="438" on="1"/>
        <pt x="356" y="456" on="0"/>
        <pt x="396" y="499" on="0"/>
        <pt x="429" y="539" on="0"/>
        <pt x="449" y="571" on="0"/>
        <pt x="449" y="577" on="1"/>
        <pt x="449" y="588" on="0"/>
        <pt x="440" y="601" on="0"/>
        <pt x="425" y="609" on="0"/>
        <pt x="405" y="613" on="0"/>
        <pt x="395" y="615" on="1"/>
        <pt x="390" y="619" on="1"/>
        <pt x="390" y="657" on="1"/>
        <pt x="395" y="661" on="1"/>
        <pt x="415" y="657" on="0"/>
        <pt x="460" y="655" on="0"/>
        <pt x="483" y="655" on="1"/>
        <pt x="572" y="655" on="1"/>
        <pt x="584" y="655" on="0"/>
        <pt x="601" y="655" on="0"/>
        <pt x="618" y="657" on="0"/>
        <pt x="638" y="659" on="0"/>
        <pt x="652" y="661" on="1"/>
        <pt x="656" y="657" on="1"/>
        <pt x="656" y="619" on="1"/>
        <pt x="652" y="615" on="1"/>
        <pt x="638" y="613" on="0"/>
        <pt x="595" y="601" on="0"/>
      </contour>
    </TTGlyph>
    <TTGlyph name="L" xMin="40" yMin="-6" xMax="519" yMax="660">
      <contour>
        <pt x="125" y="547" on="1"/>
        <pt x="123" y="564" on="0"/>
        <pt x="112" y="597" on="0"/>
        <pt x="101" y="605" on="1"/>
        <pt x="93" y="610" on="0"/>
        <pt x="69" y="614" on="0"/>
        <pt x="48" y="614" on="1"/>
        <pt x="43" y="618" on="1"/>
        <pt x="40" y="656" on="1"/>
        <pt x="42" y="660" on="1"/>
        <pt x="51" y="659" on="0"/>
        <pt x="82" y="657" on="0"/>
        <pt x="115" y="655" on="0"/>
        <pt x="145" y="654" on="0"/>
        <pt x="154" y="654" on="1"/>
        <pt x="213" y="654" on="1"/>
        <pt x="222" y="654" on="0"/>
        <pt x="251" y="655" on="0"/>
        <pt x="284" y="657" on="0"/>
        <pt x="315" y="659" on="0"/>
        <pt x="325" y="660" on="1"/>
        <pt x="327" y="656" on="1"/>
        <pt x="324" y="618" on="1"/>
        <pt x="320" y="614" on="1"/>
        <pt x="295" y="614" on="0"/>
        <pt x="272" y="609" on="0"/>
        <pt x="265" y="604" on="1"/>
        <pt x="244" y="590" on="0"/>
        <pt x="241" y="547" on="1"/>
        <pt x="240" y="537" on="0"/>
        <pt x="239" y="516" on="0"/>
        <pt x="239" y="483" on="0"/>
        <pt x="239" y="433" on="0"/>
        <pt x="239" y="395" on="1"/>
        <pt x="239" y="261" on="1"/>
        <pt x="239" y="222" on="0"/>
        <pt x="239" y="173" on="0"/>
        <pt x="240" y="140" on="0"/>
        <pt x="241" y="115" on="0"/>
        <pt x="243" y="98" on="1"/>
        <pt x="244" y="78" on="0"/>
        <pt x="266" y="78" on="1"/>
        <pt x="359" y="78" on="1"/>
        <pt x="392" y="78" on="0"/>
        <pt x="431" y="81" on="0"/>
        <pt x="453" y="94" on="0"/>
        <pt x="465" y="118" on="0"/>
        <pt x="470" y="139" on="1"/>
        <pt x="473" y="143" on="1"/>
        <pt x="519" y="143" on="1"/>
        <pt x="501" y="6" on="1"/>
        <pt x="493" y="-4" on="1"/>
        <pt x="485" y="-3" on="0"/>
        <pt x="451" y="-2" on="0"/>
        <pt x="413" y="-1" on="0"/>
        <pt x="376" y="0" on="0"/>
        <pt x="366" y="0" on="1"/>
        <pt x="154" y="0" on="1"/>
        <pt x="147" y="0" on="0"/>
        <pt x="116" y="-1" on="0"/>
        <pt x="82" y="-3" on="0"/>
        <pt x="50" y="-5" on="0"/>
        <pt x="42" y="-6" on="1"/>
        <pt x="40" y="-2" on="1"/>
        <pt x="43" y="36" on="1"/>
        <pt x="48" y="40" on="1"/>
        <pt x="86" y="40" on="0"/>
        <pt x="100" y="51" on="1"/>
        <pt x="108" y="58" on="0"/>
        <pt x="123" y="88" on="0"/>
        <pt x="125" y="108" on="1"/>
        <pt x="126" y="118" on="0"/>
        <pt x="127" y="153" on="0"/>
        <pt x="128" y="191" on="0"/>
        <pt x="128" y="224" on="0"/>
        <pt x="128" y="231" on="1"/>
        <pt x="128" y="394" on="1"/>
        <pt x="128" y="449" on="0"/>
        <pt x="127" y="532" on="0"/>
      </contour>
    </TTGlyph>
    <TTGlyph name="M" xMin="22" yMin="-6" xMax="922" yMax="660">
      <contour>
        <pt x="921" y="-6" on="1"/>
        <pt x="914" y="-6" on="0"/>
        <pt x="882" y="-4" on="0"/>
        <pt x="848" y="-2" on="0"/>
        <pt x="816" y="0" on="0"/>
        <pt x="809" y="0" on="1"/>
        <pt x="750" y="0" on="1"/>
        <pt x="743" y="0" on="0"/>
        <pt x="711" y="-2" on="0"/>
        <pt x="677" y="-4" on="0"/>
        <pt x="645" y="-6" on="0"/>
        <pt x="638" y="-6" on="1"/>
        <pt x="635" y="-2" on="1"/>
        <pt x="638" y="36" on="1"/>
        <pt x="642" y="40" on="1"/>
        <pt x="653" y="40" on="1"/>
        <pt x="682" y="40" on="0"/>
        <pt x="715" y="59" on="0"/>
        <pt x="715" y="88" on="1"/>
        <pt x="693" y="415" on="1"/>
        <pt x="691" y="438" on="0"/>
        <pt x="690" y="472" on="0"/>
        <pt x="686" y="492" on="1"/>
        <pt x="680" y="474" on="0"/>
        <pt x="654" y="408" on="0"/>
        <pt x="621" y="323" on="0"/>
        <pt x="583" y="227" on="0"/>
        <pt x="545" y="132" on="0"/>
        <pt x="512" y="45" on="0"/>
        <pt x="500" y="13" on="1"/>
        <pt x="418" y="13" on="1"/>
        <pt x="243" y="489" on="1"/>
        <pt x="243" y="465" on="0"/>
        <pt x="239" y="434" on="0"/>
        <pt x="237" y="410" on="1"/>
        <pt x="225" y="246" on="1"/>
        <pt x="223" y="213" on="0"/>
        <pt x="220" y="170" on="0"/>
        <pt x="219" y="140" on="0"/>
        <pt x="219" y="118" on="0"/>
        <pt x="219" y="107" on="1"/>
        <pt x="219" y="78" on="0"/>
        <pt x="232" y="56" on="0"/>
        <pt x="240" y="50" on="1"/>
        <pt x="248" y="42" on="0"/>
        <pt x="269" y="40" on="0"/>
        <pt x="285" y="40" on="1"/>
        <pt x="289" y="36" on="1"/>
        <pt x="292" y="-2" on="1"/>
        <pt x="290" y="-6" on="1"/>
        <pt x="283" y="-6" on="0"/>
        <pt x="256" y="-4" on="0"/>
        <pt x="228" y="-2" on="0"/>
        <pt x="201" y="0" on="0"/>
        <pt x="194" y="0" on="1"/>
        <pt x="135" y="0" on="1"/>
        <pt x="128" y="0" on="0"/>
        <pt x="97" y="-2" on="0"/>
        <pt x="62" y="-4" on="0"/>
        <pt x="31" y="-6" on="0"/>
        <pt x="24" y="-6" on="1"/>
        <pt x="22" y="-2" on="1"/>
        <pt x="25" y="36" on="1"/>
        <pt x="31" y="40" on="1"/>
        <pt x="46" y="40" on="0"/>
        <pt x="74" y="43" on="0"/>
        <pt x="84" y="50" on="1"/>
        <pt x="92" y="57" on="0"/>
        <pt x="108" y="79" on="0"/>
        <pt x="113" y="107" on="1"/>
        <pt x="115" y="119" on="0"/>
        <pt x="121" y="161" on="0"/>
        <pt x="125" y="211" on="1"/>
        <pt x="139" y="394" on="1"/>
        <pt x="142" y="429" on="0"/>
        <pt x="145" y="477" on="0"/>
        <pt x="146" y="511" on="0"/>
        <pt x="147" y="535" on="0"/>
        <pt x="147" y="547" on="1"/>
        <pt x="147" y="576" on="0"/>
        <pt x="130" y="598" on="0"/>
        <pt x="122" y="604" on="1"/>
        <pt x="113" y="612" on="0"/>
        <pt x="85" y="614" on="0"/>
        <pt x="69" y="614" on="1"/>
        <pt x="64" y="618" on="1"/>
        <pt x="61" y="656" on="1"/>
        <pt x="63" y="660" on="1"/>
        <pt x="70" y="660" on="0"/>
        <pt x="102" y="658" on="0"/>
        <pt x="136" y="656" on="0"/>
        <pt x="168" y="654" on="0"/>
        <pt x="175" y="654" on="1"/>
        <pt x="252" y="654" on="1"/>
        <pt x="259" y="654" on="0"/>
        <pt x="282" y="656" on="0"/>
        <pt x="292" y="658" on="1"/>
        <pt x="297" y="655" on="1"/>
        <pt x="298" y="641" on="0"/>
        <pt x="311" y="591" on="0"/>
        <pt x="330" y="531" on="0"/>
        <pt x="354" y="464" on="0"/>
        <pt x="366" y="432" on="1"/>
        <pt x="429" y="270" on="1"/>
        <pt x="440" y="243" on="0"/>
        <pt x="462" y="183" on="0"/>
        <pt x="471" y="156" on="1"/>
        <pt x="474" y="160" on="0"/>
        <pt x="500" y="222" on="0"/>
        <pt x="536" y="314" on="0"/>
        <pt x="577" y="425" on="0"/>
        <pt x="614" y="533" on="0"/>
        <pt x="641" y="626" on="0"/>
        <pt x="645" y="654" on="1"/>
        <pt x="650" y="658" on="1"/>
        <pt x="658" y="656" on="0"/>
        <pt x="676" y="654" on="0"/>
        <pt x="684" y="654" on="1"/>
        <pt x="770" y="654" on="1"/>
        <pt x="777" y="654" on="0"/>
        <pt x="809" y="656" on="0"/>
        <pt x="843" y="658" on="0"/>
        <pt x="875" y="660" on="0"/>
        <pt x="882" y="660" on="1"/>
        <pt x="884" y="656" on="1"/>
        <pt x="881" y="618" on="1"/>
        <pt x="876" y="614" on="1"/>
        <pt x="861" y="614" on="0"/>
        <pt x="832" y="611" on="0"/>
        <pt x="823" y="604" on="1"/>
        <pt x="815" y="598" on="0"/>
        <pt x="798" y="574" on="0"/>
        <pt x="798" y="547" on="1"/>
        <pt x="798" y="533" on="0"/>
        <pt x="798" y="509" on="0"/>
        <pt x="800" y="477" on="0"/>
        <pt x="803" y="431" on="0"/>
        <pt x="806" y="395" on="1"/>
        <pt x="818" y="251" on="1"/>
        <pt x="821" y="215" on="0"/>
        <pt x="825" y="170" on="0"/>
        <pt x="828" y="140" on="0"/>
        <pt x="830" y="119" on="0"/>
        <pt x="832" y="107" on="1"/>
        <pt x="836" y="78" on="0"/>
        <pt x="852" y="56" on="0"/>
        <pt x="860" y="50" on="1"/>
        <pt x="869" y="42" on="0"/>
        <pt x="898" y="40" on="0"/>
        <pt x="914" y="40" on="1"/>
        <pt x="919" y="36" on="1"/>
        <pt x="922" y="-2" on="1"/>
      </contour>
    </TTGlyph>
    <TTGlyph name="M.salt" xMin="40" yMin="-6" xMax="843" yMax="660">
      <contour>
        <pt x="841" y="-6" on="1"/>
        <pt x="834" y="-6" on="0"/>
        <pt x="802" y="-4" on="0"/>
        <pt x="768" y="-2" on="0"/>
        <pt x="736" y="0" on="0"/>
        <pt x="729" y="0" on="1"/>
        <pt x="670" y="0" on="1"/>
        <pt x="663" y="0" on="0"/>
        <pt x="631" y="-2" on="0"/>
        <pt x="597" y="-4" on="0"/>
        <pt x="565" y="-6" on="0"/>
        <pt x="558" y="-6" on="1"/>
        <pt x="556" y="-2" on="1"/>
        <pt x="559" y="36" on="1"/>
        <pt x="563" y="40" on="1"/>
        <pt x="579" y="40" on="0"/>
        <pt x="607" y="43" on="0"/>
        <pt x="617" y="50" on="1"/>
        <pt x="626" y="57" on="0"/>
        <pt x="636" y="79" on="0"/>
        <pt x="641" y="107" on="1"/>
        <pt x="642" y="114" on="0"/>
        <pt x="643" y="133" on="0"/>
        <pt x="644" y="161" on="0"/>
        <pt x="644" y="201" on="0"/>
        <pt x="644" y="231" on="1"/>
        <pt x="644" y="414" on="1"/>
        <pt x="644" y="453" on="0"/>
        <pt x="645" y="496" on="0"/>
        <pt x="645" y="509" on="1"/>
        <pt x="640" y="496" on="0"/>
        <pt x="625" y="457" on="0"/>
        <pt x="602" y="400" on="0"/>
        <pt x="571" y="321" on="0"/>
        <pt x="550" y="268" on="1"/>
        <pt x="526" y="206" on="0"/>
        <pt x="477" y="98" on="0"/>
        <pt x="457" y="53" on="1"/>
        <pt x="448" y="41" on="1"/>
        <pt x="425" y="33" on="1"/>
        <pt x="408" y="33" on="1"/>
        <pt x="394" y="43" on="1"/>
        <pt x="386" y="56" on="1"/>
        <pt x="221" y="507" on="1"/>
        <pt x="219" y="493" on="0"/>
        <pt x="219" y="454" on="0"/>
        <pt x="219" y="415" on="1"/>
        <pt x="219" y="251" on="1"/>
        <pt x="219" y="215" on="0"/>
        <pt x="219" y="170" on="0"/>
        <pt x="220" y="140" on="0"/>
        <pt x="221" y="119" on="0"/>
        <pt x="222" y="107" on="1"/>
        <pt x="224" y="79" on="0"/>
        <pt x="239" y="56" on="0"/>
        <pt x="247" y="50" on="1"/>
        <pt x="255" y="43" on="0"/>
        <pt x="277" y="40" on="0"/>
        <pt x="292" y="40" on="1"/>
        <pt x="297" y="36" on="1"/>
        <pt x="300" y="-2" on="1"/>
        <pt x="298" y="-6" on="1"/>
        <pt x="291" y="-6" on="0"/>
        <pt x="265" y="-4" on="0"/>
        <pt x="236" y="-2" on="0"/>
        <pt x="210" y="0" on="0"/>
        <pt x="203" y="0" on="1"/>
        <pt x="154" y="0" on="1"/>
        <pt x="147" y="0" on="0"/>
        <pt x="115" y="-2" on="0"/>
        <pt x="81" y="-4" on="0"/>
        <pt x="49" y="-6" on="0"/>
        <pt x="42" y="-6" on="1"/>
        <pt x="40" y="-2" on="1"/>
        <pt x="43" y="36" on="1"/>
        <pt x="48" y="40" on="1"/>
        <pt x="64" y="40" on="0"/>
        <pt x="93" y="43" on="0"/>
        <pt x="101" y="50" on="1"/>
        <pt x="109" y="57" on="0"/>
        <pt x="122" y="79" on="0"/>
        <pt x="126" y="107" on="1"/>
        <pt x="126" y="114" on="0"/>
        <pt x="127" y="133" on="0"/>
        <pt x="128" y="161" on="0"/>
        <pt x="128" y="201" on="0"/>
        <pt x="128" y="231" on="1"/>
        <pt x="128" y="394" on="1"/>
        <pt x="128" y="429" on="0"/>
        <pt x="128" y="477" on="0"/>
        <pt x="128" y="511" on="0"/>
        <pt x="127" y="535" on="0"/>
        <pt x="126" y="547" on="1"/>
        <pt x="124" y="575" on="0"/>
        <pt x="108" y="599" on="0"/>
        <pt x="101" y="604" on="1"/>
        <pt x="93" y="612" on="0"/>
        <pt x="64" y="614" on="0"/>
        <pt x="48" y="614" on="1"/>
        <pt x="43" y="618" on="1"/>
        <pt x="40" y="656" on="1"/>
        <pt x="42" y="660" on="1"/>
        <pt x="49" y="660" on="0"/>
        <pt x="81" y="658" on="0"/>
        <pt x="115" y="656" on="0"/>
        <pt x="147" y="654" on="0"/>
        <pt x="154" y="654" on="1"/>
        <pt x="219" y="654" on="1"/>
        <pt x="227" y="654" on="0"/>
        <pt x="250" y="656" on="0"/>
        <pt x="259" y="658" on="1"/>
        <pt x="264" y="655" on="1"/>
        <pt x="265" y="642" on="0"/>
        <pt x="279" y="598" on="0"/>
        <pt x="299" y="543" on="0"/>
        <pt x="322" y="482" on="0"/>
        <pt x="333" y="452" on="1"/>
        <pt x="401" y="267" on="1"/>
        <pt x="407" y="249" on="0"/>
        <pt x="416" y="223" on="0"/>
        <pt x="424" y="202" on="0"/>
        <pt x="433" y="181" on="0"/>
        <pt x="438" y="167" on="1"/>
        <pt x="445" y="183" on="0"/>
        <pt x="464" y="224" on="0"/>
        <pt x="491" y="288" on="0"/>
        <pt x="527" y="383" on="0"/>
        <pt x="551" y="452" on="1"/>
        <pt x="574" y="520" on="0"/>
        <pt x="609" y="613" on="0"/>
        <pt x="614" y="654" on="1"/>
        <pt x="619" y="658" on="1"/>
        <pt x="634" y="654" on="0"/>
        <pt x="653" y="654" on="1"/>
        <pt x="729" y="654" on="1"/>
        <pt x="736" y="654" on="0"/>
        <pt x="768" y="656" on="0"/>
        <pt x="802" y="658" on="0"/>
        <pt x="834" y="660" on="0"/>
        <pt x="841" y="660" on="1"/>
        <pt x="843" y="656" on="1"/>
        <pt x="840" y="618" on="1"/>
        <pt x="835" y="614" on="1"/>
        <pt x="819" y="614" on="0"/>
        <pt x="790" y="611" on="0"/>
        <pt x="782" y="604" on="1"/>
        <pt x="774" y="597" on="0"/>
        <pt x="761" y="575" on="0"/>
        <pt x="757" y="547" on="1"/>
        <pt x="756" y="533" on="0"/>
        <pt x="755" y="509" on="0"/>
        <pt x="754" y="477" on="0"/>
        <pt x="754" y="431" on="0"/>
        <pt x="754" y="395" on="1"/>
        <pt x="754" y="251" on="1"/>
        <pt x="754" y="215" on="0"/>
        <pt x="754" y="170" on="0"/>
        <pt x="755" y="140" on="0"/>
        <pt x="756" y="119" on="0"/>
        <pt x="757" y="107" on="1"/>
        <pt x="759" y="79" on="0"/>
        <pt x="775" y="56" on="0"/>
        <pt x="782" y="50" on="1"/>
        <pt x="790" y="43" on="0"/>
        <pt x="819" y="40" on="0"/>
        <pt x="835" y="40" on="1"/>
        <pt x="840" y="36" on="1"/>
        <pt x="843" y="-2" on="1"/>
      </contour>
    </TTGlyph>
    <TTGlyph name="N" xMin="38" yMin="-9" xMax="753" yMax="660">
      <contour>
        <pt x="753" y="656" on="1"/>
        <pt x="751" y="618" on="1"/>
        <pt x="746" y="614" on="1"/>
        <pt x="731" y="614" on="0"/>
        <pt x="702" y="611" on="0"/>
        <pt x="693" y="604" on="1"/>
        <pt x="685" y="597" on="0"/>
        <pt x="668" y="575" on="0"/>
        <pt x="665" y="547" on="1"/>
        <pt x="664" y="533" on="0"/>
        <pt x="663" y="509" on="0"/>
        <pt x="662" y="477" on="0"/>
        <pt x="662" y="431" on="0"/>
        <pt x="662" y="395" on="1"/>
        <pt x="662" y="239" on="1"/>
        <pt x="662" y="183" on="0"/>
        <pt x="663" y="111" on="0"/>
        <pt x="664" y="60" on="0"/>
        <pt x="667" y="20" on="0"/>
        <pt x="669" y="-4" on="1"/>
        <pt x="661" y="-9" on="1"/>
        <pt x="538" y="-4" on="1"/>
        <pt x="528" y="8" on="1"/>
        <pt x="219" y="474" on="1"/>
        <pt x="221" y="456" on="0"/>
        <pt x="222" y="377" on="0"/>
        <pt x="222" y="325" on="1"/>
        <pt x="222" y="251" on="1"/>
        <pt x="222" y="239" on="0"/>
        <pt x="222" y="200" on="0"/>
        <pt x="223" y="158" on="0"/>
        <pt x="224" y="119" on="0"/>
        <pt x="225" y="107" on="1"/>
        <pt x="227" y="82" on="0"/>
        <pt x="245" y="56" on="0"/>
        <pt x="255" y="50" on="1"/>
        <pt x="263" y="42" on="0"/>
        <pt x="289" y="40" on="0"/>
        <pt x="309" y="40" on="1"/>
        <pt x="314" y="36" on="1"/>
        <pt x="317" y="-2" on="1"/>
        <pt x="315" y="-6" on="1"/>
        <pt x="307" y="-6" on="0"/>
        <pt x="278" y="-4" on="0"/>
        <pt x="247" y="-2" on="0"/>
        <pt x="218" y="0" on="0"/>
        <pt x="211" y="0" on="1"/>
        <pt x="152" y="0" on="1"/>
        <pt x="145" y="0" on="0"/>
        <pt x="113" y="-2" on="0"/>
        <pt x="79" y="-4" on="0"/>
        <pt x="47" y="-6" on="0"/>
        <pt x="40" y="-6" on="1"/>
        <pt x="38" y="-2" on="1"/>
        <pt x="41" y="36" on="1"/>
        <pt x="46" y="40" on="1"/>
        <pt x="64" y="40" on="0"/>
        <pt x="89" y="43" on="0"/>
        <pt x="99" y="50" on="1"/>
        <pt x="106" y="55" on="0"/>
        <pt x="126" y="78" on="0"/>
        <pt x="129" y="107" on="1"/>
        <pt x="130" y="114" on="0"/>
        <pt x="131" y="133" on="0"/>
        <pt x="131" y="161" on="0"/>
        <pt x="131" y="201" on="0"/>
        <pt x="131" y="231" on="1"/>
        <pt x="131" y="394" on="1"/>
        <pt x="131" y="429" on="0"/>
        <pt x="131" y="477" on="0"/>
        <pt x="131" y="511" on="0"/>
        <pt x="130" y="535" on="0"/>
        <pt x="129" y="547" on="1"/>
        <pt x="127" y="568" on="0"/>
        <pt x="108" y="598" on="0"/>
        <pt x="99" y="604" on="1"/>
        <pt x="90" y="612" on="0"/>
        <pt x="63" y="614" on="0"/>
        <pt x="46" y="614" on="1"/>
        <pt x="41" y="618" on="1"/>
        <pt x="38" y="656" on="1"/>
        <pt x="40" y="660" on="1"/>
        <pt x="47" y="660" on="0"/>
        <pt x="74" y="658" on="0"/>
        <pt x="102" y="656" on="0"/>
        <pt x="129" y="654" on="0"/>
        <pt x="136" y="654" on="1"/>
        <pt x="221" y="654" on="1"/>
        <pt x="229" y="654" on="0"/>
        <pt x="253" y="656" on="0"/>
        <pt x="262" y="658" on="1"/>
        <pt x="267" y="655" on="1"/>
        <pt x="270" y="641" on="0"/>
        <pt x="294" y="592" on="0"/>
        <pt x="329" y="531" on="0"/>
        <pt x="369" y="464" on="0"/>
        <pt x="389" y="431" on="1"/>
        <pt x="425" y="371" on="0"/>
        <pt x="481" y="282" on="0"/>
        <pt x="525" y="216" on="0"/>
        <pt x="557" y="171" on="0"/>
        <pt x="568" y="156" on="1"/>
        <pt x="568" y="182" on="0"/>
        <pt x="569" y="232" on="0"/>
        <pt x="569" y="258" on="1"/>
        <pt x="569" y="394" on="1"/>
        <pt x="569" y="429" on="0"/>
        <pt x="569" y="477" on="0"/>
        <pt x="568" y="511" on="0"/>
        <pt x="567" y="535" on="0"/>
        <pt x="566" y="547" on="1"/>
        <pt x="564" y="564" on="0"/>
        <pt x="551" y="593" on="0"/>
        <pt x="537" y="604" on="1"/>
        <pt x="528" y="612" on="0"/>
        <pt x="499" y="614" on="0"/>
        <pt x="483" y="614" on="1"/>
        <pt x="479" y="618" on="1"/>
        <pt x="476" y="656" on="1"/>
        <pt x="478" y="660" on="1"/>
        <pt x="485" y="660" on="0"/>
        <pt x="511" y="658" on="0"/>
        <pt x="538" y="656" on="0"/>
        <pt x="564" y="654" on="0"/>
        <pt x="571" y="654" on="1"/>
        <pt x="658" y="654" on="1"/>
        <pt x="665" y="654" on="0"/>
        <pt x="691" y="655" on="0"/>
        <pt x="719" y="657" on="0"/>
        <pt x="745" y="659" on="0"/>
        <pt x="752" y="660" on="1"/>
      </contour>
    </TTGlyph>
    <TTGlyph name="Nacute" xMin="38" yMin="-9" xMax="753" yMax="850">
      <contour>
        <pt x="753" y="656" on="1"/>
        <pt x="751" y="618" on="1"/>
        <pt x="746" y="614" on="1"/>
        <pt x="731" y="614" on="0"/>
        <pt x="702" y="611" on="0"/>
        <pt x="693" y="604" on="1"/>
        <pt x="685" y="597" on="0"/>
        <pt x="668" y="575" on="0"/>
        <pt x="665" y="547" on="1"/>
        <pt x="664" y="533" on="0"/>
        <pt x="663" y="509" on="0"/>
        <pt x="662" y="477" on="0"/>
        <pt x="662" y="431" on="0"/>
        <pt x="662" y="395" on="1"/>
        <pt x="662" y="239" on="1"/>
        <pt x="662" y="183" on="0"/>
        <pt x="663" y="111" on="0"/>
        <pt x="664" y="60" on="0"/>
        <pt x="667" y="20" on="0"/>
        <pt x="669" y="-4" on="1"/>
        <pt x="661" y="-9" on="1"/>
        <pt x="538" y="-4" on="1"/>
        <pt x="528" y="8" on="1"/>
        <pt x="219" y="474" on="1"/>
        <pt x="221" y="456" on="0"/>
        <pt x="222" y="377" on="0"/>
        <pt x="222" y="325" on="1"/>
        <pt x="222" y="251" on="1"/>
        <pt x="222" y="239" on="0"/>
        <pt x="222" y="200" on="0"/>
        <pt x="223" y="158" on="0"/>
        <pt x="224" y="119" on="0"/>
        <pt x="225" y="107" on="1"/>
        <pt x="227" y="82" on="0"/>
        <pt x="245" y="56" on="0"/>
        <pt x="255" y="50" on="1"/>
        <pt x="263" y="42" on="0"/>
        <pt x="289" y="40" on="0"/>
        <pt x="309" y="40" on="1"/>
        <pt x="314" y="36" on="1"/>
        <pt x="317" y="-2" on="1"/>
        <pt x="315" y="-6" on="1"/>
        <pt x="307" y="-6" on="0"/>
        <pt x="278" y="-4" on="0"/>
        <pt x="247" y="-2" on="0"/>
        <pt x="218" y="0" on="0"/>
        <pt x="211" y="0" on="1"/>
        <pt x="152" y="0" on="1"/>
        <pt x="145" y="0" on="0"/>
        <pt x="113" y="-2" on="0"/>
        <pt x="79" y="-4" on="0"/>
        <pt x="47" y="-6" on="0"/>
        <pt x="40" y="-6" on="1"/>
        <pt x="38" y="-2" on="1"/>
        <pt x="41" y="36" on="1"/>
        <pt x="46" y="40" on="1"/>
        <pt x="64" y="40" on="0"/>
        <pt x="89" y="43" on="0"/>
        <pt x="99" y="50" on="1"/>
        <pt x="106" y="55" on="0"/>
        <pt x="126" y="78" on="0"/>
        <pt x="129" y="107" on="1"/>
        <pt x="130" y="114" on="0"/>
        <pt x="131" y="133" on="0"/>
        <pt x="131" y="161" on="0"/>
        <pt x="131" y="201" on="0"/>
        <pt x="131" y="231" on="1"/>
        <pt x="131" y="394" on="1"/>
        <pt x="131" y="429" on="0"/>
        <pt x="131" y="477" on="0"/>
        <pt x="131" y="511" on="0"/>
        <pt x="130" y="535" on="0"/>
        <pt x="129" y="547" on="1"/>
        <pt x="127" y="568" on="0"/>
        <pt x="108" y="598" on="0"/>
        <pt x="99" y="604" on="1"/>
        <pt x="90" y="612" on="0"/>
        <pt x="63" y="614" on="0"/>
        <pt x="46" y="614" on="1"/>
        <pt x="41" y="618" on="1"/>
        <pt x="38" y="656" on="1"/>
        <pt x="40" y="660" on="1"/>
        <pt x="47" y="660" on="0"/>
        <pt x="74" y="658" on="0"/>
        <pt x="102" y="656" on="0"/>
        <pt x="129" y="654" on="0"/>
        <pt x="136" y="654" on="1"/>
        <pt x="221" y="654" on="1"/>
        <pt x="229" y="654" on="0"/>
        <pt x="253" y="656" on="0"/>
        <pt x="262" y="658" on="1"/>
        <pt x="267" y="655" on="1"/>
        <pt x="270" y="641" on="0"/>
        <pt x="294" y="592" on="0"/>
        <pt x="329" y="531" on="0"/>
        <pt x="369" y="464" on="0"/>
        <pt x="389" y="431" on="1"/>
        <pt x="425" y="371" on="0"/>
        <pt x="481" y="282" on="0"/>
        <pt x="525" y="216" on="0"/>
        <pt x="557" y="171" on="0"/>
        <pt x="568" y="156" on="1"/>
        <pt x="568" y="182" on="0"/>
        <pt x="569" y="232" on="0"/>
        <pt x="569" y="258" on="1"/>
        <pt x="569" y="394" on="1"/>
        <pt x="569" y="429" on="0"/>
        <pt x="569" y="477" on="0"/>
        <pt x="568" y="511" on="0"/>
        <pt x="567" y="535" on="0"/>
        <pt x="566" y="547" on="1"/>
        <pt x="564" y="564" on="0"/>
        <pt x="551" y="593" on="0"/>
        <pt x="537" y="604" on="1"/>
        <pt x="528" y="612" on="0"/>
        <pt x="499" y="614" on="0"/>
        <pt x="483" y="614" on="1"/>
        <pt x="479" y="618" on="1"/>
        <pt x="476" y="656" on="1"/>
        <pt x="478" y="660" on="1"/>
        <pt x="485" y="660" on="0"/>
        <pt x="511" y="658" on="0"/>
        <pt x="538" y="656" on="0"/>
        <pt x="564" y="654" on="0"/>
        <pt x="571" y="654" on="1"/>
        <pt x="658" y="654" on="1"/>
        <pt x="665" y="654" on="0"/>
        <pt x="691" y="655" on="0"/>
        <pt x="719" y="657" on="0"/>
        <pt x="745" y="659" on="0"/>
        <pt x="752" y="660" on="1"/>
      </contour>
      <contour>
        <pt x="343" y="692" on="1"/>
        <pt x="317" y="742" on="1"/>
        <pt x="320" y="749" on="1"/>
        <pt x="501" y="850" on="1"/>
        <pt x="529" y="848" on="0"/>
        <pt x="556" y="811" on="0"/>
        <pt x="556" y="785" on="1"/>
        <pt x="556" y="775" on="0"/>
        <pt x="552" y="766" on="1"/>
        <pt x="351" y="689" on="1"/>
      </contour>
    </TTGlyph>
    <TTGlyph name="Ntilde" xMin="38" yMin="-9" xMax="753" yMax="853">
      <contour>
        <pt x="753" y="656" on="1"/>
        <pt x="751" y="618" on="1"/>
        <pt x="746" y="614" on="1"/>
        <pt x="731" y="614" on="0"/>
        <pt x="702" y="611" on="0"/>
        <pt x="693" y="604" on="1"/>
        <pt x="685" y="597" on="0"/>
        <pt x="668" y="575" on="0"/>
        <pt x="665" y="547" on="1"/>
        <pt x="664" y="533" on="0"/>
        <pt x="663" y="509" on="0"/>
        <pt x="662" y="477" on="0"/>
        <pt x="662" y="431" on="0"/>
        <pt x="662" y="395" on="1"/>
        <pt x="662" y="239" on="1"/>
        <pt x="662" y="183" on="0"/>
        <pt x="663" y="111" on="0"/>
        <pt x="664" y="60" on="0"/>
        <pt x="667" y="20" on="0"/>
        <pt x="669" y="-4" on="1"/>
        <pt x="661" y="-9" on="1"/>
        <pt x="538" y="-4" on="1"/>
        <pt x="528" y="8" on="1"/>
        <pt x="219" y="474" on="1"/>
        <pt x="221" y="456" on="0"/>
        <pt x="222" y="377" on="0"/>
        <pt x="222" y="325" on="1"/>
        <pt x="222" y="251" on="1"/>
        <pt x="222" y="239" on="0"/>
        <pt x="222" y="200" on="0"/>
        <pt x="223" y="158" on="0"/>
        <pt x="224" y="119" on="0"/>
        <pt x="225" y="107" on="1"/>
        <pt x="227" y="82" on="0"/>
        <pt x="245" y="56" on="0"/>
        <pt x="255" y="50" on="1"/>
        <pt x="263" y="42" on="0"/>
        <pt x="289" y="40" on="0"/>
        <pt x="309" y="40" on="1"/>
        <pt x="314" y="36" on="1"/>
        <pt x="317" y="-2" on="1"/>
        <pt x="315" y="-6" on="1"/>
        <pt x="307" y="-6" on="0"/>
        <pt x="278" y="-4" on="0"/>
        <pt x="247" y="-2" on="0"/>
        <pt x="218" y="0" on="0"/>
        <pt x="211" y="0" on="1"/>
        <pt x="152" y="0" on="1"/>
        <pt x="145" y="0" on="0"/>
        <pt x="113" y="-2" on="0"/>
        <pt x="79" y="-4" on="0"/>
        <pt x="47" y="-6" on="0"/>
        <pt x="40" y="-6" on="1"/>
        <pt x="38" y="-2" on="1"/>
        <pt x="41" y="36" on="1"/>
        <pt x="46" y="40" on="1"/>
        <pt x="64" y="40" on="0"/>
        <pt x="89" y="43" on="0"/>
        <pt x="99" y="50" on="1"/>
        <pt x="106" y="55" on="0"/>
        <pt x="126" y="78" on="0"/>
        <pt x="129" y="107" on="1"/>
        <pt x="130" y="114" on="0"/>
        <pt x="131" y="133" on="0"/>
        <pt x="131" y="161" on="0"/>
        <pt x="131" y="201" on="0"/>
        <pt x="131" y="231" on="1"/>
        <pt x="131" y="394" on="1"/>
        <pt x="131" y="429" on="0"/>
        <pt x="131" y="477" on="0"/>
        <pt x="131" y="511" on="0"/>
        <pt x="130" y="535" on="0"/>
        <pt x="129" y="547" on="1"/>
        <pt x="127" y="568" on="0"/>
        <pt x="108" y="598" on="0"/>
        <pt x="99" y="604" on="1"/>
        <pt x="90" y="612" on="0"/>
        <pt x="63" y="614" on="0"/>
        <pt x="46" y="614" on="1"/>
        <pt x="41" y="618" on="1"/>
        <pt x="38" y="656" on="1"/>
        <pt x="40" y="660" on="1"/>
        <pt x="47" y="660" on="0"/>
        <pt x="74" y="658" on="0"/>
        <pt x="102" y="656" on="0"/>
        <pt x="129" y="654" on="0"/>
        <pt x="136" y="654" on="1"/>
        <pt x="221" y="654" on="1"/>
        <pt x="229" y="654" on="0"/>
        <pt x="253" y="656" on="0"/>
        <pt x="262" y="658" on="1"/>
        <pt x="267" y="655" on="1"/>
        <pt x="270" y="641" on="0"/>
        <pt x="294" y="592" on="0"/>
        <pt x="329" y="531" on="0"/>
        <pt x="369" y="464" on="0"/>
        <pt x="389" y="431" on="1"/>
        <pt x="425" y="371" on="0"/>
        <pt x="481" y="282" on="0"/>
        <pt x="525" y="216" on="0"/>
        <pt x="557" y="171" on="0"/>
        <pt x="568" y="156" on="1"/>
        <pt x="568" y="182" on="0"/>
        <pt x="569" y="232" on="0"/>
        <pt x="569" y="258" on="1"/>
        <pt x="569" y="394" on="1"/>
        <pt x="569" y="429" on="0"/>
        <pt x="569" y="477" on="0"/>
        <pt x="568" y="511" on="0"/>
        <pt x="567" y="535" on="0"/>
        <pt x="566" y="547" on="1"/>
        <pt x="564" y="564" on="0"/>
        <pt x="551" y="593" on="0"/>
        <pt x="537" y="604" on="1"/>
        <pt x="528" y="612" on="0"/>
        <pt x="499" y="614" on="0"/>
        <pt x="483" y="614" on="1"/>
        <pt x="479" y="618" on="1"/>
        <pt x="476" y="656" on="1"/>
        <pt x="478" y="660" on="1"/>
        <pt x="485" y="660" on="0"/>
        <pt x="511" y="658" on="0"/>
        <pt x="538" y="656" on="0"/>
        <pt x="564" y="654" on="0"/>
        <pt x="571" y="654" on="1"/>
        <pt x="658" y="654" on="1"/>
        <pt x="665" y="654" on="0"/>
        <pt x="691" y="655" on="0"/>
        <pt x="719" y="657" on="0"/>
        <pt x="745" y="659" on="0"/>
        <pt x="752" y="660" on="1"/>
      </contour>
      <contour>
        <pt x="546" y="805" on="1"/>
        <pt x="543" y="791" on="0"/>
        <pt x="530" y="764" on="0"/>
        <pt x="509" y="742" on="0"/>
        <pt x="479" y="728" on="0"/>
        <pt x="458" y="728" on="1"/>
        <pt x="418" y="728" on="0"/>
        <pt x="335" y="742" on="0"/>
        <pt x="303" y="742" on="1"/>
        <pt x="278" y="742" on="0"/>
        <pt x="258" y="729" on="0"/>
        <pt x="248" y="717" on="1"/>
        <pt x="235" y="765" on="1"/>
        <pt x="239" y="778" on="0"/>
        <pt x="253" y="806" on="0"/>
        <pt x="274" y="827" on="0"/>
        <pt x="305" y="841" on="0"/>
        <pt x="326" y="841" on="1"/>
        <pt x="351" y="841" on="0"/>
        <pt x="388" y="837" on="0"/>
        <pt x="420" y="831" on="0"/>
        <pt x="450" y="827" on="0"/>
        <pt x="469" y="827" on="1"/>
        <pt x="486" y="827" on="0"/>
        <pt x="520" y="835" on="0"/>
        <pt x="534" y="853" on="1"/>
      </contour>
    </TTGlyph>
    <TTGlyph name="O" xMin="47" yMin="-11" xMax="691" yMax="665">
      <contour>
        <pt x="369" y="665" on="1"/>
        <pt x="446" y="665" on="0"/>
        <pt x="566" y="611" on="0"/>
        <pt x="648" y="518" on="0"/>
        <pt x="691" y="396" on="0"/>
        <pt x="691" y="329" on="1"/>
        <pt x="691" y="263" on="0"/>
        <pt x="649" y="140" on="0"/>
        <pt x="566" y="46" on="0"/>
        <pt x="443" y="-11" on="0"/>
        <pt x="362" y="-11" on="1"/>
        <pt x="284" y="-11" on="0"/>
        <pt x="166" y="43" on="0"/>
        <pt x="87" y="134" on="0"/>
        <pt x="47" y="255" on="0"/>
        <pt x="47" y="322" on="1"/>
        <pt x="47" y="393" on="0"/>
        <pt x="91" y="518" on="0"/>
        <pt x="173" y="611" on="0"/>
        <pt x="293" y="665" on="0"/>
      </contour>
      <contour>
        <pt x="368" y="72" on="1"/>
        <pt x="417" y="72" on="0"/>
        <pt x="494" y="113" on="0"/>
        <pt x="546" y="182" on="0"/>
        <pt x="574" y="275" on="0"/>
        <pt x="574" y="328" on="1"/>
        <pt x="574" y="382" on="0"/>
        <pt x="545" y="475" on="0"/>
        <pt x="490" y="543" on="0"/>
        <pt x="412" y="582" on="0"/>
        <pt x="363" y="582" on="1"/>
        <pt x="315" y="582" on="0"/>
        <pt x="241" y="544" on="0"/>
        <pt x="191" y="476" on="0"/>
        <pt x="165" y="383" on="0"/>
        <pt x="165" y="329" on="1"/>
        <pt x="165" y="269" on="0"/>
        <pt x="195" y="174" on="0"/>
        <pt x="249" y="108" on="0"/>
        <pt x="323" y="72" on="0"/>
      </contour>
    </TTGlyph>
    <TTGlyph name="OE" xMin="47" yMin="-4" xMax="924" yMax="658">
      <contour>
        <pt x="506" y="0" on="1"/>
        <pt x="495" y="0" on="0"/>
        <pt x="458" y="-1" on="0"/>
        <pt x="418" y="-1" on="0"/>
        <pt x="382" y="-2" on="0"/>
        <pt x="373" y="-2" on="1"/>
        <pt x="293" y="-2" on="0"/>
        <pt x="171" y="52" on="0"/>
        <pt x="89" y="143" on="0"/>
        <pt x="47" y="262" on="0"/>
        <pt x="47" y="328" on="1"/>
        <pt x="47" y="395" on="0"/>
        <pt x="90" y="515" on="0"/>
        <pt x="172" y="605" on="0"/>
        <pt x="291" y="658" on="0"/>
        <pt x="367" y="658" on="1"/>
        <pt x="379" y="658" on="0"/>
        <pt x="418" y="657" on="0"/>
        <pt x="459" y="655" on="0"/>
        <pt x="498" y="654" on="0"/>
        <pt x="511" y="654" on="1"/>
        <pt x="715" y="654" on="1"/>
        <pt x="729" y="654" on="0"/>
        <pt x="784" y="655" on="0"/>
        <pt x="842" y="657" on="0"/>
        <pt x="888" y="658" on="0"/>
        <pt x="893" y="658" on="1"/>
        <pt x="899" y="648" on="1"/>
        <pt x="894" y="519" on="1"/>
        <pt x="849" y="519" on="1"/>
        <pt x="845" y="523" on="1"/>
        <pt x="843" y="542" on="0"/>
        <pt x="836" y="564" on="0"/>
        <pt x="806" y="574" on="0"/>
        <pt x="743" y="576" on="0"/>
        <pt x="687" y="576" on="1"/>
        <pt x="630" y="576" on="1"/>
        <pt x="629" y="567" on="1"/>
        <pt x="628" y="553" on="0"/>
        <pt x="627" y="529" on="0"/>
        <pt x="626" y="497" on="0"/>
        <pt x="626" y="451" on="0"/>
        <pt x="626" y="415" on="1"/>
        <pt x="626" y="381" on="1"/>
        <pt x="650" y="382" on="0"/>
        <pt x="694" y="382" on="0"/>
        <pt x="731" y="384" on="0"/>
        <pt x="758" y="390" on="0"/>
        <pt x="764" y="396" on="1"/>
        <pt x="769" y="401" on="0"/>
        <pt x="775" y="413" on="0"/>
        <pt x="775" y="422" on="1"/>
        <pt x="780" y="427" on="1"/>
        <pt x="817" y="429" on="1"/>
        <pt x="821" y="427" on="1"/>
        <pt x="819" y="404" on="0"/>
        <pt x="816" y="370" on="0"/>
        <pt x="816" y="348" on="1"/>
        <pt x="816" y="324" on="0"/>
        <pt x="819" y="283" on="0"/>
        <pt x="821" y="259" on="1"/>
        <pt x="817" y="257" on="1"/>
        <pt x="779" y="259" on="1"/>
        <pt x="775" y="262" on="1"/>
        <pt x="775" y="286" on="0"/>
        <pt x="765" y="299" on="1"/>
        <pt x="757" y="310" on="0"/>
        <pt x="683" y="313" on="0"/>
        <pt x="637" y="313" on="1"/>
        <pt x="626" y="313" on="1"/>
        <pt x="626" y="231" on="1"/>
        <pt x="626" y="202" on="0"/>
        <pt x="627" y="164" on="0"/>
        <pt x="628" y="137" on="0"/>
        <pt x="630" y="113" on="0"/>
        <pt x="631" y="97" on="1"/>
        <pt x="632" y="78" on="0"/>
        <pt x="651" y="78" on="1"/>
        <pt x="696" y="78" on="1"/>
        <pt x="753" y="78" on="0"/>
        <pt x="818" y="82" on="0"/>
        <pt x="852" y="97" on="0"/>
        <pt x="867" y="125" on="0"/>
        <pt x="873" y="149" on="1"/>
        <pt x="877" y="153" on="1"/>
        <pt x="924" y="153" on="1"/>
        <pt x="905" y="6" on="1"/>
        <pt x="897" y="-4" on="1"/>
        <pt x="892" y="-4" on="0"/>
        <pt x="853" y="-3" on="0"/>
        <pt x="805" y="-1" on="0"/>
        <pt x="757" y="0" on="0"/>
        <pt x="743" y="0" on="1"/>
      </contour>
      <contour>
        <pt x="462" y="78" on="1"/>
        <pt x="488" y="78" on="0"/>
        <pt x="508" y="91" on="0"/>
        <pt x="511" y="117" on="1"/>
        <pt x="513" y="134" on="0"/>
        <pt x="514" y="201" on="0"/>
        <pt x="514" y="261" on="1"/>
        <pt x="514" y="385" on="1"/>
        <pt x="514" y="422" on="0"/>
        <pt x="514" y="491" on="0"/>
        <pt x="513" y="518" on="1"/>
        <pt x="512" y="544" on="0"/>
        <pt x="483" y="576" on="0"/>
        <pt x="455" y="576" on="1"/>
        <pt x="411" y="576" on="1"/>
        <pt x="354" y="576" on="0"/>
        <pt x="263" y="539" on="0"/>
        <pt x="201" y="473" on="0"/>
        <pt x="168" y="382" on="0"/>
        <pt x="168" y="328" on="1"/>
        <pt x="168" y="276" on="0"/>
        <pt x="199" y="185" on="0"/>
        <pt x="259" y="117" on="0"/>
        <pt x="348" y="78" on="0"/>
        <pt x="406" y="78" on="1"/>
      </contour>
    </TTGlyph>
    <TTGlyph name="Oacute" xMin="47" yMin="-11" xMax="691" yMax="850">
      <contour>
        <pt x="369" y="665" on="1"/>
        <pt x="446" y="665" on="0"/>
        <pt x="566" y="611" on="0"/>
        <pt x="648" y="518" on="0"/>
        <pt x="691" y="396" on="0"/>
        <pt x="691" y="329" on="1"/>
        <pt x="691" y="263" on="0"/>
        <pt x="649" y="140" on="0"/>
        <pt x="566" y="46" on="0"/>
        <pt x="443" y="-11" on="0"/>
        <pt x="362" y="-11" on="1"/>
        <pt x="284" y="-11" on="0"/>
        <pt x="166" y="43" on="0"/>
        <pt x="87" y="134" on="0"/>
        <pt x="47" y="255" on="0"/>
        <pt x="47" y="322" on="1"/>
        <pt x="47" y="393" on="0"/>
        <pt x="91" y="518" on="0"/>
        <pt x="173" y="611" on="0"/>
        <pt x="293" y="665" on="0"/>
      </contour>
      <contour>
        <pt x="368" y="72" on="1"/>
        <pt x="417" y="72" on="0"/>
        <pt x="494" y="113" on="0"/>
        <pt x="546" y="182" on="0"/>
        <pt x="574" y="275" on="0"/>
        <pt x="574" y="328" on="1"/>
        <pt x="574" y="382" on="0"/>
        <pt x="545" y="475" on="0"/>
        <pt x="490" y="543" on="0"/>
        <pt x="412" y="582" on="0"/>
        <pt x="363" y="582" on="1"/>
        <pt x="315" y="582" on="0"/>
        <pt x="241" y="544" on="0"/>
        <pt x="191" y="476" on="0"/>
        <pt x="165" y="383" on="0"/>
        <pt x="165" y="329" on="1"/>
        <pt x="165" y="269" on="0"/>
        <pt x="195" y="174" on="0"/>
        <pt x="249" y="108" on="0"/>
        <pt x="323" y="72" on="0"/>
      </contour>
      <contour>
        <pt x="306" y="692" on="1"/>
        <pt x="280" y="742" on="1"/>
        <pt x="283" y="749" on="1"/>
        <pt x="464" y="850" on="1"/>
        <pt x="492" y="848" on="0"/>
        <pt x="519" y="811" on="0"/>
        <pt x="519" y="785" on="1"/>
        <pt x="519" y="775" on="0"/>
        <pt x="515" y="766" on="1"/>
        <pt x="314" y="689" on="1"/>
      </contour>
    </TTGlyph>
    <TTGlyph name="Ocircumflex" xMin="47" yMin="-11" xMax="691" yMax="849">
      <contour>
        <pt x="369" y="665" on="1"/>
        <pt x="446" y="665" on="0"/>
        <pt x="566" y="611" on="0"/>
        <pt x="648" y="518" on="0"/>
        <pt x="691" y="396" on="0"/>
        <pt x="691" y="329" on="1"/>
        <pt x="691" y="263" on="0"/>
        <pt x="649" y="140" on="0"/>
        <pt x="566" y="46" on="0"/>
        <pt x="443" y="-11" on="0"/>
        <pt x="362" y="-11" on="1"/>
        <pt x="284" y="-11" on="0"/>
        <pt x="166" y="43" on="0"/>
        <pt x="87" y="134" on="0"/>
        <pt x="47" y="255" on="0"/>
        <pt x="47" y="322" on="1"/>
        <pt x="47" y="393" on="0"/>
        <pt x="91" y="518" on="0"/>
        <pt x="173" y="611" on="0"/>
        <pt x="293" y="665" on="0"/>
      </contour>
      <contour>
        <pt x="368" y="72" on="1"/>
        <pt x="417" y="72" on="0"/>
        <pt x="494" y="113" on="0"/>
        <pt x="546" y="182" on="0"/>
        <pt x="574" y="275" on="0"/>
        <pt x="574" y="328" on="1"/>
        <pt x="574" y="382" on="0"/>
        <pt x="545" y="475" on="0"/>
        <pt x="490" y="543" on="0"/>
        <pt x="412" y="582" on="0"/>
        <pt x="363" y="582" on="1"/>
        <pt x="315" y="582" on="0"/>
        <pt x="241" y="544" on="0"/>
        <pt x="191" y="476" on="0"/>
        <pt x="165" y="383" on="0"/>
        <pt x="165" y="329" on="1"/>
        <pt x="165" y="269" on="0"/>
        <pt x="195" y="174" on="0"/>
        <pt x="249" y="108" on="0"/>
        <pt x="323" y="72" on="0"/>
      </contour>
      <contour>
        <pt x="378" y="849" on="1"/>
        <pt x="488" y="750" on="1"/>
        <pt x="491" y="743" on="1"/>
        <pt x="482" y="714" on="1"/>
        <pt x="475" y="711" on="1"/>
        <pt x="374" y="752" on="1"/>
        <pt x="273" y="711" on="1"/>
        <pt x="266" y="714" on="1"/>
        <pt x="257" y="743" on="1"/>
        <pt x="260" y="750" on="1"/>
        <pt x="370" y="849" on="1"/>
      </contour>
    </TTGlyph>
    <TTGlyph name="Odieresis" xMin="47" yMin="-11" xMax="691" yMax="851">
      <contour>
        <pt x="369" y="665" on="1"/>
        <pt x="446" y="665" on="0"/>
        <pt x="566" y="611" on="0"/>
        <pt x="648" y="518" on="0"/>
        <pt x="691" y="396" on="0"/>
        <pt x="691" y="329" on="1"/>
        <pt x="691" y="263" on="0"/>
        <pt x="649" y="140" on="0"/>
        <pt x="566" y="46" on="0"/>
        <pt x="443" y="-11" on="0"/>
        <pt x="362" y="-11" on="1"/>
        <pt x="284" y="-11" on="0"/>
        <pt x="166" y="43" on="0"/>
        <pt x="87" y="134" on="0"/>
        <pt x="47" y="255" on="0"/>
        <pt x="47" y="322" on="1"/>
        <pt x="47" y="393" on="0"/>
        <pt x="91" y="518" on="0"/>
        <pt x="173" y="611" on="0"/>
        <pt x="293" y="665" on="0"/>
      </contour>
      <contour>
        <pt x="368" y="72" on="1"/>
        <pt x="417" y="72" on="0"/>
        <pt x="494" y="113" on="0"/>
        <pt x="546" y="182" on="0"/>
        <pt x="574" y="275" on="0"/>
        <pt x="574" y="328" on="1"/>
        <pt x="574" y="382" on="0"/>
        <pt x="545" y="475" on="0"/>
        <pt x="490" y="543" on="0"/>
        <pt x="412" y="582" on="0"/>
        <pt x="363" y="582" on="1"/>
        <pt x="315" y="582" on="0"/>
        <pt x="241" y="544" on="0"/>
        <pt x="191" y="476" on="0"/>
        <pt x="165" y="383" on="0"/>
        <pt x="165" y="329" on="1"/>
        <pt x="165" y="269" on="0"/>
        <pt x="195" y="174" on="0"/>
        <pt x="249" y="108" on="0"/>
        <pt x="323" y="72" on="0"/>
      </contour>
      <contour>
        <pt x="223" y="785" on="1"/>
        <pt x="223" y="797" on="0"/>
        <pt x="233" y="821" on="0"/>
        <pt x="251" y="840" on="0"/>
        <pt x="274" y="851" on="0"/>
        <pt x="287" y="851" on="1"/>
        <pt x="312" y="851" on="0"/>
        <pt x="353" y="810" on="0"/>
        <pt x="353" y="785" on="1"/>
        <pt x="353" y="772" on="0"/>
        <pt x="342" y="749" on="0"/>
        <pt x="323" y="731" on="0"/>
        <pt x="299" y="721" on="0"/>
        <pt x="287" y="721" on="1"/>
        <pt x="261" y="721" on="0"/>
        <pt x="223" y="759" on="0"/>
      </contour>
      <contour>
        <pt x="383" y="785" on="1"/>
        <pt x="383" y="797" on="0"/>
        <pt x="393" y="821" on="0"/>
        <pt x="411" y="840" on="0"/>
        <pt x="434" y="851" on="0"/>
        <pt x="447" y="851" on="1"/>
        <pt x="472" y="851" on="0"/>
        <pt x="513" y="810" on="0"/>
        <pt x="513" y="785" on="1"/>
        <pt x="513" y="772" on="0"/>
        <pt x="502" y="749" on="0"/>
        <pt x="483" y="731" on="0"/>
        <pt x="459" y="721" on="0"/>
        <pt x="447" y="721" on="1"/>
        <pt x="421" y="721" on="0"/>
        <pt x="383" y="759" on="0"/>
      </contour>
    </TTGlyph>
    <TTGlyph name="Ograve" xMin="47" yMin="-11" xMax="691" yMax="849">
      <contour>
        <pt x="369" y="665" on="1"/>
        <pt x="446" y="665" on="0"/>
        <pt x="566" y="611" on="0"/>
        <pt x="648" y="518" on="0"/>
        <pt x="691" y="396" on="0"/>
        <pt x="691" y="329" on="1"/>
        <pt x="691" y="263" on="0"/>
        <pt x="649" y="140" on="0"/>
        <pt x="566" y="46" on="0"/>
        <pt x="443" y="-11" on="0"/>
        <pt x="362" y="-11" on="1"/>
        <pt x="284" y="-11" on="0"/>
        <pt x="166" y="43" on="0"/>
        <pt x="87" y="134" on="0"/>
        <pt x="47" y="255" on="0"/>
        <pt x="47" y="322" on="1"/>
        <pt x="47" y="393" on="0"/>
        <pt x="91" y="518" on="0"/>
        <pt x="173" y="611" on="0"/>
        <pt x="293" y="665" on="0"/>
      </contour>
      <contour>
        <pt x="368" y="72" on="1"/>
        <pt x="417" y="72" on="0"/>
        <pt x="494" y="113" on="0"/>
        <pt x="546" y="182" on="0"/>
        <pt x="574" y="275" on="0"/>
        <pt x="574" y="328" on="1"/>
        <pt x="574" y="382" on="0"/>
        <pt x="545" y="475" on="0"/>
        <pt x="490" y="543" on="0"/>
        <pt x="412" y="582" on="0"/>
        <pt x="363" y="582" on="1"/>
        <pt x="315" y="582" on="0"/>
        <pt x="241" y="544" on="0"/>
        <pt x="191" y="476" on="0"/>
        <pt x="165" y="383" on="0"/>
        <pt x="165" y="329" on="1"/>
        <pt x="165" y="269" on="0"/>
        <pt x="195" y="174" on="0"/>
        <pt x="249" y="108" on="0"/>
        <pt x="323" y="72" on="0"/>
      </contour>
      <contour>
        <pt x="419" y="688" on="1"/>
        <pt x="218" y="765" on="1"/>
        <pt x="214" y="774" on="0"/>
        <pt x="214" y="784" on="1"/>
        <pt x="214" y="810" on="0"/>
        <pt x="241" y="847" on="0"/>
        <pt x="269" y="849" on="1"/>
        <pt x="450" y="748" on="1"/>
        <pt x="453" y="741" on="1"/>
        <pt x="427" y="691" on="1"/>
      </contour>
    </TTGlyph>
    <TTGlyph name="Oslash" xMin="32" yMin="-50" xMax="713" yMax="702">
      <contour>
        <pt x="369" y="665" on="1"/>
        <pt x="423" y="665" on="0"/>
        <pt x="515" y="637" on="0"/>
        <pt x="552" y="612" on="1"/>
        <pt x="571" y="635" on="0"/>
        <pt x="605" y="679" on="0"/>
        <pt x="618" y="699" on="1"/>
        <pt x="622" y="702" on="1"/>
        <pt x="713" y="641" on="1"/>
        <pt x="712" y="637" on="1"/>
        <pt x="689" y="617" on="0"/>
        <pt x="644" y="570" on="0"/>
        <pt x="621" y="546" on="1"/>
        <pt x="656" y="501" on="0"/>
        <pt x="691" y="390" on="0"/>
        <pt x="691" y="329" on="1"/>
        <pt x="691" y="263" on="0"/>
        <pt x="649" y="140" on="0"/>
        <pt x="566" y="46" on="0"/>
        <pt x="443" y="-11" on="0"/>
        <pt x="362" y="-11" on="1"/>
        <pt x="308" y="-11" on="0"/>
        <pt x="219" y="15" on="0"/>
        <pt x="184" y="38" on="1"/>
        <pt x="143" y="-12" on="0"/>
        <pt x="118" y="-48" on="1"/>
        <pt x="114" y="-50" on="1"/>
        <pt x="32" y="30" on="1"/>
        <pt x="33" y="34" on="1"/>
        <pt x="50" y="50" on="0"/>
        <pt x="90" y="88" on="0"/>
        <pt x="110" y="108" on="1"/>
        <pt x="78" y="153" on="0"/>
        <pt x="47" y="262" on="0"/>
        <pt x="47" y="322" on="1"/>
        <pt x="47" y="393" on="0"/>
        <pt x="91" y="518" on="0"/>
        <pt x="173" y="611" on="0"/>
        <pt x="293" y="665" on="0"/>
      </contour>
      <contour>
        <pt x="191" y="193" on="1"/>
        <pt x="266" y="275" on="0"/>
        <pt x="417" y="449" on="0"/>
        <pt x="490" y="537" on="1"/>
        <pt x="464" y="558" on="0"/>
        <pt x="401" y="582" on="0"/>
        <pt x="363" y="582" on="1"/>
        <pt x="315" y="582" on="0"/>
        <pt x="241" y="544" on="0"/>
        <pt x="191" y="476" on="0"/>
        <pt x="165" y="383" on="0"/>
        <pt x="165" y="329" on="1"/>
        <pt x="165" y="251" on="0"/>
      </contour>
      <contour>
        <pt x="368" y="72" on="1"/>
        <pt x="417" y="72" on="0"/>
        <pt x="494" y="113" on="0"/>
        <pt x="546" y="182" on="0"/>
        <pt x="574" y="275" on="0"/>
        <pt x="574" y="328" on="1"/>
        <pt x="574" y="401" on="0"/>
        <pt x="546" y="462" on="1"/>
        <pt x="468" y="374" on="0"/>
        <pt x="318" y="201" on="0"/>
        <pt x="247" y="114" on="1"/>
        <pt x="298" y="72" on="0"/>
      </contour>
    </TTGlyph>
    <TTGlyph name="Otilde" xMin="47" yMin="-11" xMax="691" yMax="851">
      <contour>
        <pt x="369" y="665" on="1"/>
        <pt x="446" y="665" on="0"/>
        <pt x="566" y="611" on="0"/>
        <pt x="648" y="518" on="0"/>
        <pt x="691" y="396" on="0"/>
        <pt x="691" y="329" on="1"/>
        <pt x="691" y="263" on="0"/>
        <pt x="649" y="140" on="0"/>
        <pt x="566" y="46" on="0"/>
        <pt x="443" y="-11" on="0"/>
        <pt x="362" y="-11" on="1"/>
        <pt x="284" y="-11" on="0"/>
        <pt x="166" y="43" on="0"/>
        <pt x="87" y="134" on="0"/>
        <pt x="47" y="255" on="0"/>
        <pt x="47" y="322" on="1"/>
        <pt x="47" y="393" on="0"/>
        <pt x="91" y="518" on="0"/>
        <pt x="173" y="611" on="0"/>
        <pt x="293" y="665" on="0"/>
      </contour>
      <contour>
        <pt x="368" y="72" on="1"/>
        <pt x="417" y="72" on="0"/>
        <pt x="494" y="113" on="0"/>
        <pt x="546" y="182" on="0"/>
        <pt x="574" y="275" on="0"/>
        <pt x="574" y="328" on="1"/>
        <pt x="574" y="382" on="0"/>
        <pt x="545" y="475" on="0"/>
        <pt x="490" y="543" on="0"/>
        <pt x="412" y="582" on="0"/>
        <pt x="363" y="582" on="1"/>
        <pt x="315" y="582" on="0"/>
        <pt x="241" y="544" on="0"/>
        <pt x="191" y="476" on="0"/>
        <pt x="165" y="383" on="0"/>
        <pt x="165" y="329" on="1"/>
        <pt x="165" y="269" on="0"/>
        <pt x="195" y="174" on="0"/>
        <pt x="249" y="108" on="0"/>
        <pt x="323" y="72" on="0"/>
      </contour>
      <contour>
        <pt x="524" y="803" on="1"/>
        <pt x="521" y="789" on="0"/>
        <pt x="508" y="762" on="0"/>
        <pt x="487" y="740" on="0"/>
        <pt x="457" y="726" on="0"/>
        <pt x="436" y="726" on="1"/>
        <pt x="396" y="726" on="0"/>
        <pt x="313" y="740" on="0"/>
        <pt x="281" y="740" on="1"/>
        <pt x="256" y="740" on="0"/>
        <pt x="236" y="727" on="0"/>
        <pt x="226" y="715" on="1"/>
        <pt x="213" y="763" on="1"/>
        <pt x="217" y="776" on="0"/>
        <pt x="231" y="804" on="0"/>
        <pt x="252" y="825" on="0"/>
        <pt x="283" y="839" on="0"/>
        <pt x="304" y="839" on="1"/>
        <pt x="329" y="839" on="0"/>
        <pt x="366" y="835" on="0"/>
        <pt x="398" y="829" on="0"/>
        <pt x="428" y="825" on="0"/>
        <pt x="447" y="825" on="1"/>
        <pt x="464" y="825" on="0"/>
        <pt x="498" y="833" on="0"/>
        <pt x="512" y="851" on="1"/>
      </contour>
    </TTGlyph>
    <TTGlyph name="P" xMin="40" yMin="-6" xMax="555" yMax="660">
      <contour>
        <pt x="325" y="-6" on="1"/>
        <pt x="318" y="-6" on="0"/>
        <pt x="286" y="-4" on="0"/>
        <pt x="252" y="-2" on="0"/>
        <pt x="220" y="0" on="0"/>
        <pt x="213" y="0" on="1"/>
        <pt x="154" y="0" on="1"/>
        <pt x="147" y="0" on="0"/>
        <pt x="115" y="-2" on="0"/>
        <pt x="81" y="-4" on="0"/>
        <pt x="49" y="-6" on="0"/>
        <pt x="42" y="-6" on="1"/>
        <pt x="40" y="-2" on="1"/>
        <pt x="43" y="36" on="1"/>
        <pt x="48" y="40" on="1"/>
        <pt x="60" y="40" on="0"/>
        <pt x="92" y="43" on="0"/>
        <pt x="101" y="49" on="1"/>
        <pt x="109" y="55" on="0"/>
        <pt x="123" y="81" on="0"/>
        <pt x="126" y="107" on="1"/>
        <pt x="126" y="114" on="0"/>
        <pt x="127" y="133" on="0"/>
        <pt x="128" y="161" on="0"/>
        <pt x="128" y="201" on="0"/>
        <pt x="128" y="231" on="1"/>
        <pt x="128" y="451" on="1"/>
        <pt x="128" y="471" on="0"/>
        <pt x="128" y="522" on="0"/>
        <pt x="126" y="547" on="1"/>
        <pt x="124" y="573" on="0"/>
        <pt x="109" y="598" on="0"/>
        <pt x="101" y="604" on="1"/>
        <pt x="92" y="612" on="0"/>
        <pt x="73" y="614" on="0"/>
        <pt x="48" y="614" on="1"/>
        <pt x="43" y="618" on="1"/>
        <pt x="40" y="656" on="1"/>
        <pt x="42" y="660" on="1"/>
        <pt x="49" y="660" on="0"/>
        <pt x="72" y="658" on="0"/>
        <pt x="97" y="656" on="0"/>
        <pt x="123" y="654" on="0"/>
        <pt x="134" y="654" on="1"/>
        <pt x="210" y="654" on="1"/>
        <pt x="221" y="654" on="0"/>
        <pt x="249" y="655" on="0"/>
        <pt x="278" y="655" on="0"/>
        <pt x="302" y="656" on="0"/>
        <pt x="310" y="656" on="1"/>
        <pt x="377" y="656" on="0"/>
        <pt x="470" y="629" on="0"/>
        <pt x="528" y="581" on="0"/>
        <pt x="555" y="514" on="0"/>
        <pt x="555" y="474" on="1"/>
        <pt x="555" y="407" on="0"/>
        <pt x="507" y="321" on="0"/>
        <pt x="432" y="271" on="0"/>
        <pt x="339" y="252" on="0"/>
        <pt x="295" y="252" on="1"/>
        <pt x="239" y="252" on="1"/>
        <pt x="239" y="232" on="0"/>
        <pt x="239" y="188" on="0"/>
        <pt x="240" y="147" on="0"/>
        <pt x="241" y="115" on="0"/>
        <pt x="242" y="107" on="1"/>
        <pt x="244" y="78" on="0"/>
        <pt x="260" y="55" on="0"/>
        <pt x="266" y="50" on="1"/>
        <pt x="275" y="42" on="0"/>
        <pt x="294" y="40" on="0"/>
        <pt x="320" y="40" on="1"/>
        <pt x="324" y="36" on="1"/>
        <pt x="327" y="-2" on="1"/>
      </contour>
      <contour>
        <pt x="290" y="326" on="1"/>
        <pt x="374" y="326" on="0"/>
        <pt x="446" y="402" on="0"/>
        <pt x="446" y="469" on="1"/>
        <pt x="446" y="523" on="0"/>
        <pt x="363" y="576" on="0"/>
        <pt x="291" y="576" on="1"/>
        <pt x="244" y="576" on="1"/>
        <pt x="241" y="532" on="0"/>
        <pt x="239" y="489" on="0"/>
        <pt x="239" y="472" on="1"/>
        <pt x="239" y="363" on="1"/>
        <pt x="239" y="350" on="0"/>
        <pt x="241" y="335" on="0"/>
        <pt x="249" y="328" on="0"/>
        <pt x="264" y="326" on="0"/>
        <pt x="277" y="326" on="1"/>
      </contour>
    </TTGlyph>
    <TTGlyph name="Q" xMin="47" yMin="-166" xMax="793" yMax="665">
      <contour>
        <pt x="369" y="665" on="1"/>
        <pt x="446" y="665" on="0"/>
        <pt x="566" y="611" on="0"/>
        <pt x="648" y="519" on="0"/>
        <pt x="691" y="397" on="0"/>
        <pt x="691" y="330" on="1"/>
        <pt x="691" y="266" on="0"/>
        <pt x="653" y="147" on="0"/>
        <pt x="578" y="54" on="0"/>
        <pt x="468" y="-6" on="0"/>
        <pt x="396" y="-10" on="1"/>
        <pt x="447" y="-11" on="0"/>
        <pt x="525" y="-34" on="0"/>
        <pt x="594" y="-61" on="0"/>
        <pt x="662" y="-83" on="0"/>
        <pt x="701" y="-83" on="1"/>
        <pt x="715" y="-83" on="0"/>
        <pt x="754" y="-76" on="0"/>
        <pt x="776" y="-63" on="1"/>
        <pt x="779" y="-65" on="1"/>
        <pt x="793" y="-93" on="1"/>
        <pt x="792" y="-97" on="1"/>
        <pt x="769" y="-126" on="0"/>
        <pt x="703" y="-166" on="0"/>
        <pt x="662" y="-166" on="1"/>
        <pt x="628" y="-166" on="0"/>
        <pt x="557" y="-135" on="0"/>
        <pt x="479" y="-98" on="0"/>
        <pt x="395" y="-67" on="0"/>
        <pt x="349" y="-67" on="1"/>
        <pt x="310" y="-67" on="0"/>
        <pt x="237" y="-93" on="0"/>
        <pt x="220" y="-108" on="1"/>
        <pt x="217" y="-107" on="1"/>
        <pt x="206" y="-68" on="1"/>
        <pt x="207" y="-65" on="1"/>
        <pt x="229" y="-50" on="0"/>
        <pt x="303" y="-14" on="0"/>
        <pt x="346" y="-11" on="1"/>
        <pt x="272" y="-10" on="0"/>
        <pt x="160" y="44" on="0"/>
        <pt x="85" y="135" on="0"/>
        <pt x="47" y="255" on="0"/>
        <pt x="47" y="322" on="1"/>
        <pt x="47" y="393" on="0"/>
        <pt x="91" y="518" on="0"/>
        <pt x="173" y="611" on="0"/>
        <pt x="293" y="665" on="0"/>
      </contour>
      <contour>
        <pt x="368" y="72" on="1"/>
        <pt x="417" y="72" on="0"/>
        <pt x="494" y="113" on="0"/>
        <pt x="546" y="182" on="0"/>
        <pt x="574" y="275" on="0"/>
        <pt x="574" y="328" on="1"/>
        <pt x="574" y="382" on="0"/>
        <pt x="545" y="475" on="0"/>
        <pt x="490" y="543" on="0"/>
        <pt x="412" y="582" on="0"/>
        <pt x="363" y="582" on="1"/>
        <pt x="315" y="582" on="0"/>
        <pt x="241" y="544" on="0"/>
        <pt x="191" y="476" on="0"/>
        <pt x="165" y="383" on="0"/>
        <pt x="165" y="329" on="1"/>
        <pt x="165" y="270" on="0"/>
        <pt x="195" y="175" on="0"/>
        <pt x="249" y="108" on="0"/>
        <pt x="323" y="72" on="0"/>
      </contour>
    </TTGlyph>
    <TTGlyph name="Q.salt" xMin="47" yMin="-181" xMax="724" yMax="665">
      <contour>
        <pt x="374" y="665" on="1"/>
        <pt x="452" y="665" on="0"/>
        <pt x="574" y="611" on="0"/>
        <pt x="657" y="518" on="0"/>
        <pt x="701" y="396" on="0"/>
        <pt x="701" y="329" on="1"/>
        <pt x="701" y="275" on="0"/>
        <pt x="672" y="174" on="0"/>
        <pt x="617" y="89" on="0"/>
        <pt x="534" y="23" on="0"/>
        <pt x="480" y="5" on="1"/>
        <pt x="461" y="-1" on="0"/>
        <pt x="420" y="-9" on="0"/>
        <pt x="381" y="-17" on="0"/>
        <pt x="344" y="-26" on="0"/>
        <pt x="329" y="-34" on="1"/>
        <pt x="330" y="-37" on="1"/>
        <pt x="376" y="-39" on="0"/>
        <pt x="455" y="-55" on="0"/>
        <pt x="529" y="-72" on="0"/>
        <pt x="599" y="-86" on="0"/>
        <pt x="637" y="-86" on="1"/>
        <pt x="651" y="-86" on="0"/>
        <pt x="693" y="-79" on="0"/>
        <pt x="716" y="-64" on="1"/>
        <pt x="720" y="-66" on="1"/>
        <pt x="724" y="-106" on="1"/>
        <pt x="723" y="-111" on="1"/>
        <pt x="698" y="-143" on="0"/>
        <pt x="645" y="-181" on="0"/>
        <pt x="604" y="-181" on="1"/>
        <pt x="568" y="-181" on="0"/>
        <pt x="494" y="-160" on="0"/>
        <pt x="413" y="-134" on="0"/>
        <pt x="320" y="-113" on="0"/>
        <pt x="265" y="-113" on="1"/>
        <pt x="252" y="-113" on="0"/>
        <pt x="220" y="-117" on="0"/>
        <pt x="187" y="-125" on="0"/>
        <pt x="157" y="-137" on="0"/>
        <pt x="148" y="-144" on="1"/>
        <pt x="144" y="-143" on="1"/>
        <pt x="139" y="-96" on="1"/>
        <pt x="140" y="-93" on="1"/>
        <pt x="158" y="-78" on="0"/>
        <pt x="211" y="-48" on="0"/>
        <pt x="243" y="-41" on="1"/>
        <pt x="295" y="-7" on="1"/>
        <pt x="294" y="-4" on="1"/>
        <pt x="232" y="7" on="0"/>
        <pt x="140" y="67" on="0"/>
        <pt x="78" y="154" on="0"/>
        <pt x="47" y="263" on="0"/>
        <pt x="47" y="322" on="1"/>
        <pt x="47" y="393" on="0"/>
        <pt x="91" y="518" on="0"/>
        <pt x="175" y="611" on="0"/>
        <pt x="297" y="665" on="0"/>
      </contour>
      <contour>
        <pt x="373" y="72" on="1"/>
        <pt x="423" y="72" on="0"/>
        <pt x="502" y="113" on="0"/>
        <pt x="556" y="182" on="0"/>
        <pt x="584" y="275" on="0"/>
        <pt x="584" y="328" on="1"/>
        <pt x="584" y="382" on="0"/>
        <pt x="554" y="475" on="0"/>
        <pt x="498" y="543" on="0"/>
        <pt x="418" y="582" on="0"/>
        <pt x="368" y="582" on="1"/>
        <pt x="318" y="582" on="0"/>
        <pt x="243" y="544" on="0"/>
        <pt x="191" y="476" on="0"/>
        <pt x="165" y="383" on="0"/>
        <pt x="165" y="329" on="1"/>
        <pt x="165" y="269" on="0"/>
        <pt x="196" y="174" on="0"/>
        <pt x="251" y="108" on="0"/>
        <pt x="327" y="72" on="0"/>
      </contour>
    </TTGlyph>
    <TTGlyph name="R" xMin="40" yMin="-11" xMax="686" yMax="660">
      <contour>
        <pt x="325" y="-6" on="1"/>
        <pt x="317" y="-5" on="0"/>
        <pt x="288" y="-3" on="0"/>
        <pt x="255" y="-1" on="0"/>
        <pt x="224" y="0" on="0"/>
        <pt x="213" y="0" on="1"/>
        <pt x="154" y="0" on="1"/>
        <pt x="142" y="0" on="0"/>
        <pt x="110" y="-1" on="0"/>
        <pt x="78" y="-3" on="0"/>
        <pt x="49" y="-5" on="0"/>
        <pt x="42" y="-6" on="1"/>
        <pt x="40" y="-2" on="1"/>
        <pt x="43" y="36" on="1"/>
        <pt x="48" y="40" on="1"/>
        <pt x="86" y="40" on="0"/>
        <pt x="100" y="49" on="1"/>
        <pt x="121" y="63" on="0"/>
        <pt x="126" y="107" on="1"/>
        <pt x="127" y="124" on="0"/>
        <pt x="128" y="195" on="0"/>
        <pt x="128" y="231" on="1"/>
        <pt x="128" y="451" on="1"/>
        <pt x="128" y="486" on="0"/>
        <pt x="126" y="527" on="0"/>
        <pt x="124" y="547" on="1"/>
        <pt x="120" y="574" on="0"/>
        <pt x="111" y="598" on="0"/>
        <pt x="102" y="605" on="1"/>
        <pt x="94" y="610" on="0"/>
        <pt x="71" y="614" on="0"/>
        <pt x="48" y="614" on="1"/>
        <pt x="43" y="618" on="1"/>
        <pt x="40" y="656" on="1"/>
        <pt x="42" y="660" on="1"/>
        <pt x="68" y="657" on="0"/>
        <pt x="119" y="654" on="0"/>
        <pt x="134" y="654" on="1"/>
        <pt x="210" y="654" on="1"/>
        <pt x="233" y="654" on="0"/>
        <pt x="292" y="656" on="0"/>
        <pt x="314" y="656" on="1"/>
        <pt x="433" y="656" on="0"/>
        <pt x="555" y="567" on="0"/>
        <pt x="555" y="479" on="1"/>
        <pt x="555" y="416" on="0"/>
        <pt x="482" y="313" on="0"/>
        <pt x="410" y="275" on="1"/>
        <pt x="444" y="224" on="0"/>
        <pt x="491" y="160" on="0"/>
        <pt x="508" y="141" on="1"/>
        <pt x="531" y="114" on="0"/>
        <pt x="571" y="78" on="0"/>
        <pt x="610" y="54" on="0"/>
        <pt x="652" y="42" on="0"/>
        <pt x="678" y="40" on="1"/>
        <pt x="684" y="36" on="1"/>
        <pt x="686" y="-2" on="1"/>
        <pt x="684" y="-6" on="1"/>
        <pt x="646" y="-8" on="0"/>
        <pt x="590" y="-11" on="0"/>
        <pt x="577" y="-11" on="1"/>
        <pt x="524" y="-11" on="0"/>
        <pt x="441" y="48" on="0"/>
        <pt x="394" y="119" on="1"/>
        <pt x="383" y="135" on="0"/>
        <pt x="358" y="175" on="0"/>
        <pt x="333" y="214" on="0"/>
        <pt x="311" y="250" on="0"/>
        <pt x="304" y="263" on="1"/>
        <pt x="239" y="263" on="1"/>
        <pt x="239" y="229" on="0"/>
        <pt x="239" y="180" on="0"/>
        <pt x="240" y="144" on="0"/>
        <pt x="242" y="118" on="0"/>
        <pt x="243" y="107" on="1"/>
        <pt x="247" y="61" on="0"/>
        <pt x="265" y="49" on="1"/>
        <pt x="272" y="44" on="0"/>
        <pt x="294" y="40" on="0"/>
        <pt x="320" y="40" on="1"/>
        <pt x="324" y="36" on="1"/>
        <pt x="327" y="-2" on="1"/>
      </contour>
      <contour>
        <pt x="290" y="337" on="1"/>
        <pt x="363" y="337" on="0"/>
        <pt x="446" y="407" on="0"/>
        <pt x="446" y="469" on="1"/>
        <pt x="446" y="525" on="0"/>
        <pt x="372" y="576" on="0"/>
        <pt x="291" y="576" on="1"/>
        <pt x="244" y="576" on="1"/>
        <pt x="241" y="536" on="0"/>
        <pt x="239" y="492" on="0"/>
        <pt x="239" y="472" on="1"/>
        <pt x="239" y="374" on="1"/>
        <pt x="239" y="353" on="0"/>
        <pt x="249" y="337" on="0"/>
        <pt x="263" y="337" on="1"/>
      </contour>
    </TTGlyph>
    <TTGlyph name="S" xMin="47" yMin="-11" xMax="522" yMax="665">
      <contour>
        <pt x="162" y="503" on="1"/>
        <pt x="162" y="477" on="0"/>
        <pt x="190" y="441" on="0"/>
        <pt x="238" y="414" on="0"/>
        <pt x="302" y="390" on="0"/>
        <pt x="338" y="377" on="1"/>
        <pt x="374" y="363" on="0"/>
        <pt x="440" y="332" on="0"/>
        <pt x="491" y="287" on="0"/>
        <pt x="522" y="226" on="0"/>
        <pt x="522" y="183" on="1"/>
        <pt x="522" y="139" on="0"/>
        <pt x="488" y="68" on="0"/>
        <pt x="425" y="17" on="0"/>
        <pt x="334" y="-11" on="0"/>
        <pt x="278" y="-11" on="1"/>
        <pt x="218" y="-11" on="0"/>
        <pt x="98" y="19" on="0"/>
        <pt x="51" y="45" on="1"/>
        <pt x="47" y="58" on="1"/>
        <pt x="70" y="192" on="1"/>
        <pt x="115" y="192" on="1"/>
        <pt x="120" y="186" on="1"/>
        <pt x="126" y="117" on="0"/>
        <pt x="207" y="59" on="0"/>
        <pt x="277" y="59" on="1"/>
        <pt x="346" y="59" on="0"/>
        <pt x="408" y="108" on="0"/>
        <pt x="408" y="156" on="1"/>
        <pt x="408" y="187" on="0"/>
        <pt x="382" y="227" on="0"/>
        <pt x="335" y="255" on="0"/>
        <pt x="269" y="277" on="0"/>
        <pt x="229" y="292" on="1"/>
        <pt x="193" y="305" on="0"/>
        <pt x="131" y="336" on="0"/>
        <pt x="86" y="379" on="0"/>
        <pt x="60" y="439" on="0"/>
        <pt x="60" y="481" on="1"/>
        <pt x="60" y="569" on="0"/>
        <pt x="175" y="665" on="0"/>
        <pt x="293" y="665" on="1"/>
        <pt x="347" y="665" on="0"/>
        <pt x="441" y="640" on="0"/>
        <pt x="473" y="623" on="1"/>
        <pt x="477" y="612" on="1"/>
        <pt x="461" y="498" on="1"/>
        <pt x="413" y="498" on="1"/>
        <pt x="408" y="503" on="1"/>
        <pt x="402" y="545" on="0"/>
        <pt x="342" y="591" on="0"/>
        <pt x="288" y="591" on="1"/>
        <pt x="228" y="591" on="0"/>
        <pt x="162" y="543" on="0"/>
      </contour>
    </TTGlyph>
    <TTGlyph name="Scaron" xMin="47" yMin="-11" xMax="522" yMax="850">
      <contour>
        <pt x="162" y="503" on="1"/>
        <pt x="162" y="477" on="0"/>
        <pt x="190" y="441" on="0"/>
        <pt x="238" y="414" on="0"/>
        <pt x="302" y="390" on="0"/>
        <pt x="338" y="377" on="1"/>
        <pt x="374" y="363" on="0"/>
        <pt x="440" y="332" on="0"/>
        <pt x="491" y="287" on="0"/>
        <pt x="522" y="226" on="0"/>
        <pt x="522" y="183" on="1"/>
        <pt x="522" y="139" on="0"/>
        <pt x="488" y="68" on="0"/>
        <pt x="425" y="17" on="0"/>
        <pt x="334" y="-11" on="0"/>
        <pt x="278" y="-11" on="1"/>
        <pt x="218" y="-11" on="0"/>
        <pt x="98" y="19" on="0"/>
        <pt x="51" y="45" on="1"/>
        <pt x="47" y="58" on="1"/>
        <pt x="70" y="192" on="1"/>
        <pt x="115" y="192" on="1"/>
        <pt x="120" y="186" on="1"/>
        <pt x="126" y="117" on="0"/>
        <pt x="207" y="59" on="0"/>
        <pt x="277" y="59" on="1"/>
        <pt x="346" y="59" on="0"/>
        <pt x="408" y="108" on="0"/>
        <pt x="408" y="156" on="1"/>
        <pt x="408" y="187" on="0"/>
        <pt x="382" y="227" on="0"/>
        <pt x="335" y="255" on="0"/>
        <pt x="269" y="277" on="0"/>
        <pt x="229" y="292" on="1"/>
        <pt x="193" y="305" on="0"/>
        <pt x="131" y="336" on="0"/>
        <pt x="86" y="379" on="0"/>
        <pt x="60" y="439" on="0"/>
        <pt x="60" y="481" on="1"/>
        <pt x="60" y="569" on="0"/>
        <pt x="175" y="665" on="0"/>
        <pt x="293" y="665" on="1"/>
        <pt x="347" y="665" on="0"/>
        <pt x="441" y="640" on="0"/>
        <pt x="473" y="623" on="1"/>
        <pt x="477" y="612" on="1"/>
        <pt x="461" y="498" on="1"/>
        <pt x="413" y="498" on="1"/>
        <pt x="408" y="503" on="1"/>
        <pt x="402" y="545" on="0"/>
        <pt x="342" y="591" on="0"/>
        <pt x="288" y="591" on="1"/>
        <pt x="228" y="591" on="0"/>
        <pt x="162" y="543" on="0"/>
      </contour>
      <contour>
        <pt x="267" y="712" on="1"/>
        <pt x="137" y="811" on="1"/>
        <pt x="134" y="818" on="1"/>
        <pt x="143" y="847" on="1"/>
        <pt x="150" y="850" on="1"/>
        <pt x="272" y="796" on="1"/>
        <pt x="392" y="850" on="1"/>
        <pt x="399" y="847" on="1"/>
        <pt x="408" y="818" on="1"/>
        <pt x="405" y="811" on="1"/>
        <pt x="275" y="712" on="1"/>
      </contour>
    </TTGlyph>
</ttFont>
